<svg version="1.1" xmlns="http://www.w3.org/2000/svg" width="290.6" height="141.7" viewBox="0 0 290.6 141.7" enable-background="new 0 0 290.6 141.7"><rect width="290.6" height="141.7" fill="#363664"/><path d="m60.8 83.5l-2.5-7.1h-9.8l-2.5 7.1h-5.6l10.5-29.4h5.1l10.5 29.4h-5.7m-7.4-21l-3 8.6h6.1l-3.1-8.6m22.5 21.4h-1.9c-3.7 0-5.4-2.5-5.4-5.5v-26.4h5.2v24.3c0 3.4.5 3.4 2.5 3.4l-.4 4.2m11 0h-1.9c-3.7 0-5.4-2.5-5.4-5.5v-26.4h5.2v24.3c0 3.4.5 3.4 2.5 3.4l-.4 4.2m7.7-9.8c.6 3.9 3.5 5.5 6.3 5.5 2 0 4.7-.8 6.5-1.7l.3 4.4c-1.6.8-4 1.6-7 1.6-7.6 0-11.4-5-11.4-10.9 0-5.8 3.6-10.9 10.1-10.9 5.3 0 9.2 3.6 9.2 9.1 0 .9-.1 1.8-.3 2.9h-13.7m.2-3.5h8.5c0-1.9-1-4.2-3.8-4.2-2.7 0-4.2 1.8-4.7 4.2m28.3-3.6h-1.9c-1.7 0-3.2.9-3.8 2.1v14.3h-5.2v-21h4.9l.1 2.2c1.1-1.1 3.2-2.6 5.6-2.6h1.4l-1.1 5m30.4 16.9h-1.9c-2.4 0-3.9-1-4.7-2.4-1.4 1.6-3.9 2.4-6.4 2.4-3.4 0-6.1-2.3-6.1-6.3 0-5.9 7.9-7.4 11.8-7.5-.1-2.4-1.1-3.4-3.8-3.4-1.9 0-3.5.5-5.8 1.6l-.5-4.2c2.5-1.2 5-1.8 7.6-1.8 4.7 0 7.6 2.4 7.6 8.4v5.7c0 3.2.3 3.4 1.8 3.4h.7l-.3 4.1m-7.3-10.3c-2.9.1-6.4 1.3-6.4 3.8 0 1.7.8 2.5 2.8 2.5.9 0 2.5-.5 3.6-1.5v-4.8m-6.2-17.3v-4.3l7.9 3.8v3.1l-7.9-2.6m33.5 27.6h-1.9c-3.7 0-5.4-2.5-5.4-5.5v-26.4h5.2v24.3c0 3.4.5 3.4 2.5 3.4l-.4 4.2m3.8-21.9l-1.1-.6 1.4-3.6-1.4-.4v-5.4h5.2v5.5l-4.1 4.5m24 21.9h-1.9c-2.4 0-3.9-1-4.7-2.4-1.4 1.6-3.9 2.4-6.4 2.4-3.4 0-6.1-2.3-6.1-6.3 0-5.9 7.9-7.4 11.8-7.5-.1-2.4-1.1-3.4-3.8-3.4-1.9 0-3.5.5-5.8 1.6l-.4-4.3c2.5-1.2 5-1.8 7.6-1.8 4.7 0 7.6 2.4 7.6 8.4v5.7c0 3.2.3 3.4 1.8 3.4h.7l-.4 4.2m-7.3-10.3c-2.9.1-6.4 1.3-6.4 3.8 0 1.7.8 2.5 2.8 2.5.9 0 2.5-.5 3.6-1.5v-4.8m15.9 8.9v11.2h-5.2v-31.2h4.5l.4 1.2c1.4-1 2.9-1.6 5.2-1.6 6.7 0 10.3 5 10.3 10.9s-3.6 10.9-10.3 10.9c-2.2 0-3.5-.5-4.9-1.4m-.3-9.5c0 3.9 1.5 6.6 4.8 6.6 3.4 0 5.3-2.7 5.3-6.6 0-3.9-1.9-6.6-5.3-6.6-3.3 0-4.8 2.7-4.8 6.6m24.3 9.5v11.2h-5.2v-31.2h4.5l.4 1.2c1.4-1 2.9-1.6 5.2-1.6 6.7 0 10.3 5 10.3 10.9s-3.6 10.9-10.3 10.9c-2.2 0-3.5-.5-4.9-1.4m-.3-9.5c0 3.9 1.5 6.6 4.8 6.6 3.4 0 5.3-2.7 5.3-6.6 0-3.9-1.9-6.6-5.3-6.6-3.3 0-4.8 2.7-4.8 6.6" fill="#fff"/></svg>