<svg version="1.1" xmlns="http://www.w3.org/2000/svg" xmlns:xlink="http://www.w3.org/1999/xlink" x="0px" y="0px" width="1162.2px" height="1332.3px" viewBox="0 0 1162.2 1332.3" style="enable-background:new 0 0 1162.2 1332.3;" xml:space="preserve">

	<defs>
		<style type="text/css">@import url('../../stylesheets/css/sspace.css')</style>
	</defs>

	<style type="text/css">
		svg{font-size: 62.5%}
		.st1{fill:none;stroke:#FFFFFF;stroke-width:3.5;stroke-miterlimit:10;}
		.st3{fill:#FFFFFF;}
		.st13{fill:#363664;}
		.st14{font-family:'Cabin'; font-weight: 700}
		.st15{font-size:4.8rem;}
		.st16{fill:none;}
		.st17{font-family:'Cabin'; font-weight: 700}
		.st18{font-size:3.6rem;}
		.st19{font-family:'Cabin'; font-weight: 700}
		.st20{font-size:4.2rem;}
		.st21{font-family:'Cabin'; font-weight: 700}
		.st22{font-size:2.8rem;
	</style>

	<g id="wrap">
		<path class="st3" d="M1146.2,16v1300.8H16V16H1146.2 M1162.2,0H0v1332.8h1162.2V0L1162.2,0z"/>
		<rect x="0" y="1190.8" class="st3" width="1162.2" height="141.7"/>
		<text transform="matrix(1 0 0 1 60.0001 1278.7842)" class="st13 st14 st15">vrBox</text>
		<g id="mail-1">
			<path class="st3" d="M1158.2,4.2v558.9H4V4.2H1158.2 M1162.2,0.2H0v566.9h1162.2V0.2L1162.2,0.2z"/>
			<g id="img_1_">
				<defs>
					<rect id="SVGID_13_" x="56.7" y="56.9" width="113.4" height="113.4"/>
				</defs>
				<clipPath id="SVGID_2_">
					<use xlink:href="#SVGID_13_"  style="overflow:visible;"/>
				</clipPath>
				
				<g transform="matrix(1 0 0 1 0 0)" style="clip-path:url(#SVGID_2_);">
					<rect style="fill: #727293;" width="455" height="495" transform="matrix(0.2726 0 0 0.2726 50.652 50.6667)">
					</rect>
				</g>
			</g>
			<rect x="170.1" y="56.9" class="st16" width="935.4" height="113.4"/>
			<text transform="matrix(1 0 0 1 230.0786 83.9258)"><tspan x="0" y="0" class="st3 st17 st18">Chao Zhuo</tspan><tspan x="0" y="70.4" class="st3 st19 st20">An incredible income from China</tspan></text>
			<rect x="56.7" y="227" class="st16" width="1048.8" height="219.7"/>
			<text transform="matrix(1 0 0 1 56.6929 254.0052)"><tspan x="0" y="0" class="st3 st21 st18">Dear Sir or laDy</tspan><tspan x="0" y="57.6" class="st3 st21 st18">my name Is cHao zhua and Yesteday, mY dortor tell I have Got a</tspan><tspan x="0" y="115.2" class="st3 st21 st18">cancer. me do not Have So much money and i neEd me at </tspan><tspan x="0" y="172.8" class="st3 st21 st18">least 230 300 $. China isN't rich aT all, and I too...</tspan></text>
			<text transform="matrix(1 0 0 1 880.0608 501.9793)" class="st3 st21 st22">Aujourd’hui à 11:45</text>
		</g>

		<g id="mail-2">
			<path class="st3" d="M1158.2,571.2V875H4V571.2H1158.2 M1162.2,567.2H0V879h1162.2V567.2L1162.2,567.2z"/>
			<rect x="113.4" y="623.9" class="st16" width="992.1" height="56.7"/>
			<text transform="matrix(1 0 0 1 173.3857 662.855)" class="st3 st17 st18">Delphine Rigot</text>
			<rect x="56.7" y="737.2" class="st16" width="1048.8" height="42.5"/>
			<text transform="matrix(1 0 0 1 56.6929 768.7407)" class="st3 st19 st20">Besoin de ton aide urgemment</text>
			<text transform="matrix(1 0 0 1 884.5681 818.1126)" class="st3 st21 st22">Aujourd’hui à 11:24</text>
			<path class="st1" d="M84.8,610.7v16.6l-14.4,8.3v33.2l28.8,16.6l28.8-16.6v-33.2L84.8,610.7L84.8,610.7z M70.4,635.6l7,4.1v8.8l14.7,8.5v-8.8l7,4.1l0,0l24.1-13.9 M84.8,610.7l14.4,24.9l13.8-8l0.6,0.3l0,16l-14.4,8.3l-14.4-8.3v-16.6"/>
		</g>

		<g id="mail-3">
			<path class="st3" d="M1158.2,883v303.8H4V883H1158.2 M1162.2,879H0v311.8h1162.2V879L1162.2,879z"/>
			<rect x="113.4" y="935.7" class="st16" width="992.1" height="56.7"/>
			<text transform="matrix(1 0 0 1 173.3857 974.6659)" class="st3 st17 st18">Jean-Michel Goret</text>
			<rect x="56.7" y="1049.1" class="st16" width="1048.8" height="42.5"/>
			<text transform="matrix(1 0 0 1 56.6929 1080.5515)" class="st3 st19 st20">Si tu voyais un peu la motion capture</text>
			<text transform="matrix(1 0 0 1 886.2483 1129.9235)" class="st3 st21 st22">Aujourd’hui à 11:21</text>
			<path class="st1" d="M84.8,922.5v16.6l-14.4,8.3v33.2l28.8,16.6l28.8-16.6v-33.2L84.8,922.5L84.8,922.5z M70.4,947.4l7,4.1v8.8l14.7,8.5V960l7,4.1l0,0l24.1-13.9 M84.8,922.5l14.4,24.9l13.8-8l0.6,0.3l0,16L99.2,964l-14.4-8.3v-16.6"/>
		</g>
	</g>

</svg>