<svg version="1.1" xmlns="http://www.w3.org/2000/svg" width="1678.2" height="619" viewBox="0 0 1678.2 619" enable-background="new 0 0 1678.2 619"><defs><linearGradient id="0" gradientUnits="userSpaceOnUse" x1="0" x2="1678.2"><stop stop-color="#cf534d"/><stop offset="1" stop-color="#8ccbcb"/></linearGradient></defs><path d="m78.7 198h-28l-50.7-132h32.2l32.5 91.3 32.5-91.3h32.2l-50.7 132m56.5-65.7c0-37 24.6-68.4 66.8-68.4s66.8 31.4 66.8 68.4c0 37-24.6 68.4-66.8 68.4s-66.8-31.5-66.8-68.4m33.5 0c0 24.6 12.1 41.4 33.3 41.4s33.3-16.9 33.3-41.4-12.2-41.5-33.3-41.5-33.3 16.9-33.3 41.5m207.2 65.7l-.5-7.9c-7.7 5.8-19 10.6-29.3 10.6-41.2 0-56-26.4-56-63.6v-71.1h32.7v71c0 24.6 7.7 36.2 26.1 36.2 10.8 0 18.7-4 24.8-11.1v-96.1h32.7v132h-30.5m54.2-7.1l2.9-28c8.2 6.3 25.9 13.2 40.7 13.2 15.8 0 20.1-7.9 20.1-14.5 0-11.1-11.4-14.8-24.3-18.7-18.5-5.5-38-11.6-38-37 0-18.5 11.1-42 48.3-42 17.2 0 34.3 5 41.4 9.8l-2.9 28c-6.6-6.6-21.9-14.3-36.2-14.3-11.4 0-21.9 4-21.9 14.5 0 12.7 13.5 14.8 30.1 19.5 17.7 5 36.2 13.2 36.2 40.4 0 16.1-6.6 38.8-51.7 38.8-20.7 0-37.1-4.7-44.7-9.7m204.3-51.8c3.7 24.6 21.9 34.6 39.3 34.6 12.4 0 29.8-5 40.7-10.8l1.6 27.7c-10 5.3-25.3 10-44.1 10-47.8 0-71.5-31.4-71.5-68.4 0-36.7 22.7-68.4 63.4-68.4 33.3 0 58.1 22.4 58.1 57.3 0 5.8-.8 11.6-2.1 18h-85.4m26.4-114.3l-38.8 18.8v-19.6l38.8-24 38.8 24v19.5l-38.8-18.7m-25.6 92.2h53.3c0-11.9-6.1-26.1-23.8-26.1-16.9-.1-26.4 11-29.5 26.1m175.5 83.6h-23.5c-24.8 0-35.4-17.4-35.4-34.6v-73.1h-18.7l2.9-26.9h15.8v-29l32.7-3.4v32.4h29v26.9h-29v59.7c0 20.1 1.6 21.1 20.1 21.1h9l-2.9 26.9m50.5-61.5c3.7 24.6 21.9 34.6 39.3 34.6 12.4 0 29.8-5 40.7-10.8l1.6 27.7c-10 5.3-25.3 10-44.1 10-47.8 0-71.5-31.4-71.5-68.4 0-36.7 22.7-68.4 63.4-68.4 33.3 0 58.1 22.4 58.1 57.3 0 5.8-.8 11.6-2.1 18h-85.4m.7-22.1h53.3c0-11.9-6.1-26.1-23.8-26.1-16.8-.1-26.3 11-29.5 26.1m102 73.9l2.9-28c8.2 6.3 25.9 13.2 40.7 13.2 15.8 0 20.1-7.9 20.1-14.5 0-11.1-11.4-14.8-24.3-18.7-18.5-5.5-38-11.6-38-37 0-18.5 11.1-42 48.3-42 17.2 0 34.3 5 41.4 9.8l-2.9 28c-6.6-6.6-21.9-14.3-36.2-14.3-11.4 0-21.9 4-21.9 14.5 0 12.7 13.5 14.8 30.1 19.5 17.7 5 36.2 13.2 36.2 40.4 0 16.1-6.6 38.8-51.7 38.8-20.7 0-37.1-4.7-44.7-9.7m171 0l2.9-28c8.2 6.3 25.9 13.2 40.7 13.2 15.8 0 20.1-7.9 20.1-14.5 0-11.1-11.4-14.8-24.3-18.7-18.5-5.5-38-11.6-38-37 0-18.5 11.1-42 48.3-42 17.2 0 34.3 5 41.4 9.8l-2.9 28c-6.6-6.6-21.9-14.3-36.2-14.3-11.4 0-21.9 4-21.9 14.5 0 12.7 13.5 14.8 30.1 19.5 17.7 5 36.2 13.2 36.2 40.4 0 16.1-6.6 38.8-51.7 38.8-20.7 0-37-4.7-44.7-9.7m203.3 7.1l-.5-7.9c-7.7 5.8-19 10.6-29.3 10.6-41.2 0-56-26.4-56-63.6v-71.1h32.7v71c0 24.6 7.7 36.2 26.1 36.2 10.8 0 18.7-4 24.8-11.1v-96.1h32.7v132h-30.5m130.1-103.2h-12.1c-10.8 0-20.3 5.8-24 13.2v90h-32.7v-132h30.6l.8 14c6.9-7.1 20.1-16.1 35.1-16.1h8.7l-6.4 30.9m-1318.6 519.2h-53l-96-250h61l61.5 173 61.5-173h61l-96 250m257-195.5h-23c-20.5 0-38.5 11-45.5 25v170.5h-62v-250h58l1.5 26.5c13-13.5 38-30.5 66.5-30.5h16.5l-12 58.5m43.5 195.5v-350h94.5c80.5 0 134 12.5 134 90 0 31.5-9 56-29.5 73 40.5 15.5 61 39.5 61 84 0 81-66.5 103-125 103h-135m64-295.5v86h62.5c18 0 42.5-7.5 42.5-41 0-36.5-19-45-48.5-45h-56.5m0 136.5v104.5h63c41 0 67-12.5 67-52 0-40.5-27.5-52.5-63.5-52.5h-66.5m224.5 34.5c0-70 46.5-129.5 126.5-129.5s126.5 59.5 126.5 129.5-46.5 129.5-126.5 129.5-126.5-59.5-126.5-129.5m63.5 0c0 46.5 23 78.5 63 78.5s63-32 63-78.5-23-78.5-63-78.5-63 32-63 78.5m441.5 129.5h-22.5c-28 0-46.5-11.5-56-29-16.5 18.5-46.5 29-76.5 29-40 0-72.5-27.5-72.5-75 0-70.5 93.5-88 140.5-89.5-1.5-28.5-13-41-45-41-22.5 0-42 6-68.5 19l-5.5-50.5c30-14.5 60-22 91-22 56 0 90.5 28 90.5 100.5v67.5c0 37.5 4 40 22 40h8l-5.5 51m-86.5-122.5c-35 1.5-76 15.5-76 45 0 20.5 10 30 33.5 30 11 0 29.5-5.5 42.5-18v-57m257-78h-23c-20.5 0-38.5 11-45.5 25v170.5h-62v-250h58l1.5 26.5c13-13.5 38-30.5 66.5-30.5h16.5l-12 58.5m205.5 195.5l-1-14c-17.5 12-34 19-61 19-80 0-122.5-59.5-122.5-129.5s42.5-129.5 122.5-129.5c25.5 0 42.5 6 58.5 16.5v-137.5h62v375h-58.5m-121-124.5c0 46.5 23 78.5 63 78.5s57.5-32 57.5-78.5-17.5-78.5-57.5-78.5-63 32-63 78.5" fill="url(#0)"/></svg>