<svg version="1.1" xmlns="http://www.w3.org/2000/svg" width="680.3" height="141.7" viewBox="0 0 680.3 141.7" enable-background="new 0 0 680.3 141.7"><path d="M672.3,8v125.7H8V8H672.3 M680.3,0H0v141.7h680.3V0L680.3,0z" fill="#fff"/><path d="m344.5 101.5l10.2 5.9v-6.4m.1-5.4v-16m-23.3 19.5v-2m-11.8-7v2.1m39.6-10.1l9.7-5.6m-20.1 11.5l-8.7 5.1-12-6.9m20.7-9l-8.7 5.1-12-6.9m40.7-9.8l-9.7 5.6m-35.8 12.2l-12-6.9m12-3.9l-12-6.9m37.4-23.1l-29.1 16.8v2m40.6-12.1l-28.8 16.6v2m8.7-30.3l28.8 16.6v33.2l-28.8 16.6-28.8-16.6v-33.1l28.8-16.7z" fill="none" stroke="#fff" stroke-linecap="round" stroke-width="3.5" stroke-miterlimit="10"/></svg>