<svg version="1.1" xmlns="http://www.w3.org/2000/svg" width="5442.5" height="226.8" viewBox="0 0 5442.5 226.8" enable-background="new 0 0 5442.5 226.8"><ellipse transform="matrix(.866-.5.5.866 9.29 58.4)" cx="113.7" cy="11.9" rx="10.4" ry="10.4" fill="none" stroke="#fff" stroke-width="2" stroke-miterlimit="10"/><path d="m118.2 12c0 2.6-2.1 4.6-4.6 4.6s-4.6-2.1-4.6-4.6 2.1-4.6 4.6-4.6 4.6 2 4.6 4.6m-32.1-1.1c-2.5.7-3.9 3.2-3.3 5.7.7 2.5 3.2 3.9 5.7 3.3s3.9-3.2 3.3-5.7c-.6-2.5-3.2-3.9-5.7-3.3m-25.5 10.6c-2.2 1.3-3 4.1-1.7 6.3s4.1 3 6.3 1.7c2.2-1.3 3-4.1 1.7-6.3s-4.1-3-6.3-1.7m-22 16.9c-1.8 1.8-1.8 4.8 0 6.6 1.8 1.8 4.7 1.8 6.6 0 1.8-1.8 1.8-4.8 0-6.6-1.8-1.8-4.8-1.8-6.6 0m-16.8 22c-1.3 2.2-.5 5.1 1.7 6.3 2.2 1.3 5.1.5 6.3-1.7 1.3-2.2.5-5.1-1.7-6.3s-5-.6-6.3 1.7m-10.6 25.5c-.7 2.5.8 5 3.3 5.7s5-.8 5.7-3.3-.8-5-3.3-5.7c-2.5-.6-5.1.9-5.7 3.3m-3.6 27.5c0 2.6 2.1 4.6 4.6 4.6s4.6-2.1 4.6-4.6c0-2.6-2.1-4.6-4.6-4.6s-4.6 2-4.6 4.6m3.6 27.4c.7 2.5 3.2 3.9 5.7 3.3 2.5-.7 3.9-3.2 3.3-5.7-.7-2.5-3.2-3.9-5.7-3.3-2.5.7-4 3.3-3.3 5.7m10.6 25.6c1.3 2.2 4.1 3 6.3 1.7 2.2-1.3 3-4.1 1.7-6.3s-4.1-3-6.3-1.7-3 4.1-1.7 6.3m16.8 22c1.8 1.8 4.7 1.8 6.6 0 1.8-1.8 1.8-4.8 0-6.6-1.8-1.8-4.7-1.8-6.6 0-1.8 1.8-1.8 4.8 0 6.6m75 31.1c2.6 0 4.6-2.1 4.6-4.6 0-2.6-2.1-4.6-4.6-4.6s-4.6 2.1-4.6 4.6c-.1 2.5 2 4.6 4.6 4.6m-53-14.3c2.2 1.3 5.1.5 6.3-1.7 1.3-2.2.5-5.1-1.7-6.3-2.2-1.3-5.1-.5-6.3 1.7-1.3 2.2-.5 5.1 1.7 6.3m25.5 10.6c2.5.7 5-.8 5.7-3.3.7-2.5-.8-5-3.3-5.7-2.5-.7-5 .8-5.7 3.3-.6 2.5.9 5.1 3.3 5.7m54.9 0c2.5-.7 3.9-3.2 3.3-5.7-.7-2.5-3.2-3.9-5.7-3.3-2.5.7-3.9 3.2-3.3 5.7s3.2 4 5.7 3.3m25.6-10.6c2.2-1.3 3-4.1 1.7-6.3-1.3-2.2-4.1-3-6.3-1.7-2.2 1.3-3 4.1-1.7 6.3 1.2 2.3 4.1 3 6.3 1.7m21.9-16.8c1.8-1.8 1.8-4.8 0-6.6s-4.7-1.8-6.6 0c-1.8 1.8-1.8 4.8 0 6.6 1.9 1.8 4.8 1.8 6.6 0m16.9-22c1.3-2.2.5-5.1-1.7-6.3-2.2-1.3-5.1-.5-6.3 1.7-1.3 2.2-.5 5.1 1.7 6.3 2.1 1.3 5 .5 6.3-1.7m10.6-25.6c.7-2.5-.8-5-3.3-5.7-2.5-.7-5 .8-5.7 3.3-.7 2.5.8 5 3.3 5.7 2.5.7 5-.8 5.7-3.3m0-54.9c-.7-2.5-3.2-3.9-5.7-3.3-2.5.7-3.9 3.2-3.3 5.7s3.2 3.9 5.7 3.3 3.9-3.2 3.3-5.7m3.6 27.5c0-2.6-2.1-4.6-4.6-4.6s-4.6 2.1-4.6 4.6 2.1 4.6 4.6 4.6 4.6-2 4.6-4.6m-14.2-53c-1.3-2.2-4.1-3-6.3-1.7-2.2 1.3-3 4.1-1.7 6.3 1.3 2.2 4.1 3 6.3 1.7 2.2-1.3 2.9-4.1 1.7-6.3m-16.9-22c-1.8-1.8-4.7-1.8-6.6 0-1.8 1.8-1.8 4.8 0 6.6 1.8 1.8 4.7 1.8 6.6 0s1.8-4.8 0-6.6m-21.9-16.9c-2.2-1.3-5.1-.5-6.3 1.7s-.5 5.1 1.7 6.3 5.1.5 6.3-1.7c1.2-2.1.5-5-1.7-6.3m-25.6-10.6c-2.5-.7-5 .8-5.7 3.3s.8 5 3.3 5.7 5-.8 5.7-3.3c.6-2.5-.8-5-3.3-5.7" fill="#fff"/><ellipse transform="matrix(.966-.259.259.966 8.49 95.4)" cx="366.5" cy="15.4" rx="10.4" ry="10.4" fill="none" stroke="#fff" stroke-width="2" stroke-miterlimit="10"/><path d="m344.8 12c0 2.6-2.1 4.6-4.6 4.6s-4.6-2.1-4.6-4.6 2.1-4.6 4.6-4.6 4.6 2 4.6 4.6m-32.1-1.1c-2.5.7-3.9 3.2-3.3 5.7.7 2.5 3.2 3.9 5.7 3.3s3.9-3.2 3.3-5.7-3.2-3.9-5.7-3.3m-25.5 10.6c-2.2 1.3-3 4.1-1.7 6.3 1.3 2.2 4.1 3 6.3 1.7s3-4.1 1.7-6.3c-1.3-2.2-4.1-3-6.3-1.7m-22 16.9c-1.8 1.8-1.8 4.8 0 6.6 1.8 1.8 4.7 1.8 6.6 0 1.8-1.8 1.8-4.8 0-6.6-1.8-1.8-4.8-1.8-6.6 0m-16.8 22c-1.3 2.2-.5 5.1 1.7 6.3 2.2 1.3 5.1.5 6.3-1.7 1.3-2.2.5-5.1-1.7-6.3s-5.1-.6-6.3 1.7m-10.6 25.5c-.7 2.5.8 5 3.3 5.7s5-.8 5.7-3.3-.8-5-3.3-5.7c-2.5-.6-5.1.9-5.7 3.3m-3.6 27.5c0 2.6 2.1 4.6 4.6 4.6 2.6 0 4.6-2.1 4.6-4.6 0-2.6-2.1-4.6-4.6-4.6-2.6-.1-4.6 2-4.6 4.6m3.6 27.4c.7 2.5 3.2 3.9 5.7 3.3 2.5-.7 3.9-3.2 3.3-5.7-.7-2.5-3.2-3.9-5.7-3.3-2.5.7-4 3.3-3.3 5.7m10.6 25.6c1.3 2.2 4.1 3 6.3 1.7 2.2-1.3 3-4.1 1.7-6.3-1.3-2.2-4.1-3-6.3-1.7s-3 4.1-1.7 6.3m16.8 22c1.8 1.8 4.7 1.8 6.6 0 1.8-1.8 1.8-4.8 0-6.6-1.8-1.8-4.7-1.8-6.6 0-1.8 1.8-1.8 4.8 0 6.6m75 31.1c2.6 0 4.6-2.1 4.6-4.6 0-2.6-2.1-4.6-4.6-4.6s-4.6 2.1-4.6 4.6c-.1 2.5 2 4.6 4.6 4.6m-53-14.3c2.2 1.3 5.1.5 6.3-1.7 1.3-2.2.5-5.1-1.7-6.3-2.2-1.3-5.1-.5-6.3 1.7-1.3 2.2-.6 5.1 1.7 6.3m25.5 10.6c2.5.7 5-.8 5.7-3.3s-.8-5-3.3-5.7c-2.5-.7-5 .8-5.7 3.3-.6 2.5.8 5.1 3.3 5.7m54.9 0c2.5-.7 3.9-3.2 3.3-5.7-.7-2.5-3.2-3.9-5.7-3.3-2.5.7-3.9 3.2-3.3 5.7.7 2.5 3.2 4 5.7 3.3m25.6-10.6c2.2-1.3 3-4.1 1.7-6.3-1.3-2.2-4.1-3-6.3-1.7-2.2 1.3-3 4.1-1.7 6.3 1.2 2.3 4 3 6.3 1.7m21.9-16.8c1.8-1.8 1.8-4.8 0-6.6-1.8-1.8-4.7-1.8-6.6 0-1.8 1.8-1.8 4.8 0 6.6 1.9 1.8 4.8 1.8 6.6 0m16.9-22c1.3-2.2.5-5.1-1.7-6.3-2.2-1.3-5.1-.5-6.3 1.7s-.5 5.1 1.7 6.3c2.1 1.3 5 .5 6.3-1.7m10.5-25.6c.7-2.5-.8-5-3.3-5.7-2.5-.7-5 .8-5.7 3.3-.7 2.5.8 5 3.3 5.7 2.5.7 5.1-.8 5.7-3.3m0-54.9c-.7-2.5-3.2-3.9-5.7-3.3-2.5.7-3.9 3.2-3.3 5.7.7 2.5 3.2 3.9 5.7 3.3s4-3.2 3.3-5.7m3.7 27.5c0-2.6-2.1-4.6-4.6-4.6s-4.6 2.1-4.6 4.6 2.1 4.6 4.6 4.6 4.6-2 4.6-4.6m-14.2-53c-1.3-2.2-4.1-3-6.3-1.7s-3 4.1-1.7 6.3c1.3 2.2 4.1 3 6.3 1.7 2.2-1.3 2.9-4.1 1.7-6.3m-16.9-22c-1.8-1.8-4.7-1.8-6.6 0-1.8 1.8-1.8 4.8 0 6.6 1.8 1.8 4.7 1.8 6.6 0 1.8-1.9 1.8-4.8 0-6.6m-21.9-16.9c-2.2-1.3-5.1-.5-6.3 1.7-1.3 2.2-.5 5.1 1.7 6.3 2.2 1.3 5.1.5 6.3-1.7s.5-5-1.7-6.3m-25.6-10.6c-2.5-.7-5 .8-5.7 3.3-.7 2.5.8 5 3.3 5.7s5-.8 5.7-3.3c.6-2.5-.8-5-3.3-5.7" fill="#fff"/><ellipse cx="617.7" cy="25.7" rx="10.4" ry="10.4" fill="none" stroke="#fff" stroke-width="2" stroke-miterlimit="10"/><path d="m571.6 12c0 2.6-2.1 4.6-4.6 4.6s-4.6-2.1-4.6-4.6 2.1-4.6 4.6-4.6 4.6 2 4.6 4.6m-32.1-1.1c-2.5.7-3.9 3.2-3.3 5.7.7 2.5 3.2 3.9 5.7 3.3s3.9-3.2 3.3-5.7-3.2-3.9-5.7-3.3m-25.6 10.6c-2.2 1.3-3 4.1-1.7 6.3 1.3 2.2 4.1 3 6.3 1.7 2.2-1.3 3-4.1 1.7-6.3-1.2-2.2-4.1-3-6.3-1.7m-21.9 16.9c-1.8 1.8-1.8 4.8 0 6.6 1.8 1.8 4.7 1.8 6.6 0 1.8-1.8 1.8-4.8 0-6.6-1.9-1.8-4.8-1.8-6.6 0m-16.9 22c-1.3 2.2-.5 5.1 1.7 6.3 2.2 1.3 5.1.5 6.3-1.7 1.3-2.2.5-5.1-1.7-6.3-2.2-1.3-5-.6-6.3 1.7m-10.6 25.5c-.7 2.5.8 5 3.3 5.7s5-.8 5.7-3.3-.8-5-3.3-5.7c-2.5-.6-5 .9-5.7 3.3m-3.6 27.5c0 2.6 2.1 4.6 4.6 4.6s4.6-2.1 4.6-4.6c0-2.6-2.1-4.6-4.6-4.6s-4.6 2-4.6 4.6m3.6 27.4c.7 2.5 3.2 3.9 5.7 3.3 2.5-.7 3.9-3.2 3.3-5.7-.7-2.5-3.2-3.9-5.7-3.3-2.5.7-3.9 3.3-3.3 5.7m10.6 25.6c1.3 2.2 4.1 3 6.3 1.7 2.2-1.3 3-4.1 1.7-6.3-1.3-2.2-4.1-3-6.3-1.7-2.2 1.3-3 4.1-1.7 6.3m16.9 22c1.8 1.8 4.7 1.8 6.6 0 1.8-1.8 1.8-4.8 0-6.6-1.8-1.8-4.7-1.8-6.6 0-1.8 1.8-1.8 4.8 0 6.6m74.9 31.1c2.6 0 4.6-2.1 4.6-4.6 0-2.6-2.1-4.6-4.6-4.6s-4.6 2.1-4.6 4.6c0 2.5 2.1 4.6 4.6 4.6m-53-14.3c2.2 1.3 5.1.5 6.3-1.7 1.3-2.2.5-5.1-1.7-6.3-2.2-1.3-5.1-.5-6.3 1.7-1.3 2.2-.5 5.1 1.7 6.3m25.6 10.6c2.5.7 5-.8 5.7-3.3s-.8-5-3.3-5.7c-2.5-.7-5 .8-5.7 3.3-.6 2.5.8 5.1 3.3 5.7m54.9 0c2.5-.7 3.9-3.2 3.3-5.7s-3.2-3.9-5.7-3.3c-2.5.7-3.9 3.2-3.3 5.7s3.2 4 5.7 3.3m25.5-10.6c2.2-1.3 3-4.1 1.7-6.3-1.3-2.2-4.1-3-6.3-1.7-2.2 1.3-3 4.1-1.7 6.3 1.3 2.3 4.1 3 6.3 1.7m22-16.8c1.8-1.8 1.8-4.8 0-6.6s-4.7-1.8-6.6 0c-1.8 1.8-1.8 4.8 0 6.6 1.8 1.8 4.8 1.8 6.6 0m16.8-22c1.3-2.2.5-5.1-1.7-6.3-2.2-1.3-5.1-.5-6.3 1.7s-.5 5.1 1.7 6.3c2.2 1.3 5 .5 6.3-1.7m10.6-25.6c.7-2.5-.8-5-3.3-5.7-2.5-.7-5 .8-5.7 3.3-.7 2.5.8 5 3.3 5.7 2.5.7 5.1-.8 5.7-3.3m0-54.9c-.7-2.5-3.2-3.9-5.7-3.3-2.5.7-3.9 3.2-3.3 5.7s3.2 3.9 5.7 3.3 4-3.2 3.3-5.7m3.6 27.5c0-2.6-2.1-4.6-4.6-4.6-2.6 0-4.6 2.1-4.6 4.6s2.1 4.6 4.6 4.6c2.6 0 4.6-2 4.6-4.6m-14.2-53c-1.3-2.2-4.1-3-6.3-1.7s-3 4.1-1.7 6.3c1.3 2.2 4.1 3 6.3 1.7 2.2-1.3 3-4.1 1.7-6.3m-16.8-22c-1.8-1.8-4.7-1.8-6.6 0-1.8 1.8-1.8 4.8 0 6.6 1.8 1.8 4.7 1.8 6.6 0s1.8-4.8 0-6.6m-22-16.9c-2.2-1.3-5.1-.5-6.3 1.7s-.5 5.1 1.7 6.3c2.2 1.3 5.1.5 6.3-1.7s.5-5-1.7-6.3m-25.5-10.6c-2.5-.7-5 .8-5.7 3.3s.8 5 3.3 5.7 5-.8 5.7-3.3-.9-5-3.3-5.7" fill="#fff"/><ellipse transform="matrix(.966.259-.259.966 40.3-222.6)" cx="865.5" cy="41.9" rx="10.4" ry="10.4" fill="none" stroke="#fff" stroke-width="2" stroke-miterlimit="10"/><path d="m868.7 45.1c-1.8 1.8-4.8 1.8-6.6 0-1.8-1.8-1.8-4.8 0-6.6s4.8-1.8 6.6 0c1.8 1.9 1.8 4.8 0 6.6m-22-23.4c-2.2-1.3-5.1-.5-6.3 1.7s-.5 5.1 1.7 6.3c2.2 1.3 5.1.5 6.3-1.7s.6-5-1.7-6.3m-25.5-10.6c-2.5-.7-5 .8-5.7 3.3s.8 5 3.3 5.7 5-.8 5.7-3.3-.8-5-3.3-5.7m-27.5-3.6c-2.6 0-4.6 2.1-4.6 4.6s2.1 4.6 4.6 4.6c2.6 0 4.6-2.1 4.6-4.6s-2-4.6-4.6-4.6m-27.4 3.7c-2.5.7-3.9 3.2-3.3 5.7.7 2.5 3.2 3.9 5.7 3.3 2.5-.7 3.9-3.2 3.3-5.7-.7-2.5-3.2-4-5.7-3.3m-25.6 10.6c-2.2 1.3-3 4.1-1.7 6.3s4.1 3 6.3 1.7c2.2-1.3 3-4.1 1.7-6.3-1.2-2.3-4.1-3-6.3-1.7m-22 16.8c-1.8 1.8-1.8 4.8 0 6.6s4.8 1.8 6.6 0c1.8-1.8 1.8-4.8 0-6.6-1.8-1.8-4.7-1.8-6.6 0m-16.8 22c-1.3 2.2-.5 5.1 1.7 6.3 2.2 1.3 5.1.5 6.3-1.7 1.3-2.2.5-5.1-1.7-6.3s-5-.5-6.3 1.7m-10.6 25.6c-.7 2.5.8 5 3.3 5.7 2.5.7 5-.8 5.7-3.3.7-2.5-.8-5-3.3-5.7-2.5-.7-5 .8-5.7 3.3m-3.6 27.4c0 2.6 2.1 4.6 4.6 4.6 2.6 0 4.6-2.1 4.6-4.6 0-2.6-2.1-4.6-4.6-4.6-2.6 0-4.6 2-4.6 4.6m31 75c1.8 1.8 4.8 1.8 6.6 0s1.8-4.8 0-6.6c-1.8-1.8-4.8-1.8-6.6 0-1.8 1.8-1.8 4.8 0 6.6m-27.4-47.6c.7 2.5 3.2 3.9 5.7 3.3 2.5-.7 3.9-3.2 3.3-5.7-.7-2.5-3.2-3.9-5.7-3.3-2.5.7-4 3.3-3.3 5.7m10.6 25.6c1.3 2.2 4.1 3 6.3 1.7s3-4.1 1.7-6.3c-1.3-2.2-4.1-3-6.3-1.7-2.3 1.3-3 4.1-1.7 6.3m38.8 38.8c2.2 1.3 5.1.5 6.3-1.7s.5-5.1-1.7-6.3c-2.2-1.3-5.1-.5-6.3 1.7s-.6 5 1.7 6.3m25.5 10.6c2.5.7 5-.8 5.7-3.3s-.8-5-3.3-5.7-5 .8-5.7 3.3c-.6 2.5.9 5 3.3 5.7m27.5 3.6c2.6 0 4.6-2.1 4.6-4.6s-2.1-4.6-4.6-4.6c-2.6 0-4.6 2.1-4.6 4.6s2 4.6 4.6 4.6m27.4-3.6c2.5-.7 3.9-3.2 3.3-5.7-.7-2.5-3.2-3.9-5.7-3.3-2.5.7-3.9 3.2-3.3 5.7.7 2.5 3.2 3.9 5.7 3.3m25.6-10.6c2.2-1.3 3-4.1 1.7-6.3s-4.1-3-6.3-1.7c-2.2 1.3-3 4.1-1.7 6.3 1.2 2.2 4.1 3 6.3 1.7m38.8-38.8c1.3-2.2.5-5.1-1.7-6.3-2.2-1.3-5.1-.5-6.3 1.7s-.5 5.1 1.7 6.3c2.2 1.2 5 .5 6.3-1.7m-16.8 21.9c1.8-1.8 1.8-4.8 0-6.6-1.8-1.8-4.8-1.8-6.6 0-1.8 1.8-1.8 4.8 0 6.6 1.8 1.8 4.7 1.8 6.6 0m27.4-47.5c.7-2.5-.8-5-3.3-5.7-2.5-.7-5 .8-5.7 3.3-.7 2.5.8 5 3.3 5.7 2.5.6 5-.8 5.7-3.3m3.6-27.5c0-2.6-2.1-4.6-4.6-4.6-2.6 0-4.6 2.1-4.6 4.6 0 2.6 2.1 4.6 4.6 4.6 2.6.1 4.6-2 4.6-4.6m-3.6-27.4c-.7-2.5-3.2-3.9-5.7-3.3-2.5.7-3.9 3.2-3.3 5.7.7 2.5 3.2 3.9 5.7 3.3s4-3.2 3.3-5.7m-10.6-25.6c-1.3-2.2-4.1-3-6.3-1.7-2.2 1.3-3 4.1-1.7 6.3 1.3 2.2 4.1 3 6.3 1.7 2.3-1.2 3-4.1 1.7-6.3" fill="#fff"/><ellipse transform="matrix(.866.5-.5.866 180-545.8)" cx="1108.4" cy="62.9" rx="10.4" ry="10.4" fill="none" stroke="#fff" stroke-width="2" stroke-miterlimit="10"/><path d="m1110.6 66.9c-2.2 1.3-5.1.5-6.3-1.7-1.3-2.2-.5-5.1 1.7-6.3 2.2-1.3 5.1-.5 6.3 1.7 1.3 2.2.5 5-1.7 6.3m-15.1-28.3c-1.8-1.8-4.8-1.8-6.6 0-1.8 1.8-1.8 4.8 0 6.6 1.8 1.8 4.8 1.8 6.6 0 1.8-1.8 1.8-4.8 0-6.6m-22-16.8c-2.2-1.3-5.1-.5-6.3 1.7-1.3 2.2-.5 5.1 1.7 6.3s5.1.5 6.3-1.7c1.3-2.2.5-5-1.7-6.3m-25.6-10.6c-2.5-.7-5 .8-5.7 3.3-.7 2.5.8 5 3.3 5.7s5-.8 5.7-3.3-.8-5-3.3-5.7m-27.4-3.6c-2.6 0-4.6 2.1-4.6 4.6 0 2.6 2.1 4.6 4.6 4.6 2.6 0 4.6-2.1 4.6-4.6 0-2.5-2-4.6-4.6-4.6m-27.4 3.6c-2.5.7-3.9 3.2-3.3 5.7s3.2 3.9 5.7 3.3 3.9-3.2 3.3-5.7-3.3-4-5.7-3.3m-25.6 10.6c-2.2 1.3-3 4.1-1.7 6.3s4.1 3 6.3 1.7 3-4.1 1.7-6.3-4.1-3-6.3-1.7m-22 16.9c-1.8 1.8-1.8 4.8 0 6.6 1.8 1.8 4.8 1.8 6.6 0 1.8-1.8 1.8-4.8 0-6.6-1.8-1.8-4.8-1.8-6.6 0m-16.9 21.9c-1.3 2.2-.5 5.1 1.7 6.3 2.2 1.3 5.1.5 6.3-1.7 1.3-2.2.5-5.1-1.7-6.3-2.1-1.3-5-.5-6.3 1.7m-10.6 25.6c-.7 2.5.8 5 3.3 5.7 2.5.7 5-.8 5.7-3.3s-.8-5-3.3-5.7-5 .8-5.7 3.3m10.6 80.4c1.3 2.2 4.1 3 6.3 1.7s3-4.1 1.7-6.3c-1.3-2.2-4.1-3-6.3-1.7s-3 4.1-1.7 6.3m-14.2-53c0 2.6 2.1 4.6 4.6 4.6s4.6-2.1 4.6-4.6c0-2.6-2.1-4.6-4.6-4.6s-4.6 2.1-4.6 4.6m3.6 27.5c.7 2.5 3.2 3.9 5.7 3.3s3.9-3.2 3.3-5.7c-.7-2.5-3.2-3.9-5.7-3.3s-3.9 3.2-3.3 5.7m27.5 47.5c1.8 1.8 4.8 1.8 6.6 0 1.8-1.8 1.8-4.8 0-6.6-1.8-1.8-4.8-1.8-6.6 0-1.8 1.8-1.8 4.8 0 6.6m21.9 16.8c2.2 1.3 5.1.5 6.3-1.7s.5-5.1-1.7-6.3c-2.2-1.3-5.1-.5-6.3 1.7-1.3 2.2-.5 5.1 1.7 6.3m25.6 10.6c2.5.7 5-.8 5.7-3.3s-.8-5-3.3-5.7-5 .8-5.7 3.3c-.6 2.5.8 5.1 3.3 5.7m27.4 3.6c2.6 0 4.6-2.1 4.6-4.6 0-2.6-2.1-4.6-4.6-4.6-2.6 0-4.6 2.1-4.6 4.6 0 2.5 2.1 4.6 4.6 4.6m27.5-3.6c2.5-.7 3.9-3.2 3.3-5.7-.7-2.5-3.2-3.9-5.7-3.3-2.5.7-3.9 3.2-3.3 5.7.7 2.5 3.2 4 5.7 3.3m47.5-27.4c1.8-1.8 1.8-4.8 0-6.6-1.8-1.8-4.8-1.8-6.6 0-1.8 1.8-1.8 4.8 0 6.6 1.9 1.8 4.8 1.8 6.6 0m-21.9 16.8c2.2-1.3 3-4.1 1.7-6.3-1.3-2.2-4.1-3-6.3-1.7-2.2 1.3-3 4.1-1.7 6.3 1.2 2.2 4.1 3 6.3 1.7m38.8-38.8c1.3-2.2.5-5.1-1.7-6.3-2.2-1.3-5.1-.5-6.3 1.7-1.3 2.2-.5 5.1 1.7 6.3 2.2 1.3 5 .5 6.3-1.7m10.6-25.6c.7-2.5-.8-5-3.3-5.7s-5 .8-5.7 3.3c-.7 2.5.8 5 3.3 5.7 2.5.7 5-.8 5.7-3.3m3.6-27.4c0-2.6-2.1-4.6-4.6-4.6-2.6 0-4.6 2.1-4.6 4.6 0 2.6 2.1 4.6 4.6 4.6s4.6-2.1 4.6-4.6m-3.6-27.5c-.7-2.5-3.2-3.9-5.7-3.3s-3.9 3.2-3.3 5.7c.7 2.5 3.2 3.9 5.7 3.3s4-3.2 3.3-5.7" fill="#fff"/><ellipse transform="matrix(.707.707-.707.707 455.9-925.7)" cx="1345.3" cy="87.5" rx="10.4" ry="10.4" fill="none" stroke="#fff" stroke-width="2" stroke-miterlimit="10"/><path d="m1346.4 91.9c-2.5.7-5-.8-5.7-3.3-.7-2.5.8-5 3.3-5.7 2.5-.7 5 .8 5.7 3.3.7 2.5-.8 5-3.3 5.7m-7.3-31.3c-1.3-2.2-4.1-3-6.3-1.7-2.2 1.3-3 4.1-1.7 6.3 1.3 2.2 4.1 3 6.3 1.7 2.2-1.2 3-4.1 1.7-6.3m-16.8-21.9c-1.8-1.8-4.8-1.8-6.6 0-1.8 1.8-1.8 4.7 0 6.6s4.8 1.8 6.6 0c1.8-1.9 1.8-4.8 0-6.6m-22-16.9c-2.2-1.3-5.1-.5-6.3 1.7-1.3 2.2-.5 5.1 1.7 6.3 2.2 1.3 5.1.5 6.3-1.7 1.3-2.2.5-5-1.7-6.3m-25.6-10.6c-2.5-.7-5 .8-5.7 3.3-.7 2.5.8 5 3.3 5.7 2.5.7 5-.8 5.7-3.3s-.8-5-3.3-5.7m-27.4-3.6c-2.6 0-4.6 2.1-4.6 4.6 0 2.6 2.1 4.6 4.6 4.6 2.6 0 4.6-2.1 4.6-4.6 0-2.5-2.1-4.6-4.6-4.6m-27.5 3.6c-2.5.7-3.9 3.2-3.3 5.7.7 2.5 3.2 3.9 5.7 3.3s3.9-3.2 3.3-5.7c-.7-2.5-3.2-3.9-5.7-3.3m-25.6 10.6c-2.2 1.3-3 4.1-1.7 6.3s4.1 3 6.3 1.7 3-4.1 1.7-6.3-4-2.9-6.3-1.7m-21.9 16.9c-1.8 1.8-1.8 4.7 0 6.6s4.8 1.8 6.6 0c1.8-1.8 1.8-4.7 0-6.6-1.9-1.8-4.8-1.8-6.6 0m-16.9 21.9c-1.3 2.2-.5 5.1 1.7 6.3 2.2 1.3 5.1.5 6.3-1.7 1.3-2.2.5-5.1-1.7-6.3-2.2-1.2-5-.5-6.3 1.7m-10.6 80.5c.7 2.5 3.2 3.9 5.7 3.3 2.5-.7 3.9-3.2 3.3-5.7-.7-2.5-3.2-3.9-5.7-3.3-2.5.7-4 3.2-3.3 5.7m0-54.9c-.7 2.5.8 5 3.3 5.7s5-.8 5.7-3.3c.7-2.5-.8-5-3.3-5.7-2.5-.6-5 .8-5.7 3.3m-3.6 27.4c0 2.6 2.1 4.6 4.6 4.6 2.6 0 4.6-2.1 4.6-4.6s-2.1-4.6-4.6-4.6c-2.5 0-4.6 2.1-4.6 4.6m14.2 53c1.3 2.2 4.1 3 6.3 1.7 2.2-1.3 3-4.1 1.7-6.3-1.3-2.2-4.1-3-6.3-1.7s-3 4.1-1.7 6.3m16.8 22c1.8 1.8 4.8 1.8 6.6 0 1.8-1.8 1.8-4.7 0-6.6-1.8-1.8-4.8-1.8-6.6 0-1.8 1.9-1.8 4.8 0 6.6m22 16.8c2.2 1.3 5.1.5 6.3-1.7s.5-5.1-1.7-6.3c-2.2-1.3-5.1-.5-6.3 1.7-1.3 2.2-.5 5.1 1.7 6.3m25.6 10.6c2.5.7 5-.8 5.7-3.3s-.8-5-3.3-5.7c-2.5-.7-5 .8-5.7 3.3-.7 2.5.8 5.1 3.3 5.7m27.4 3.6c2.6 0 4.6-2.1 4.6-4.6 0-2.6-2.1-4.6-4.6-4.6-2.6 0-4.6 2.1-4.6 4.6 0 2.6 2.1 4.6 4.6 4.6m53.1-14.2c2.2-1.3 3-4.1 1.7-6.3s-4.1-3-6.3-1.7-3 4.1-1.7 6.3c1.2 2.2 4.1 3 6.3 1.7m-25.6 10.6c2.5-.7 3.9-3.2 3.3-5.7-.7-2.5-3.2-3.9-5.7-3.3s-3.9 3.2-3.3 5.7 3.2 4 5.7 3.3m47.5-27.4c1.8-1.8 1.8-4.7 0-6.6-1.8-1.8-4.8-1.8-6.6 0-1.8 1.8-1.8 4.7 0 6.6s4.8 1.8 6.6 0m16.9-22c1.3-2.2.5-5.1-1.7-6.3-2.2-1.3-5.1-.5-6.3 1.7-1.3 2.2-.5 5.1 1.7 6.3 2.2 1.3 5 .5 6.3-1.7m10.6-25.5c.7-2.5-.8-5-3.3-5.7-2.5-.7-5 .8-5.7 3.3-.7 2.5.8 5 3.3 5.7 2.5.6 5-.9 5.7-3.3m3.6-27.5c0-2.6-2.1-4.6-4.6-4.6-2.6 0-4.6 2.1-4.6 4.6s2.1 4.6 4.6 4.6c2.5.1 4.6-2 4.6-4.6" fill="#fff"/><ellipse transform="matrix(.5.866-.866.5 886.3-1307.6)" cx="1575.5" cy="113.7" rx="10.4" ry="10.4" fill="none" stroke="#fff" stroke-width="2" stroke-miterlimit="10"/><path d="m1575.5 118.3c-2.6 0-4.6-2.1-4.6-4.6s2.1-4.6 4.6-4.6c2.6 0 4.6 2.1 4.6 4.6s-2.1 4.6-4.6 4.6m1-32.1c-.7-2.5-3.2-3.9-5.7-3.3-2.5.7-3.9 3.2-3.3 5.7s3.2 3.9 5.7 3.3c2.5-.7 3.9-3.2 3.3-5.7m-10.6-25.6c-1.3-2.2-4.1-3-6.3-1.7-2.2 1.3-3 4.1-1.7 6.3 1.3 2.2 4.1 3 6.3 1.7 2.2-1.2 3-4 1.7-6.3m-16.9-21.9c-1.8-1.8-4.8-1.8-6.6 0-1.8 1.8-1.8 4.7 0 6.6 1.8 1.8 4.8 1.8 6.6 0 1.8-1.9 1.8-4.8 0-6.6m-21.9-16.9c-2.2-1.3-5.1-.5-6.3 1.7s-.5 5.1 1.7 6.3c2.2 1.3 5.1.5 6.3-1.7 1.2-2.1.5-5-1.7-6.3m-25.6-10.5c-2.5-.7-5 .8-5.7 3.3-.7 2.5.8 5 3.3 5.7 2.5.7 5-.8 5.7-3.3s-.8-5.1-3.3-5.7m-27.5-3.7c-2.6 0-4.6 2.1-4.6 4.6s2.1 4.6 4.6 4.6c2.6 0 4.6-2.1 4.6-4.6s-2-4.6-4.6-4.6m-27.4 3.7c-2.5.7-3.9 3.2-3.3 5.7.7 2.5 3.2 3.9 5.7 3.3s3.9-3.2 3.3-5.7-3.2-4-5.7-3.3m-25.6 10.5c-2.2 1.3-3 4.1-1.7 6.3s4.1 3 6.3 1.7c2.2-1.3 3-4.1 1.7-6.3s-4.1-2.9-6.3-1.7m-22 16.9c-1.8 1.8-1.8 4.7 0 6.6 1.8 1.8 4.8 1.8 6.6 0 1.8-1.8 1.8-4.7 0-6.6-1.8-1.8-4.8-1.8-6.6 0m-31 74.9c0 2.6 2.1 4.6 4.6 4.6s4.6-2.1 4.6-4.6-2.1-4.6-4.6-4.6-4.6 2.1-4.6 4.6m14.2-53c-1.3 2.2-.5 5.1 1.7 6.3 2.2 1.3 5.1.5 6.3-1.7 1.3-2.2.5-5.1-1.7-6.3-2.2-1.2-5-.5-6.3 1.7m-10.6 25.6c-.7 2.5.8 5 3.3 5.7 2.5.7 5-.8 5.7-3.3.7-2.5-.8-5-3.3-5.7-2.5-.6-5.1.8-5.7 3.3m0 54.9c.7 2.5 3.2 3.9 5.7 3.3 2.5-.7 3.9-3.2 3.3-5.7-.7-2.5-3.2-3.9-5.7-3.3s-4 3.2-3.3 5.7m10.6 25.5c1.3 2.2 4.1 3 6.3 1.7 2.2-1.3 3-4.1 1.7-6.3-1.3-2.2-4.1-3-6.3-1.7-2.3 1.3-3 4.1-1.7 6.3m16.8 22c1.8 1.8 4.8 1.8 6.6 0s1.8-4.7 0-6.6c-1.8-1.8-4.8-1.8-6.6 0-1.8 1.8-1.8 4.8 0 6.6m22 16.8c2.2 1.3 5.1.5 6.3-1.7 1.3-2.2.5-5.1-1.7-6.3-2.2-1.3-5.1-.5-6.3 1.7-1.3 2.2-.5 5.1 1.7 6.3m25.6 10.6c2.5.7 5-.8 5.7-3.3s-.8-5-3.3-5.7-5 .8-5.7 3.3c-.7 2.5.8 5.1 3.3 5.7m54.9 0c2.5-.7 3.9-3.2 3.3-5.7s-3.2-3.9-5.7-3.3c-2.5.7-3.9 3.2-3.3 5.7.7 2.5 3.2 4 5.7 3.3m-27.5 3.6c2.6 0 4.6-2.1 4.6-4.6s-2.1-4.6-4.6-4.6c-2.6 0-4.6 2.1-4.6 4.6s2.1 4.6 4.6 4.6m53.1-14.2c2.2-1.3 3-4.1 1.7-6.3-1.3-2.2-4.1-3-6.3-1.7-2.2 1.3-3 4.1-1.7 6.3 1.2 2.3 4 3 6.3 1.7m21.9-16.8c1.8-1.8 1.8-4.7 0-6.6-1.8-1.8-4.8-1.8-6.6 0-1.8 1.8-1.8 4.7 0 6.6s4.8 1.8 6.6 0m16.9-22c1.3-2.2.5-5.1-1.7-6.3-2.2-1.3-5.1-.5-6.3 1.7s-.5 5.1 1.7 6.3c2.2 1.3 5 .6 6.3-1.7m10.6-25.5c.7-2.5-.8-5-3.3-5.7-2.5-.7-5 .8-5.7 3.3s.8 5 3.3 5.7c2.5.6 5-.8 5.7-3.3" fill="#fff"/><ellipse transform="matrix(.259.966-.966.259 1468.4-1633.7)" cx="1798.8" cy="140" rx="10.4" ry="10.4" fill="none" stroke="#fff" stroke-width="2" stroke-miterlimit="10"/><path d="m1797.5 144.4c-2.5-.7-3.9-3.2-3.3-5.7.7-2.5 3.2-3.9 5.7-3.3 2.5.7 3.9 3.2 3.3 5.7-.7 2.5-3.2 3.9-5.7 3.3m9.3-30.8c0-2.6-2.1-4.6-4.6-4.6-2.6 0-4.6 2.1-4.6 4.6 0 2.6 2.1 4.6 4.6 4.6 2.5.1 4.6-2 4.6-4.6m-3.6-27.4c-.7-2.5-3.2-3.9-5.7-3.3-2.5.7-3.9 3.2-3.3 5.7.7 2.5 3.2 3.9 5.7 3.3 2.5-.7 3.9-3.2 3.3-5.7m-10.6-25.6c-1.3-2.2-4.1-3-6.3-1.7s-3 4.1-1.7 6.3c1.3 2.2 4.1 3 6.3 1.7s3-4 1.7-6.3m-16.9-21.9c-1.8-1.8-4.8-1.8-6.6 0s-1.8 4.7 0 6.6c1.8 1.8 4.8 1.8 6.6 0s1.8-4.8 0-6.6m-21.9-16.9c-2.2-1.3-5.1-.5-6.3 1.7s-.5 5.1 1.7 6.3c2.2 1.3 5.1.5 6.3-1.7 1.2-2.1.5-5-1.7-6.3m-25.6-10.6c-2.5-.7-5 .8-5.7 3.3-.7 2.5.8 5 3.3 5.7 2.5.7 5-.8 5.7-3.3s-.9-5-3.3-5.7m-27.5-3.6c-2.6 0-4.6 2.1-4.6 4.6s2.1 4.6 4.6 4.6c2.6 0 4.6-2.1 4.6-4.6.1-2.5-2-4.6-4.6-4.6m-27.4 3.6c-2.5.7-3.9 3.2-3.3 5.7.7 2.5 3.2 3.9 5.7 3.3s3.9-3.2 3.3-5.7c-.7-2.5-3.3-3.9-5.7-3.3m-25.6 10.6c-2.2 1.3-3 4.1-1.7 6.3 1.3 2.2 4.1 3 6.3 1.7 2.2-1.3 3-4.1 1.7-6.3-1.3-2.2-4.1-3-6.3-1.7m-49.4 64.4c-.7 2.5.8 5 3.3 5.7 2.5.7 5-.8 5.7-3.3.7-2.5-.8-5-3.3-5.7-2.5-.7-5.1.8-5.7 3.3m27.4-47.5c-1.8 1.8-1.8 4.7 0 6.6 1.8 1.8 4.8 1.8 6.6 0s1.8-4.7 0-6.6-4.8-1.8-6.6 0m-16.8 21.9c-1.3 2.2-.5 5.1 1.7 6.3 2.2 1.3 5.1.5 6.3-1.7 1.3-2.2.5-5.1-1.7-6.3-2.2-1.3-5-.5-6.3 1.7m-14.2 53c0 2.6 2.1 4.6 4.6 4.6 2.6 0 4.6-2.1 4.6-4.6 0-2.6-2.1-4.6-4.6-4.6-2.5 0-4.6 2.1-4.6 4.6m3.6 27.5c.7 2.5 3.2 3.9 5.7 3.3 2.5-.7 3.9-3.2 3.3-5.7s-3.2-3.9-5.7-3.3-4 3.2-3.3 5.7m10.6 25.5c1.3 2.2 4.1 3 6.3 1.7 2.2-1.3 3-4.1 1.7-6.3-1.3-2.2-4.1-3-6.3-1.7-2.2 1.3-3 4.1-1.7 6.3m16.9 22c1.8 1.8 4.8 1.8 6.6 0 1.8-1.8 1.8-4.7 0-6.6-1.8-1.8-4.8-1.8-6.6 0s-1.9 4.8 0 6.6m21.9 16.8c2.2 1.3 5.1.5 6.3-1.7 1.3-2.2.5-5.1-1.7-6.3-2.2-1.3-5.1-.5-6.3 1.7-1.3 2.2-.5 5 1.7 6.3m53.1 14.2c2.6 0 4.6-2.1 4.6-4.6 0-2.6-2.1-4.6-4.6-4.6-2.6 0-4.6 2.1-4.6 4.6-.1 2.6 2 4.6 4.6 4.6m-27.5-3.6c2.5.7 5-.8 5.7-3.3.7-2.5-.8-5-3.3-5.7-2.5-.7-5 .8-5.7 3.3s.8 5.1 3.3 5.7m54.9 0c2.5-.7 3.9-3.2 3.3-5.7-.7-2.5-3.2-3.9-5.7-3.3-2.5.7-3.9 3.2-3.3 5.7.7 2.5 3.2 4 5.7 3.3m25.6-10.6c2.2-1.3 3-4.1 1.7-6.3-1.3-2.2-4.1-3-6.3-1.7-2.2 1.3-3 4.1-1.7 6.3 1.2 2.3 4.1 3 6.3 1.7m21.9-16.8c1.8-1.8 1.8-4.7 0-6.6-1.8-1.8-4.8-1.8-6.6 0-1.8 1.8-1.8 4.7 0 6.6s4.8 1.8 6.6 0m16.9-22c1.3-2.2.5-5.1-1.7-6.3-2.2-1.3-5.1-.5-6.3 1.7-1.3 2.2-.5 5.1 1.7 6.3 2.2 1.3 5 .6 6.3-1.7" fill="#fff"/><ellipse cx="2015.4" cy="164.4" rx="10.4" ry="10.4" fill="none" stroke="#fff" stroke-width="2" stroke-miterlimit="10"/><path d="m2013.1 168.3c-2.2-1.3-3-4.1-1.7-6.3 1.3-2.2 4.1-3 6.3-1.7 2.2 1.3 3 4.1 1.7 6.3-1.3 2.3-4.1 3-6.3 1.7m16.9-27.2c.7-2.5-.8-5-3.3-5.7s-5 .8-5.7 3.3c-.7 2.5.8 5 3.3 5.7s5-.9 5.7-3.3m3.6-27.5c0-2.6-2.1-4.6-4.6-4.6s-4.6 2.1-4.6 4.6c0 2.6 2.1 4.6 4.6 4.6 2.5.1 4.6-2 4.6-4.6m-3.6-27.4c-.7-2.5-3.2-3.9-5.7-3.3-2.5.7-3.9 3.2-3.3 5.7.7 2.5 3.2 3.9 5.7 3.3s4-3.2 3.3-5.7m-10.6-25.6c-1.3-2.2-4.1-3-6.3-1.7-2.2 1.3-3 4.1-1.7 6.3 1.3 2.2 4.1 3 6.3 1.7s3-4.1 1.7-6.3m-16.9-21.9c-1.8-1.8-4.8-1.8-6.6 0-1.8 1.8-1.8 4.7 0 6.6 1.8 1.8 4.8 1.8 6.6 0 1.8-1.9 1.8-4.8 0-6.6m-21.9-16.9c-2.2-1.3-5.1-.5-6.3 1.7-1.3 2.2-.5 5.1 1.7 6.3 2.2 1.3 5.1.5 6.3-1.7 1.2-2.2.5-5-1.7-6.3m-25.6-10.6c-2.5-.7-5 .8-5.7 3.3-.7 2.5.8 5 3.3 5.7s5-.8 5.7-3.3c.6-2.5-.8-5-3.3-5.7m-27.5-3.6c-2.6 0-4.6 2.1-4.6 4.6 0 2.6 2.1 4.6 4.6 4.6 2.6 0 4.6-2.1 4.6-4.6.1-2.5-2-4.6-4.6-4.6m-27.4 3.6c-2.5.7-3.9 3.2-3.3 5.7.7 2.5 3.2 3.9 5.7 3.3s3.9-3.2 3.3-5.7c-.7-2.5-3.2-4-5.7-3.3m-64.4 49.4c-1.3 2.2-.5 5.1 1.7 6.3 2.2 1.3 5.1.5 6.3-1.7 1.3-2.2.5-5.1-1.7-6.3-2.2-1.3-5-.5-6.3 1.7m38.8-38.8c-2.2 1.3-3 4.1-1.7 6.3 1.3 2.2 4.1 3 6.3 1.7s3-4.1 1.7-6.3-4.1-3-6.3-1.7m-21.9 16.8c-1.8 1.8-1.8 4.7 0 6.6 1.8 1.8 4.8 1.8 6.6 0 1.8-1.8 1.8-4.7 0-6.6s-4.8-1.8-6.6 0m-27.5 47.5c-.7 2.5.8 5 3.3 5.7 2.5.7 5-.8 5.7-3.3.7-2.5-.8-5-3.3-5.7-2.5-.6-5 .9-5.7 3.3m-3.6 27.5c0 2.6 2.1 4.6 4.6 4.6 2.6 0 4.6-2.1 4.6-4.6 0-2.6-2.1-4.6-4.6-4.6s-4.6 2-4.6 4.6m3.6 27.4c.7 2.5 3.2 3.9 5.7 3.3s3.9-3.2 3.3-5.7-3.2-3.9-5.7-3.3-3.9 3.2-3.3 5.7m10.6 25.6c1.3 2.2 4.1 3 6.3 1.7 2.2-1.3 3-4.1 1.7-6.3-1.3-2.2-4.1-3-6.3-1.7-2.2 1.2-3 4.1-1.7 6.3m16.9 22c1.8 1.8 4.8 1.8 6.6 0 1.8-1.8 1.8-4.7 0-6.6-1.8-1.8-4.8-1.8-6.6 0-1.8 1.8-1.8 4.7 0 6.6m47.5 27.4c2.5.7 5-.8 5.7-3.3.7-2.5-.8-5-3.3-5.7s-5 .8-5.7 3.3c-.6 2.5.9 5 3.3 5.7m-25.5-10.6c2.2 1.3 5.1.5 6.3-1.7 1.3-2.2.5-5.1-1.7-6.3-2.2-1.3-5.1-.5-6.3 1.7-1.3 2.2-.6 5 1.7 6.3m53 14.2c2.6 0 4.6-2.1 4.6-4.6 0-2.6-2.1-4.6-4.6-4.6-2.6 0-4.6 2.1-4.6 4.6-.1 2.5 2 4.6 4.6 4.6m27.4-3.6c2.5-.7 3.9-3.2 3.3-5.7-.7-2.5-3.2-3.9-5.7-3.3s-3.9 3.2-3.3 5.7c.7 2.5 3.3 4 5.7 3.3m25.6-10.6c2.2-1.3 3-4.1 1.7-6.3-1.3-2.2-4.1-3-6.3-1.7-2.2 1.3-3 4.1-1.7 6.3 1.3 2.3 4.1 3 6.3 1.7m22-16.8c1.8-1.8 1.8-4.7 0-6.6-1.8-1.8-4.8-1.8-6.6 0-1.8 1.8-1.8 4.7 0 6.6 1.8 1.8 4.8 1.8 6.6 0" fill="#fff"/><ellipse transform="matrix(-.259.966-.966-.259 2981.3-1916.8)" cx="2226" cy="185.4" rx="10.4" ry="10.4" fill="none" stroke="#fff" stroke-width="2" stroke-miterlimit="10"/><path d="m2222.8 188.6c-1.8-1.8-1.8-4.8 0-6.6 1.8-1.8 4.8-1.8 6.6 0 1.8 1.8 1.8 4.8 0 6.6-1.9 1.8-4.8 1.8-6.6 0m23.4-22c1.3-2.2.5-5.1-1.7-6.3-2.2-1.3-5.1-.5-6.3 1.7-1.3 2.2-.5 5.1 1.7 6.3 2.2 1.3 5 .5 6.3-1.7m10.6-25.6c.7-2.5-.8-5-3.3-5.7-2.5-.7-5 .8-5.7 3.3-.7 2.5.8 5 3.3 5.7 2.5.7 5-.8 5.7-3.3m3.6-27.4c0-2.6-2.1-4.6-4.6-4.6-2.6 0-4.6 2.1-4.6 4.6 0 2.6 2.1 4.6 4.6 4.6s4.6-2 4.6-4.6m-3.7-27.4c-.7-2.5-3.2-3.9-5.7-3.3-2.5.7-3.9 3.2-3.3 5.7.7 2.5 3.2 3.9 5.7 3.3s4-3.3 3.3-5.7m-10.6-25.6c-1.3-2.2-4.1-3-6.3-1.7-2.2 1.3-3 4.1-1.7 6.3s4.1 3 6.3 1.7c2.3-1.3 3-4.1 1.7-6.3m-16.8-22c-1.8-1.8-4.8-1.8-6.6 0-1.8 1.8-1.8 4.8 0 6.6 1.8 1.8 4.8 1.8 6.6 0s1.8-4.8 0-6.6m-22-16.8c-2.2-1.3-5.1-.5-6.3 1.7s-.5 5.1 1.7 6.3c2.2 1.3 5.1.5 6.3-1.7s.5-5.1-1.7-6.3m-25.6-10.6c-2.5-.7-5 .8-5.7 3.3s.8 5 3.3 5.7 5-.8 5.7-3.3c.7-2.5-.8-5.1-3.3-5.7m-27.4-3.7c-2.6 0-4.6 2.1-4.6 4.6s2.1 4.6 4.6 4.6c2.6 0 4.6-2.1 4.6-4.6s-2-4.6-4.6-4.6m-75 31.1c-1.8 1.8-1.8 4.8 0 6.6 1.8 1.8 4.8 1.8 6.6 0 1.8-1.8 1.8-4.8 0-6.6-1.8-1.8-4.8-1.8-6.6 0m47.6-27.5c-2.5.7-3.9 3.2-3.3 5.7s3.2 3.9 5.7 3.3c2.5-.7 3.9-3.2 3.3-5.7s-3.3-3.9-5.7-3.3m-25.6 10.6c-2.2 1.3-3 4.1-1.7 6.3s4.1 3 6.3 1.7c2.2-1.3 3-4.1 1.7-6.3s-4.1-3-6.3-1.7m-38.8 38.8c-1.3 2.2-.5 5.1 1.7 6.3s5.1.5 6.3-1.7c1.3-2.2.5-5.1-1.7-6.3s-5-.5-6.3 1.7m-10.6 25.6c-.7 2.5.8 5 3.3 5.7s5-.8 5.7-3.3c.7-2.5-.8-5-3.3-5.7s-5 .8-5.7 3.3m-3.6 27.4c0 2.6 2.1 4.6 4.6 4.6s4.6-2.1 4.6-4.6c0-2.6-2.1-4.6-4.6-4.6s-4.6 2.1-4.6 4.6m3.6 27.5c.7 2.5 3.2 3.9 5.7 3.3 2.5-.7 3.9-3.2 3.3-5.7s-3.2-3.9-5.7-3.3c-2.5.7-3.9 3.2-3.3 5.7m10.6 25.6c1.3 2.2 4.1 3 6.3 1.7 2.2-1.3 3-4.1 1.7-6.3s-4.1-3-6.3-1.7-3 4-1.7 6.3m38.8 38.8c2.2 1.3 5.1.5 6.3-1.7 1.3-2.2.5-5.1-1.7-6.3-2.2-1.3-5.1-.5-6.3 1.7-1.2 2.2-.5 5 1.7 6.3m-21.9-16.9c1.8 1.8 4.8 1.8 6.6 0 1.8-1.8 1.8-4.8 0-6.6-1.8-1.8-4.8-1.8-6.6 0-1.8 1.9-1.8 4.8 0 6.6m47.5 27.5c2.5.7 5-.8 5.7-3.3.7-2.5-.8-5-3.3-5.7-2.5-.7-5 .8-5.7 3.3s.8 5 3.3 5.7m27.5 3.6c2.6 0 4.6-2.1 4.6-4.6 0-2.6-2.1-4.6-4.6-4.6-2.6 0-4.6 2.1-4.6 4.6-.1 2.5 2 4.6 4.6 4.6m27.4-3.6c2.5-.7 3.9-3.2 3.3-5.7-.7-2.5-3.2-3.9-5.7-3.3-2.5.7-3.9 3.2-3.3 5.7.7 2.5 3.2 4 5.7 3.3m25.6-10.6c2.2-1.3 3-4.1 1.7-6.3-1.3-2.2-4.1-3-6.3-1.7s-3 4.1-1.7 6.3c1.2 2.2 4.1 3 6.3 1.7" fill="#fff"/><ellipse transform="matrix(-.5.866-.866-.5 3822.1-1803.8)" cx="2431.8" cy="201.5" rx="10.4" ry="10.4" fill="none" stroke="#fff" stroke-width="2" stroke-miterlimit="10"/><path d="m2427.8 203.7c-1.3-2.2-.5-5.1 1.7-6.3 2.2-1.3 5.1-.5 6.3 1.7 1.3 2.2.5 5.1-1.7 6.3-2.2 1.2-5 .5-6.3-1.7m28.3-15.2c1.8-1.8 1.8-4.8 0-6.6s-4.8-1.8-6.6 0c-1.8 1.8-1.8 4.8 0 6.6 1.8 1.8 4.8 1.8 6.6 0m16.8-21.9c1.3-2.2.5-5.1-1.7-6.3-2.2-1.3-5.1-.5-6.3 1.7-1.3 2.2-.5 5.1 1.7 6.3 2.2 1.2 5 .5 6.3-1.7m10.6-25.6c.7-2.5-.8-5-3.3-5.7-2.5-.7-5 .8-5.7 3.3-.7 2.5.8 5 3.3 5.7 2.5.6 5.1-.8 5.7-3.3m3.6-27.5c0-2.6-2.1-4.6-4.6-4.6s-4.6 2.1-4.6 4.6c0 2.6 2.1 4.6 4.6 4.6 2.5.1 4.6-2 4.6-4.6m-3.6-27.4c-.7-2.5-3.2-3.9-5.7-3.3-2.5.7-3.9 3.2-3.3 5.7.7 2.5 3.2 3.9 5.7 3.3 2.5-.7 4-3.2 3.3-5.7m-10.6-25.6c-1.3-2.2-4.1-3-6.3-1.7-2.2 1.3-3 4.1-1.7 6.3 1.3 2.2 4.1 3 6.3 1.7 2.2-1.2 3-4.1 1.7-6.3m-16.9-22c-1.8-1.8-4.8-1.8-6.6 0-1.8 1.8-1.8 4.8 0 6.6 1.8 1.8 4.8 1.8 6.6 0s1.9-4.7 0-6.6m-21.9-16.8c-2.2-1.3-5.1-.5-6.3 1.7s-.5 5.1 1.7 6.3c2.2 1.3 5.1.5 6.3-1.7s.5-5-1.7-6.3m-25.6-10.6c-2.5-.7-5 .8-5.7 3.3s.8 5 3.3 5.7c2.5.7 5-.8 5.7-3.3.7-2.5-.8-5.1-3.3-5.7m-80.4 10.6c-2.2 1.3-3 4.1-1.7 6.3 1.3 2.2 4.1 3 6.3 1.7 2.2-1.3 3-4.1 1.7-6.3-1.3-2.3-4.1-3-6.3-1.7m53-14.2c-2.6 0-4.6 2.1-4.6 4.6s2.1 4.6 4.6 4.6c2.6 0 4.6-2.1 4.6-4.6s-2.1-4.6-4.6-4.6m-27.5 3.6c-2.5.7-3.9 3.2-3.3 5.7s3.2 3.9 5.7 3.3 3.9-3.2 3.3-5.7c-.6-2.5-3.2-4-5.7-3.3m-47.5 27.4c-1.8 1.8-1.8 4.8 0 6.6s4.8 1.8 6.6 0c1.8-1.8 1.8-4.8 0-6.6-1.8-1.8-4.8-1.8-6.6 0m-16.8 22c-1.3 2.2-.5 5.1 1.7 6.3 2.2 1.3 5.1.5 6.3-1.7 1.3-2.2.5-5.1-1.7-6.3-2.2-1.3-5-.6-6.3 1.7m-10.6 25.5c-.7 2.5.8 5 3.3 5.7 2.5.7 5-.8 5.7-3.3.7-2.5-.8-5-3.3-5.7-2.5-.6-5 .9-5.7 3.3m-3.6 27.5c0 2.6 2.1 4.6 4.6 4.6s4.6-2.1 4.6-4.6-2.1-4.6-4.6-4.6c-2.5-.1-4.6 2-4.6 4.6m3.6 27.4c.7 2.5 3.2 3.9 5.7 3.3 2.5-.7 3.9-3.2 3.3-5.7-.7-2.5-3.2-3.9-5.7-3.3s-4 3.3-3.3 5.7m27.5 47.6c1.8 1.8 4.8 1.8 6.6 0s1.8-4.8 0-6.6c-1.8-1.8-4.8-1.8-6.6 0-1.9 1.8-1.9 4.8 0 6.6m-16.9-22c1.3 2.2 4.1 3 6.3 1.7 2.2-1.3 3-4.1 1.7-6.3-1.3-2.2-4.1-3-6.3-1.7-2.2 1.3-3 4.1-1.7 6.3m38.8 38.8c2.2 1.3 5.1.5 6.3-1.7s.5-5.1-1.7-6.3c-2.2-1.3-5.1-.5-6.3 1.7-1.3 2.2-.5 5.1 1.7 6.3m25.6 10.6c2.5.7 5-.8 5.7-3.3.7-2.5-.8-5-3.3-5.7-2.5-.7-5 .8-5.7 3.3-.7 2.5.8 5.1 3.3 5.7m27.4 3.7c2.6 0 4.6-2.1 4.6-4.6s-2.1-4.6-4.6-4.6c-2.6 0-4.6 2.1-4.6 4.6 0 2.5 2.1 4.6 4.6 4.6m27.5-3.6c2.5-.7 3.9-3.2 3.3-5.7-.7-2.5-3.2-3.9-5.7-3.3-2.5.7-3.9 3.2-3.3 5.7.6 2.4 3.2 3.9 5.7 3.3" fill="#fff"/><ellipse transform="matrix(-.707.707-.707-.707 4646.2-1501.5)" cx="2634" cy="211.5" rx="10.4" ry="10.4" fill="none" stroke="#fff" stroke-width="2" stroke-miterlimit="10"/><path d="m2629.6 212.6c-.7-2.5.8-5 3.3-5.7s5 .8 5.7 3.3c.7 2.5-.8 5-3.3 5.7-2.4.7-5-.8-5.7-3.3m31.3-7.3c2.2-1.3 3-4.1 1.7-6.3-1.3-2.2-4.1-3-6.3-1.7s-3 4.1-1.7 6.3c1.2 2.2 4.1 3 6.3 1.7m21.9-16.8c1.8-1.8 1.8-4.8 0-6.6-1.8-1.8-4.7-1.8-6.6 0-1.8 1.8-1.8 4.8 0 6.6 1.9 1.8 4.8 1.8 6.6 0m16.9-22c1.3-2.2.5-5.1-1.7-6.3-2.2-1.3-5.1-.5-6.3 1.7s-.5 5.1 1.7 6.3c2.2 1.3 5 .5 6.3-1.7m10.6-25.6c.7-2.5-.8-5-3.3-5.7s-5 .8-5.7 3.3c-.7 2.5.8 5 3.3 5.7 2.5.7 5-.8 5.7-3.3m3.6-27.4c0-2.6-2.1-4.6-4.6-4.6-2.6 0-4.6 2.1-4.6 4.6 0 2.6 2.1 4.6 4.6 4.6 2.5 0 4.6-2.1 4.6-4.6m-3.6-27.5c-.7-2.5-3.2-3.9-5.7-3.3s-3.9 3.2-3.3 5.7 3.2 3.9 5.7 3.3c2.5-.7 3.9-3.2 3.3-5.7m-10.6-25.6c-1.3-2.2-4.1-3-6.3-1.7s-3 4.1-1.7 6.3c1.3 2.2 4.1 3 6.3 1.7s2.9-4 1.7-6.3m-16.9-21.9c-1.8-1.8-4.7-1.8-6.6 0s-1.8 4.8 0 6.6c1.8 1.8 4.7 1.8 6.6 0s1.8-4.8 0-6.6m-21.9-16.9c-2.2-1.3-5.1-.5-6.3 1.7s-.5 5.1 1.7 6.3c2.2 1.3 5.1.5 6.3-1.7s.5-5-1.7-6.3m-80.5-10.6c-2.5.7-3.9 3.2-3.3 5.7.7 2.5 3.2 3.9 5.7 3.3s3.9-3.2 3.3-5.7-3.2-4-5.7-3.3m54.9 0c-2.5-.7-5 .8-5.7 3.3-.7 2.5.8 5 3.3 5.7 2.5.7 5-.8 5.7-3.3s-.8-5-3.3-5.7m-27.4-3.6c-2.6 0-4.6 2.1-4.6 4.6 0 2.6 2.1 4.6 4.6 4.6s4.6-2.1 4.6-4.6c0-2.5-2.1-4.6-4.6-4.6m-53 14.2c-2.2 1.3-3 4.1-1.7 6.3s4.1 3 6.3 1.7c2.2-1.3 3-4.1 1.7-6.3s-4.1-3-6.3-1.7m-22 16.8c-1.8 1.8-1.8 4.8 0 6.6 1.8 1.8 4.7 1.8 6.6 0 1.8-1.8 1.8-4.8 0-6.6-1.8-1.8-4.8-1.8-6.6 0m-16.8 22c-1.3 2.2-.5 5.1 1.7 6.3 2.2 1.3 5.1.5 6.3-1.7 1.3-2.2.5-5.1-1.7-6.3-2.2-1.3-5.1-.5-6.3 1.7m-10.6 25.6c-.7 2.5.8 5 3.3 5.7 2.5.7 5-.8 5.7-3.3.7-2.5-.8-5-3.3-5.7s-5.1.8-5.7 3.3m-3.6 27.4c0 2.6 2.1 4.6 4.6 4.6 2.6 0 4.6-2.1 4.6-4.6 0-2.6-2.1-4.6-4.6-4.6-2.6 0-4.6 2.1-4.6 4.6m14.2 53.1c1.3 2.2 4.1 3 6.3 1.7 2.2-1.3 3-4.1 1.7-6.3s-4.1-3-6.3-1.7c-2.2 1.2-3 4-1.7 6.3m-10.6-25.6c.7 2.5 3.2 3.9 5.7 3.3 2.5-.7 3.9-3.2 3.3-5.7-.7-2.5-3.2-3.9-5.7-3.3-2.5.7-4 3.2-3.3 5.7m27.4 47.5c1.8 1.8 4.7 1.8 6.6 0 1.8-1.8 1.8-4.8 0-6.6-1.8-1.8-4.7-1.8-6.6 0-1.8 1.9-1.8 4.8 0 6.6m22 16.9c2.2 1.3 5.1.5 6.3-1.7s.5-5.1-1.7-6.3c-2.2-1.3-5.1-.5-6.3 1.7s-.5 5 1.7 6.3m25.6 10.6c2.5.7 5-.8 5.7-3.3.7-2.5-.8-5-3.3-5.7-2.5-.7-5 .8-5.7 3.3-.7 2.5.8 5 3.3 5.7m27.4 3.6c2.6 0 4.6-2.1 4.6-4.6 0-2.6-2.1-4.6-4.6-4.6-2.6 0-4.6 2.1-4.6 4.6 0 2.5 2 4.6 4.6 4.6" fill="#fff"/><ellipse transform="matrix(-.866.5-.5-.866 5396.8-1016.3)" cx="2834.5" cy="214.9" rx="10.4" ry="10.4" fill="none" stroke="#fff" stroke-width="2" stroke-miterlimit="10"/><path d="m2830 214.8c0-2.6 2.1-4.6 4.6-4.6 2.6 0 4.6 2.1 4.6 4.6 0 2.6-2.1 4.6-4.6 4.6-2.5.1-4.6-2-4.6-4.6m32.1 1c2.5-.7 3.9-3.2 3.3-5.7-.7-2.5-3.2-3.9-5.7-3.3s-3.9 3.2-3.3 5.7c.7 2.5 3.2 4 5.7 3.3m25.5-10.6c2.2-1.3 3-4.1 1.7-6.3-1.3-2.2-4.1-3-6.3-1.7-2.2 1.3-3 4.1-1.7 6.3 1.3 2.3 4.1 3 6.3 1.7m22-16.8c1.8-1.8 1.8-4.8 0-6.6-1.8-1.8-4.7-1.8-6.6 0-1.8 1.8-1.8 4.8 0 6.6 1.8 1.8 4.8 1.8 6.6 0m16.8-22c1.3-2.2.5-5.1-1.7-6.3-2.2-1.3-5.1-.5-6.3 1.7-1.3 2.2-.5 5.1 1.7 6.3 2.2 1.3 5.1.5 6.3-1.7m10.6-25.6c.7-2.5-.8-5-3.3-5.7-2.5-.7-5 .8-5.7 3.3-.7 2.5.8 5 3.3 5.7s5.1-.8 5.7-3.3m3.6-27.4c0-2.6-2.1-4.6-4.6-4.6-2.6 0-4.6 2.1-4.6 4.6s2.1 4.6 4.6 4.6c2.6 0 4.6-2.1 4.6-4.6m-3.6-27.5c-.7-2.5-3.2-3.9-5.7-3.3s-3.9 3.2-3.3 5.7c.7 2.5 3.2 3.9 5.7 3.3 2.5-.6 4-3.2 3.3-5.7m-10.6-25.5c-1.3-2.2-4.1-3-6.3-1.7-2.2 1.3-3 4.1-1.7 6.3 1.3 2.2 4.1 3 6.3 1.7 2.3-1.3 3-4.1 1.7-6.3m-16.8-22c-1.8-1.8-4.7-1.8-6.6 0-1.8 1.8-1.8 4.8 0 6.6 1.8 1.8 4.7 1.8 6.6 0 1.8-1.9 1.8-4.8 0-6.6m-75-31.1c-2.6 0-4.6 2.1-4.6 4.6s2.1 4.6 4.6 4.6c2.6 0 4.6-2.1 4.6-4.6s-2-4.6-4.6-4.6m53 14.2c-2.2-1.3-5.1-.5-6.3 1.7-1.3 2.2-.5 5.1 1.7 6.3 2.2 1.3 5.1.5 6.3-1.7s.6-5-1.7-6.3m-25.5-10.6c-2.5-.7-5 .8-5.7 3.3s.8 5 3.3 5.7 5-.8 5.7-3.3c.6-2.5-.8-5-3.3-5.7m-54.9 0c-2.5.7-3.9 3.2-3.3 5.7s3.2 3.9 5.7 3.3 3.9-3.2 3.3-5.7c-.7-2.5-3.2-3.9-5.7-3.3m-25.6 10.6c-2.2 1.3-3 4.1-1.7 6.3 1.3 2.2 4.1 3 6.3 1.7 2.2-1.3 3-4.1 1.7-6.3s-4-3-6.3-1.7m-21.9 16.9c-1.8 1.8-1.8 4.8 0 6.6s4.7 1.8 6.6 0 1.8-4.8 0-6.6-4.8-1.8-6.6 0m-16.9 22c-1.3 2.2-.5 5.1 1.7 6.3 2.2 1.3 5.1.5 6.3-1.7 1.3-2.2.5-5.1-1.7-6.3-2.1-1.3-5-.6-6.3 1.7m-10.5 25.5c-.7 2.5.8 5 3.3 5.7 2.5.7 5-.8 5.7-3.3.7-2.5-.8-5-3.3-5.7s-5.1.9-5.7 3.3m0 54.9c.7 2.5 3.2 3.9 5.7 3.3s3.9-3.2 3.3-5.7c-.7-2.5-3.2-3.9-5.7-3.3-2.5.7-4 3.3-3.3 5.7m-3.7-27.4c0 2.6 2.1 4.6 4.6 4.6s4.6-2.1 4.6-4.6-2.1-4.6-4.6-4.6-4.6 2-4.6 4.6m14.2 53c1.3 2.2 4.1 3 6.3 1.7 2.2-1.3 3-4.1 1.7-6.3-1.3-2.2-4.1-3-6.3-1.7-2.2 1.3-2.9 4.1-1.7 6.3m16.9 22c1.8 1.8 4.7 1.8 6.6 0s1.8-4.8 0-6.6-4.7-1.8-6.6 0-1.8 4.8 0 6.6m21.9 16.8c2.2 1.3 5.1.5 6.3-1.7s.5-5.1-1.7-6.3-5.1-.5-6.3 1.7c-1.2 2.2-.5 5.1 1.7 6.3m25.6 10.6c2.5.7 5-.8 5.7-3.3.7-2.5-.8-5-3.3-5.7s-5 .8-5.7 3.3c-.6 2.5.8 5.1 3.3 5.7" fill="#fff"/><ellipse transform="matrix(-.966.259-.259-.966 6021.4-370.1)" cx="3035" cy="211.3" rx="10.4" ry="10.4" fill="none" stroke="#fff" stroke-width="2" stroke-miterlimit="10"/><path d="m3030.7 210.1c.7-2.5 3.2-3.9 5.7-3.3 2.5.7 3.9 3.2 3.3 5.7-.7 2.5-3.2 3.9-5.7 3.3s-4-3.2-3.3-5.7m30.7 9.3c2.6 0 4.6-2.1 4.6-4.6 0-2.6-2.1-4.6-4.6-4.6s-4.6 2.1-4.6 4.6c0 2.5 2 4.6 4.6 4.6m27.4-3.6c2.5-.7 3.9-3.2 3.3-5.7-.7-2.5-3.2-3.9-5.7-3.3s-3.9 3.2-3.3 5.7 3.3 3.9 5.7 3.3m25.6-10.6c2.2-1.3 3-4.1 1.7-6.3-1.3-2.2-4.1-3-6.3-1.7-2.2 1.3-3 4.1-1.7 6.3 1.2 2.2 4.1 2.9 6.3 1.7m22-16.9c1.8-1.8 1.8-4.8 0-6.6-1.8-1.8-4.7-1.8-6.6 0-1.8 1.8-1.8 4.8 0 6.6 1.8 1.8 4.8 1.8 6.6 0m16.8-22c1.3-2.2.5-5.1-1.7-6.3-2.2-1.3-5.1-.5-6.3 1.7-1.3 2.2-.5 5.1 1.7 6.3s5 .6 6.3-1.7m10.6-25.5c.7-2.5-.8-5-3.3-5.7s-5 .8-5.7 3.3.8 5 3.3 5.7 5-.9 5.7-3.3m3.6-27.5c0-2.6-2.1-4.6-4.6-4.6-2.6 0-4.6 2.1-4.6 4.6s2.1 4.6 4.6 4.6c2.5 0 4.6-2 4.6-4.6m-3.6-27.4c-.7-2.5-3.2-3.9-5.7-3.3s-3.9 3.2-3.3 5.7c.7 2.5 3.2 3.9 5.7 3.3 2.5-.7 4-3.3 3.3-5.7m-10.6-25.6c-1.3-2.2-4.1-3-6.3-1.7s-3 4.1-1.7 6.3c1.3 2.2 4.1 3 6.3 1.7s3-4.1 1.7-6.3m-64.3-49.4c-2.5-.7-5 .8-5.7 3.3s.8 5 3.3 5.7c2.5.7 5-.8 5.7-3.3s-.9-5.1-3.3-5.7m47.5 27.4c-1.8-1.8-4.7-1.8-6.6 0-1.8 1.8-1.8 4.8 0 6.6 1.8 1.8 4.7 1.8 6.6 0 1.8-1.8 1.8-4.8 0-6.6m-22-16.8c-2.2-1.3-5.1-.5-6.3 1.7s-.5 5.1 1.7 6.3 5.1.5 6.3-1.7.6-5.1-1.7-6.3m-53-14.2c-2.6 0-4.6 2.1-4.6 4.6 0 2.6 2.1 4.6 4.6 4.6 2.6 0 4.6-2.1 4.6-4.6.1-2.6-2-4.6-4.6-4.6m-27.4 3.6c-2.5.7-3.9 3.2-3.3 5.7.7 2.5 3.2 3.9 5.7 3.3 2.5-.7 3.9-3.2 3.3-5.7s-3.2-4-5.7-3.3m-25.6 10.6c-2.2 1.3-3 4.1-1.7 6.3s4.1 3 6.3 1.7c2.2-1.3 3-4.1 1.7-6.3s-4.1-3-6.3-1.7m-21.9 16.8c-1.8 1.8-1.8 4.8 0 6.6s4.7 1.8 6.6 0c1.8-1.8 1.8-4.8 0-6.6s-4.8-1.8-6.6 0m-16.9 22c-1.3 2.2-.5 5.1 1.7 6.3s5.1.5 6.3-1.7c1.3-2.2.5-5.1-1.7-6.3s-5-.5-6.3 1.7m-14.2 53c0 2.6 2.1 4.6 4.6 4.6 2.6 0 4.6-2.1 4.6-4.6 0-2.6-2.1-4.6-4.6-4.6-2.5 0-4.6 2.1-4.6 4.6m3.6-27.4c-.7 2.5.8 5 3.3 5.7 2.5.7 5-.8 5.7-3.3s-.8-5-3.3-5.7c-2.5-.7-5 .8-5.7 3.3m0 54.9c.7 2.5 3.2 3.9 5.7 3.3s3.9-3.2 3.3-5.7-3.2-3.9-5.7-3.3c-2.5.7-3.9 3.2-3.3 5.7m10.6 25.6c1.3 2.2 4.1 3 6.3 1.7s3-4.1 1.7-6.3c-1.3-2.2-4.1-3-6.3-1.7-2.2 1.2-3 4-1.7 6.3m16.8 21.9c1.8 1.8 4.7 1.8 6.6 0 1.8-1.8 1.8-4.8 0-6.6-1.8-1.8-4.7-1.8-6.6 0-1.8 1.9-1.8 4.8 0 6.6m22 16.9c2.2 1.3 5.1.5 6.3-1.7s.5-5.1-1.7-6.3-5.1-.5-6.3 1.7c-1.3 2.2-.5 5 1.7 6.3" fill="#fff"/><ellipse cx="3237.3" cy="201.1" rx="10.4" ry="10.4" fill="none" stroke="#fff" stroke-width="2" stroke-miterlimit="10"/><path d="m3233.5 198.8c1.3-2.2 4.1-3 6.3-1.7 2.2 1.3 3 4.1 1.7 6.3s-4.1 3-6.3 1.7c-2.3-1.3-3-4.1-1.7-6.3m27.2 16.9c2.5.7 5-.8 5.7-3.3.7-2.5-.8-5-3.3-5.7-2.5-.7-5 .8-5.7 3.3-.6 2.5.8 5 3.3 5.7m27.5 3.6c2.6 0 4.6-2.1 4.6-4.6s-2.1-4.6-4.6-4.6c-2.6 0-4.6 2.1-4.6 4.6-.1 2.5 2 4.6 4.6 4.6m27.4-3.6c2.5-.7 3.9-3.2 3.3-5.7-.7-2.5-3.2-3.9-5.7-3.3-2.5.7-3.9 3.2-3.3 5.7.7 2.5 3.2 3.9 5.7 3.3m25.6-10.6c2.2-1.3 3-4.1 1.7-6.3-1.3-2.2-4.1-3-6.3-1.7-2.2 1.3-3 4.1-1.7 6.3s4.1 3 6.3 1.7m21.9-16.9c1.8-1.8 1.8-4.8 0-6.6-1.8-1.8-4.7-1.8-6.6 0-1.8 1.8-1.8 4.8 0 6.6s4.8 1.8 6.6 0m16.9-21.9c1.3-2.2.5-5.1-1.7-6.3-2.2-1.3-5.1-.5-6.3 1.7-1.3 2.2-.5 5.1 1.7 6.3 2.2 1.2 5 .5 6.3-1.7m10.6-25.6c.7-2.5-.8-5-3.3-5.7-2.5-.7-5 .8-5.7 3.3-.7 2.5.8 5 3.3 5.7 2.5.6 5-.8 5.7-3.3m3.6-27.5c0-2.6-2.1-4.6-4.6-4.6s-4.6 2.1-4.6 4.6c0 2.6 2.1 4.6 4.6 4.6 2.5.1 4.6-2 4.6-4.6m-3.6-27.4c-.7-2.5-3.2-3.9-5.7-3.3-2.5.7-3.9 3.2-3.3 5.7.7 2.5 3.2 3.9 5.7 3.3s4-3.2 3.3-5.7m-49.4-64.4c-2.2-1.3-5.1-.5-6.3 1.7-1.3 2.2-.5 5.1 1.7 6.3 2.2 1.3 5.1.5 6.3-1.7 1.3-2.2.5-5-1.7-6.3m38.8 38.8c-1.3-2.2-4.1-3-6.3-1.7-2.2 1.3-3 4.1-1.7 6.3 1.3 2.2 4.1 3 6.3 1.7 2.2-1.2 3-4.1 1.7-6.3m-16.8-22c-1.8-1.8-4.7-1.8-6.6 0-1.8 1.8-1.8 4.8 0 6.6 1.8 1.8 4.7 1.8 6.6 0s1.8-4.7 0-6.6m-47.5-27.4c-2.5-.7-5 .8-5.7 3.3-.7 2.5.8 5 3.3 5.7 2.5.7 5-.8 5.7-3.3.6-2.5-.9-5-3.3-5.7m-27.5-3.6c-2.6 0-4.6 2.1-4.6 4.6 0 2.6 2.1 4.6 4.6 4.6 2.6 0 4.6-2.1 4.6-4.6s-2-4.6-4.6-4.6m-27.4 3.6c-2.5.7-3.9 3.2-3.3 5.7s3.2 3.9 5.7 3.3c2.5-.7 3.9-3.2 3.3-5.7s-3.2-3.9-5.7-3.3m-25.6 10.6c-2.2 1.3-3 4.1-1.7 6.3 1.3 2.2 4.1 3 6.3 1.7 2.2-1.3 3-4.1 1.7-6.3-1.2-2.2-4.1-3-6.3-1.7m-22 16.9c-1.8 1.8-1.8 4.8 0 6.6s4.7 1.8 6.6 0c1.8-1.8 1.8-4.8 0-6.6-1.8-1.8-4.7-1.8-6.6 0m-27.4 47.5c-.7 2.5.8 5 3.3 5.7 2.5.7 5-.8 5.7-3.3.7-2.5-.8-5-3.3-5.7-2.5-.6-5 .9-5.7 3.3m10.6-25.5c-1.3 2.2-.5 5.1 1.7 6.3 2.2 1.3 5.1.5 6.3-1.7 1.3-2.2.5-5.1-1.7-6.3-2.2-1.3-5-.6-6.3 1.7m-14.2 53c0 2.6 2.1 4.6 4.6 4.6 2.6 0 4.6-2.1 4.6-4.6 0-2.6-2.1-4.6-4.6-4.6-2.5-.1-4.6 2-4.6 4.6m3.6 27.4c.7 2.5 3.2 3.9 5.7 3.3 2.5-.7 3.9-3.2 3.3-5.7-.7-2.5-3.2-3.9-5.7-3.3-2.5.7-4 3.3-3.3 5.7m10.6 25.6c1.3 2.2 4.1 3 6.3 1.7s3-4.1 1.7-6.3c-1.3-2.2-4.1-3-6.3-1.7-2.3 1.2-3 4.1-1.7 6.3m16.8 22c1.8 1.8 4.7 1.8 6.6 0 1.8-1.8 1.8-4.8 0-6.6s-4.7-1.8-6.6 0c-1.8 1.8-1.8 4.8 0 6.6" fill="#fff"/><ellipse transform="matrix(-.966-.259.259-.966 6721 1254.7)" cx="3443.1" cy="184.9" rx="10.4" ry="10.4" fill="none" stroke="#fff" stroke-width="2" stroke-miterlimit="10"/><path d="m3440 181.6c1.8-1.8 4.8-1.8 6.6 0 1.8 1.8 1.8 4.8 0 6.6-1.8 1.8-4.8 1.8-6.6 0-1.9-1.8-1.9-4.7 0-6.6m21.9 23.4c2.2 1.3 5.1.5 6.3-1.7 1.3-2.2.5-5.1-1.7-6.3s-5.1-.5-6.3 1.7c-1.3 2.2-.5 5.1 1.7 6.3m25.6 10.6c2.5.7 5-.8 5.7-3.3.7-2.5-.8-5-3.3-5.7-2.5-.7-5 .8-5.7 3.3-.7 2.5.8 5.1 3.3 5.7m27.4 3.6c2.6 0 4.6-2.1 4.6-4.6 0-2.6-2.1-4.6-4.6-4.6-2.6 0-4.6 2.1-4.6 4.6 0 2.6 2.1 4.6 4.6 4.6m27.5-3.6c2.5-.7 3.9-3.2 3.3-5.7s-3.2-3.9-5.7-3.3c-2.5.7-3.9 3.2-3.3 5.7.7 2.5 3.2 4 5.7 3.3m25.5-10.6c2.2-1.3 3-4.1 1.7-6.3-1.3-2.2-4.1-3-6.3-1.7-2.2 1.3-3 4.1-1.7 6.3 1.3 2.2 4.1 3 6.3 1.7m22-16.8c1.8-1.8 1.8-4.8 0-6.6s-4.8-1.8-6.6 0c-1.8 1.8-1.8 4.8 0 6.6s4.8 1.8 6.6 0m16.9-22c1.3-2.2.5-5.1-1.7-6.3s-5.1-.5-6.3 1.7-.5 5.1 1.7 6.3c2.2 1.3 5 .5 6.3-1.7m10.6-25.6c.7-2.5-.8-5-3.3-5.7-2.5-.7-5 .8-5.7 3.3s.8 5 3.3 5.7c2.5.7 5-.8 5.7-3.3m3.6-27.4c0-2.6-2.1-4.6-4.6-4.6-2.6 0-4.6 2.1-4.6 4.6 0 2.6 2.1 4.6 4.6 4.6 2.5 0 4.6-2.1 4.6-4.6m-31-75c-1.8-1.8-4.8-1.8-6.6 0-1.8 1.8-1.8 4.8 0 6.6s4.8 1.8 6.6 0c1.8-1.8 1.8-4.8 0-6.6m27.4 47.5c-.7-2.5-3.2-3.9-5.7-3.3s-3.9 3.2-3.3 5.7 3.2 3.9 5.7 3.3 4-3.2 3.3-5.7m-10.6-25.5c-1.3-2.2-4.1-3-6.3-1.7s-3 4.1-1.7 6.3c1.3 2.2 4.1 3 6.3 1.7 2.2-1.3 3-4.1 1.7-6.3m-38.8-38.8c-2.2-1.3-5.1-.5-6.3 1.7-1.3 2.2-.5 5.1 1.7 6.3s5.1.5 6.3-1.7c1.3-2.2.5-5.1-1.7-6.3m-25.6-10.6c-2.5-.7-5 .8-5.7 3.3s.8 5 3.3 5.7c2.5.7 5-.8 5.7-3.3.7-2.5-.8-5.1-3.3-5.7m-27.4-3.6c-2.6 0-4.6 2.1-4.6 4.6 0 2.6 2.1 4.6 4.6 4.6s4.6-2.1 4.6-4.6-2-4.6-4.6-4.6m-27.5 3.6c-2.5.7-3.9 3.2-3.3 5.7s3.2 3.9 5.7 3.3c2.5-.7 3.9-3.2 3.3-5.7s-3.2-4-5.7-3.3m-25.5 10.6c-2.2 1.3-3 4.1-1.7 6.3s4.1 3 6.3 1.7c2.2-1.3 3-4.1 1.7-6.3s-4.1-3-6.3-1.7m-38.9 38.8c-1.3 2.2-.5 5.1 1.7 6.3s5.1.5 6.3-1.7.5-5.1-1.7-6.3c-2.1-1.3-5-.5-6.3 1.7m16.9-21.9c-1.8 1.8-1.8 4.8 0 6.6 1.8 1.8 4.8 1.8 6.6 0 1.8-1.8 1.8-4.8 0-6.6-1.8-1.9-4.8-1.9-6.6 0m-27.5 47.5c-.7 2.5.8 5 3.3 5.7 2.5.7 5-.8 5.7-3.3.7-2.5-.8-5-3.3-5.7-2.4-.7-5 .8-5.7 3.3m-3.6 27.4c0 2.6 2.1 4.6 4.6 4.6 2.6 0 4.6-2.1 4.6-4.6 0-2.6-2.1-4.6-4.6-4.6s-4.6 2.1-4.6 4.6m3.6 27.5c.7 2.5 3.2 3.9 5.7 3.3 2.5-.7 3.9-3.2 3.3-5.7-.7-2.5-3.2-3.9-5.7-3.3-2.5.7-3.9 3.2-3.3 5.7m10.6 25.5c1.3 2.2 4.1 3 6.3 1.7 2.2-1.3 3-4.1 1.7-6.3-1.3-2.2-4.1-3-6.3-1.7-2.2 1.3-3 4.1-1.7 6.3" fill="#fff"/><ellipse transform="matrix(-.866-.5.5-.866 6736.1 2132.6)" cx="3653.8" cy="163.8" rx="10.4" ry="10.4" fill="none" stroke="#fff" stroke-width="2" stroke-miterlimit="10"/><path d="m3651.6 159.9c2.2-1.3 5.1-.5 6.3 1.7 1.3 2.2.5 5.1-1.7 6.3-2.2 1.3-5.1.5-6.3-1.7-1.3-2.2-.5-5.1 1.7-6.3m15.1 28.2c1.8 1.8 4.8 1.8 6.6 0 1.8-1.8 1.8-4.8 0-6.6s-4.8-1.8-6.6 0c-1.8 1.9-1.8 4.8 0 6.6m22 16.9c2.2 1.3 5.1.5 6.3-1.7 1.3-2.2.5-5.1-1.7-6.3-2.2-1.3-5.1-.5-6.3 1.7-1.3 2.2-.5 5 1.7 6.3m25.6 10.6c2.5.7 5-.8 5.7-3.3.7-2.5-.8-5-3.3-5.7s-5 .8-5.7 3.3.8 5 3.3 5.7m27.4 3.6c2.6 0 4.6-2.1 4.6-4.6 0-2.6-2.1-4.6-4.6-4.6-2.6 0-4.6 2.1-4.6 4.6 0 2.5 2 4.6 4.6 4.6m27.5-3.6c2.5-.7 3.9-3.2 3.3-5.7-.7-2.5-3.2-3.9-5.7-3.3-2.5.7-3.9 3.2-3.3 5.7.6 2.5 3.2 3.9 5.7 3.3m25.5-10.6c2.2-1.3 3-4.1 1.7-6.3-1.3-2.2-4.1-3-6.3-1.7-2.2 1.3-3 4.1-1.7 6.3 1.3 2.2 4.1 2.9 6.3 1.7m22-16.9c1.8-1.8 1.8-4.8 0-6.6-1.8-1.8-4.8-1.8-6.6 0-1.8 1.8-1.8 4.8 0 6.6 1.8 1.8 4.8 1.8 6.6 0m16.9-22c1.3-2.2.5-5.1-1.7-6.3-2.2-1.3-5.1-.5-6.3 1.7-1.3 2.2-.5 5.1 1.7 6.3 2.1 1.3 5 .6 6.3-1.7m10.6-25.5c.7-2.5-.8-5-3.3-5.7-2.5-.7-5 .8-5.7 3.3s.8 5 3.3 5.7 5-.8 5.7-3.3m-10.6-80.5c-1.3-2.2-4.1-3-6.3-1.7-2.2 1.3-3 4.1-1.7 6.3s4.1 3 6.3 1.7c2.2-1.2 3-4.1 1.7-6.3m14.2 53c0-2.6-2.1-4.6-4.6-4.6-2.6 0-4.6 2.1-4.6 4.6 0 2.6 2.1 4.6 4.6 4.6 2.5.1 4.6-2 4.6-4.6m-3.6-27.4c-.7-2.5-3.2-3.9-5.7-3.3-2.5.7-3.9 3.2-3.3 5.7.7 2.5 3.2 3.9 5.7 3.3 2.5-.7 3.9-3.2 3.3-5.7m-27.5-47.5c-1.8-1.8-4.8-1.8-6.6 0-1.8 1.8-1.8 4.8 0 6.6 1.8 1.8 4.8 1.8 6.6 0s1.9-4.8 0-6.6m-21.9-16.9c-2.2-1.3-5.1-.5-6.3 1.7-1.3 2.2-.5 5.1 1.7 6.3 2.2 1.3 5.1.5 6.3-1.7 1.3-2.1.5-5-1.7-6.3m-25.6-10.5c-2.5-.7-5 .8-5.7 3.3-.7 2.5.8 5 3.3 5.7s5-.8 5.7-3.3c.7-2.5-.8-5.1-3.3-5.7m-27.4-3.7c-2.6 0-4.6 2.1-4.6 4.6s2.1 4.6 4.6 4.6c2.6 0 4.6-2.1 4.6-4.6s-2.1-4.6-4.6-4.6m-27.5 3.7c-2.5.7-3.9 3.2-3.3 5.7.7 2.5 3.2 3.9 5.7 3.3 2.5-.7 3.9-3.2 3.3-5.7-.7-2.5-3.2-4-5.7-3.3m-47.5 27.4c-1.8 1.8-1.8 4.8 0 6.6s4.8 1.8 6.6 0c1.8-1.8 1.8-4.8 0-6.6-1.9-1.8-4.8-1.8-6.6 0m21.9-16.8c-2.2 1.3-3 4.1-1.7 6.3s4.1 3 6.3 1.7 3-4.1 1.7-6.3c-1.2-2.3-4-3-6.3-1.7m-38.8 38.8c-1.3 2.2-.5 5.1 1.7 6.3 2.2 1.3 5.1.5 6.3-1.7 1.3-2.2.5-5.1-1.7-6.3-2.2-1.3-5-.5-6.3 1.7m-10.6 25.6c-.7 2.5.8 5 3.3 5.7 2.5.7 5-.8 5.7-3.3.7-2.5-.8-5-3.3-5.7-2.5-.7-5 .8-5.7 3.3m-3.6 27.4c0 2.6 2.1 4.6 4.6 4.6 2.6 0 4.6-2.1 4.6-4.6 0-2.6-2.1-4.6-4.6-4.6-2.5 0-4.6 2-4.6 4.6m3.6 27.4c.7 2.5 3.2 3.9 5.7 3.3 2.5-.7 3.9-3.2 3.3-5.7-.7-2.5-3.2-3.9-5.7-3.3-2.5.7-4 3.3-3.3 5.7" fill="#fff"/><ellipse transform="matrix(-.707-.707.707-.707 6508.7 2974.6)" cx="3870.4" cy="139.3" rx="10.4" ry="10.4" fill="none" stroke="#fff" stroke-width="2" stroke-miterlimit="10"/><path d="m3869.3 134.9c2.5-.7 5 .8 5.7 3.3s-.8 5-3.3 5.7c-2.5.7-5-.8-5.7-3.3s.8-5 3.3-5.7m7.3 31.3c1.3 2.2 4.1 3 6.3 1.7 2.2-1.3 3-4.1 1.7-6.3-1.3-2.2-4.1-3-6.3-1.7-2.2 1.2-3 4-1.7 6.3m16.9 21.9c1.8 1.8 4.8 1.8 6.6 0s1.8-4.7 0-6.6c-1.8-1.8-4.8-1.8-6.6 0-1.9 1.9-1.9 4.8 0 6.6m21.9 16.8c2.2 1.3 5.1.5 6.3-1.7 1.3-2.2.5-5.1-1.7-6.3-2.2-1.3-5.1-.5-6.3 1.7-1.3 2.2-.5 5.1 1.7 6.3m25.6 10.6c2.5.7 5-.8 5.7-3.3.7-2.5-.8-5-3.3-5.7-2.5-.7-5 .8-5.7 3.3-.6 2.5.8 5.1 3.3 5.7m27.4 3.6c2.6 0 4.6-2.1 4.6-4.6 0-2.6-2.1-4.6-4.6-4.6s-4.6 2.1-4.6 4.6c0 2.6 2.1 4.6 4.6 4.6m27.5-3.6c2.5-.7 3.9-3.2 3.3-5.7s-3.2-3.9-5.7-3.3c-2.5.7-3.9 3.2-3.3 5.7.7 2.5 3.2 4 5.7 3.3m25.6-10.6c2.2-1.3 3-4.1 1.7-6.3-1.3-2.2-4.1-3-6.3-1.7-2.2 1.3-3 4.1-1.7 6.3 1.2 2.3 4.1 3 6.3 1.7m21.9-16.8c1.8-1.8 1.8-4.7 0-6.6s-4.8-1.8-6.6 0-1.8 4.7 0 6.6c1.9 1.8 4.8 1.8 6.6 0m16.9-22c1.3-2.2.5-5.1-1.7-6.3-2.2-1.3-5.1-.5-6.3 1.7-1.3 2.2-.5 5.1 1.7 6.3 2.2 1.3 5 .5 6.3-1.7m10.6-80.4c-.7-2.5-3.2-3.9-5.7-3.3-2.5.7-3.9 3.2-3.3 5.7.7 2.5 3.2 3.9 5.7 3.3 2.5-.7 4-3.2 3.3-5.7m0 54.9c.7-2.5-.8-5-3.3-5.7-2.5-.7-5 .8-5.7 3.3-.7 2.5.8 5 3.3 5.7 2.5.6 5-.9 5.7-3.3m3.6-27.5c0-2.6-2.1-4.6-4.6-4.6-2.6 0-4.6 2.1-4.6 4.6 0 2.6 2.1 4.6 4.6 4.6 2.5.1 4.6-2 4.6-4.6m-14.2-53c-1.3-2.2-4.1-3-6.3-1.7s-3 4.1-1.7 6.3c1.3 2.2 4.1 3 6.3 1.7s3-4.1 1.7-6.3m-16.8-21.9c-1.8-1.8-4.8-1.8-6.6 0s-1.8 4.7 0 6.6 4.8 1.8 6.6 0c1.8-1.9 1.8-4.8 0-6.6m-22-16.9c-2.2-1.3-5.1-.5-6.3 1.7-1.3 2.2-.5 5.1 1.7 6.3 2.2 1.3 5.1.5 6.3-1.7 1.3-2.2.5-5-1.7-6.3m-25.6-10.6c-2.5-.7-5 .8-5.7 3.3-.7 2.5.8 5 3.3 5.7 2.5.7 5-.8 5.7-3.3.7-2.5-.8-5-3.3-5.7m-27.4-3.6c-2.6 0-4.6 2.1-4.6 4.6 0 2.6 2.1 4.6 4.6 4.6s4.6-2.1 4.6-4.6-2.1-4.6-4.6-4.6m-53.1 14.2c-2.2 1.3-3 4.1-1.7 6.3s4.1 3 6.3 1.7 3-4.1 1.7-6.3c-1.2-2.2-4-2.9-6.3-1.7m25.6-10.5c-2.5.7-3.9 3.2-3.3 5.7s3.2 3.9 5.7 3.3 3.9-3.2 3.3-5.7-3.2-4-5.7-3.3m-47.5 27.4c-1.8 1.8-1.8 4.7 0 6.6s4.8 1.8 6.6 0c1.8-1.8 1.8-4.7 0-6.6s-4.8-1.8-6.6 0m-16.9 22c-1.3 2.2-.5 5.1 1.7 6.3 2.2 1.3 5.1.5 6.3-1.7 1.3-2.2.5-5.1-1.7-6.3s-5-.6-6.3 1.7m-10.6 25.5c-.7 2.5.8 5 3.3 5.7 2.5.7 5-.8 5.7-3.3.7-2.5-.8-5-3.3-5.7-2.5-.6-5 .8-5.7 3.3m-3.6 27.5c0 2.6 2.1 4.6 4.6 4.6 2.6 0 4.6-2.1 4.6-4.6 0-2.6-2.1-4.6-4.6-4.6-2.5-.1-4.6 2-4.6 4.6" fill="#fff"/><ellipse transform="matrix(-.5-.866.866-.5 6042.7 3714.8)" cx="4093.7" cy="113" rx="10.4" ry="10.4" fill="none" stroke="#fff" stroke-width="2" stroke-miterlimit="10"/><path d="m4093.8 108.5c2.6 0 4.6 2.1 4.6 4.6s-2.1 4.6-4.6 4.6c-2.6 0-4.6-2.1-4.6-4.6s2-4.6 4.6-4.6m-1 32.1c.7 2.5 3.2 3.9 5.7 3.3 2.5-.7 3.9-3.2 3.3-5.7s-3.2-3.9-5.7-3.3c-2.5.6-4 3.2-3.3 5.7m10.6 25.5c1.3 2.2 4.1 3 6.3 1.7 2.2-1.3 3-4.1 1.7-6.3s-4.1-3-6.3-1.7-3 4.1-1.7 6.3m16.8 22c1.8 1.8 4.8 1.8 6.6 0s1.8-4.7 0-6.6c-1.8-1.8-4.8-1.8-6.6 0-1.8 1.8-1.8 4.8 0 6.6m22 16.8c2.2 1.3 5.1.5 6.3-1.7 1.3-2.2.5-5.1-1.7-6.3-2.2-1.3-5.1-.5-6.3 1.7s-.5 5 1.7 6.3m25.6 10.6c2.5.7 5-.8 5.7-3.3.7-2.5-.8-5-3.3-5.7s-5 .8-5.7 3.3.8 5.1 3.3 5.7m27.4 3.6c2.6 0 4.6-2.1 4.6-4.6 0-2.6-2.1-4.6-4.6-4.6-2.6 0-4.6 2.1-4.6 4.6 0 2.6 2.1 4.6 4.6 4.6m27.5-3.6c2.5-.7 3.9-3.2 3.3-5.7-.7-2.5-3.2-3.9-5.7-3.3s-3.9 3.2-3.3 5.7 3.2 4 5.7 3.3m25.6-10.6c2.2-1.3 3-4.1 1.7-6.3s-4.1-3-6.3-1.7c-2.2 1.3-3 4.1-1.7 6.3 1.2 2.2 4 3 6.3 1.7m21.9-16.8c1.8-1.8 1.8-4.7 0-6.6-1.8-1.8-4.8-1.8-6.6 0-1.8 1.8-1.8 4.7 0 6.6s4.8 1.8 6.6 0m31.1-75c0-2.6-2.1-4.6-4.6-4.6-2.6 0-4.6 2.1-4.6 4.6s2.1 4.6 4.6 4.6c2.5.1 4.6-2 4.6-4.6m-14.2 53c1.3-2.2.5-5.1-1.7-6.3s-5.1-.5-6.3 1.7-.5 5.1 1.7 6.3c2.2 1.3 5 .5 6.3-1.7m10.6-25.5c.7-2.5-.8-5-3.3-5.7s-5 .8-5.7 3.3.8 5 3.3 5.7c2.5.6 5-.9 5.7-3.3m0-54.9c-.7-2.5-3.2-3.9-5.7-3.3-2.5.7-3.9 3.2-3.3 5.7s3.2 3.9 5.7 3.3c2.5-.7 3.9-3.2 3.3-5.7m-10.6-25.6c-1.3-2.2-4.1-3-6.3-1.7-2.2 1.3-3 4.1-1.7 6.3 1.3 2.2 4.1 3 6.3 1.7 2.2-1.2 3-4.1 1.7-6.3m-16.9-21.9c-1.8-1.8-4.8-1.8-6.6 0s-1.8 4.7 0 6.6 4.8 1.8 6.6 0c1.8-1.9 1.8-4.8 0-6.6m-21.9-16.9c-2.2-1.3-5.1-.5-6.3 1.7-1.3 2.2-.5 5.1 1.7 6.3s5.1.5 6.3-1.7.5-5-1.7-6.3m-25.6-10.6c-2.5-.7-5 .8-5.7 3.3s.8 5 3.3 5.7c2.5.7 5-.8 5.7-3.3.6-2.5-.9-5-3.3-5.7m-54.9 0c-2.5.7-3.9 3.2-3.3 5.7.7 2.5 3.2 3.9 5.7 3.3 2.5-.7 3.9-3.2 3.3-5.7-.7-2.5-3.3-3.9-5.7-3.3m27.4-3.6c-2.6 0-4.6 2.1-4.6 4.6s2.1 4.6 4.6 4.6c2.6 0 4.6-2.1 4.6-4.6s-2-4.6-4.6-4.6m-53 14.2c-2.2 1.3-3 4.1-1.7 6.3s4.1 3 6.3 1.7c2.2-1.3 3-4.1 1.7-6.3-1.3-2.2-4.1-2.9-6.3-1.7m-22 16.9c-1.8 1.8-1.8 4.7 0 6.6s4.8 1.8 6.6 0 1.8-4.7 0-6.6-4.8-1.8-6.6 0m-16.8 21.9c-1.3 2.2-.5 5.1 1.7 6.3 2.2 1.3 5.1.5 6.3-1.7 1.3-2.2.5-5.1-1.7-6.3-2.2-1.2-5.1-.5-6.3 1.7m-10.6 25.6c-.7 2.5.8 5 3.3 5.7 2.5.7 5-.8 5.7-3.3s-.8-5-3.3-5.7c-2.5-.6-5.1.8-5.7 3.3" fill="#fff"/><ellipse transform="matrix(-.259-.966.966-.259 5359.1 4285.7)" cx="4323.8" cy="86.8" rx="10.4" ry="10.4" fill="none" stroke="#fff" stroke-width="2" stroke-miterlimit="10"/><path d="m4325.1 82.4c2.5.7 3.9 3.2 3.3 5.7s-3.2 3.9-5.7 3.3c-2.5-.7-3.9-3.2-3.3-5.7.7-2.5 3.2-4 5.7-3.3m-9.3 30.7c0 2.6 2.1 4.6 4.6 4.6s4.6-2.1 4.6-4.6-2.1-4.6-4.6-4.6c-2.5 0-4.6 2.1-4.6 4.6m3.6 27.5c.7 2.5 3.2 3.9 5.7 3.3 2.5-.7 3.9-3.2 3.3-5.7-.7-2.5-3.2-3.9-5.7-3.3-2.5.6-4 3.2-3.3 5.7m10.6 25.5c1.3 2.2 4.1 3 6.3 1.7 2.2-1.3 3-4.1 1.7-6.3-1.3-2.2-4.1-3-6.3-1.7-2.2 1.3-3 4.1-1.7 6.3m16.9 22c1.8 1.8 4.8 1.8 6.6 0 1.8-1.8 1.8-4.7 0-6.6s-4.8-1.8-6.6 0c-1.8 1.8-1.8 4.8 0 6.6m21.9 16.8c2.2 1.3 5.1.5 6.3-1.7 1.3-2.2.5-5.1-1.7-6.3-2.2-1.3-5.1-.5-6.3 1.7-1.2 2.2-.5 5.1 1.7 6.3m25.6 10.6c2.5.7 5-.8 5.7-3.3s-.8-5-3.3-5.7-5 .8-5.7 3.3.8 5.1 3.3 5.7m27.5 3.6c2.6 0 4.6-2.1 4.6-4.6 0-2.6-2.1-4.6-4.6-4.6-2.6 0-4.6 2.1-4.6 4.6-.1 2.6 2 4.6 4.6 4.6m27.4-3.6c2.5-.7 3.9-3.2 3.3-5.7-.7-2.5-3.2-3.9-5.7-3.3-2.5.7-3.9 3.2-3.3 5.7.7 2.5 3.2 4 5.7 3.3m25.6-10.6c2.2-1.3 3-4.1 1.7-6.3-1.3-2.2-4.1-3-6.3-1.7-2.2 1.3-3 4.1-1.7 6.3s4.1 3 6.3 1.7m49.4-64.3c.7-2.5-.8-5-3.3-5.7-2.5-.7-5 .8-5.7 3.3s.8 5 3.3 5.7c2.5.6 5-.8 5.7-3.3m-27.4 47.5c1.8-1.8 1.8-4.7 0-6.6-1.8-1.8-4.8-1.8-6.6 0-1.8 1.8-1.8 4.7 0 6.6s4.7 1.8 6.6 0m16.8-21.9c1.3-2.2.5-5.1-1.7-6.3s-5.1-.5-6.3 1.7c-1.3 2.2-.5 5.1 1.7 6.3s5 .5 6.3-1.7m14.2-53c0-2.6-2.1-4.6-4.6-4.6-2.6 0-4.6 2.1-4.6 4.6s2.1 4.6 4.6 4.6c2.5 0 4.6-2.1 4.6-4.6m-3.6-27.5c-.7-2.5-3.2-3.9-5.7-3.3-2.5.7-3.9 3.2-3.3 5.7.7 2.5 3.2 3.9 5.7 3.3 2.5-.7 4-3.2 3.3-5.7m-10.6-25.5c-1.3-2.2-4.1-3-6.3-1.7-2.2 1.3-3 4.1-1.7 6.3 1.3 2.2 4.1 3 6.3 1.7 2.2-1.3 3-4.1 1.7-6.3m-16.9-22c-1.8-1.8-4.8-1.8-6.6 0s-1.8 4.7 0 6.6c1.8 1.8 4.8 1.8 6.6 0 1.8-1.9 1.8-4.8 0-6.6m-21.9-16.9c-2.2-1.3-5.1-.5-6.3 1.7-1.3 2.2-.5 5.1 1.7 6.3 2.2 1.3 5.1.5 6.3-1.7 1.2-2.1.5-5-1.7-6.3m-53.1-14.2c-2.6 0-4.6 2.1-4.6 4.6 0 2.6 2.1 4.6 4.6 4.6 2.6 0 4.6-2.1 4.6-4.6s-2-4.6-4.6-4.6m27.5 3.7c-2.5-.7-5 .8-5.7 3.3s.8 5 3.3 5.7 5-.8 5.7-3.3-.8-5.1-3.3-5.7m-54.9-.1c-2.5.7-3.9 3.2-3.3 5.7s3.2 3.9 5.7 3.3c2.5-.7 3.9-3.2 3.3-5.7-.7-2.5-3.2-3.9-5.7-3.3m-25.6 10.6c-2.2 1.3-3 4.1-1.7 6.3s4.1 3 6.3 1.7c2.2-1.3 3-4.1 1.7-6.3s-4.1-3-6.3-1.7m-22 16.9c-1.8 1.8-1.8 4.7 0 6.6s4.8 1.8 6.6 0c1.8-1.8 1.8-4.7 0-6.6-1.8-1.8-4.7-1.8-6.6 0m-16.8 21.9c-1.3 2.2-.5 5.1 1.7 6.3s5.1.5 6.3-1.7c1.3-2.2.5-5.1-1.7-6.3s-5-.5-6.3 1.7" fill="#fff"/><ellipse cx="4561" cy="62.3" rx="10.4" ry="10.4" fill="none" stroke="#fff" stroke-width="2" stroke-miterlimit="10"/><path d="m4563.3 58.4c2.2 1.3 3 4.1 1.7 6.3-1.3 2.2-4.1 3-6.3 1.7-2.2-1.3-3-4.1-1.7-6.3 1.2-2.2 4.1-2.9 6.3-1.7m-16.9 27.3c-.7 2.5.8 5 3.3 5.7 2.5.7 5-.8 5.7-3.3s-.8-5-3.3-5.7c-2.5-.6-5.1.8-5.7 3.3m-3.6 27.4c0 2.6 2.1 4.6 4.6 4.6s4.6-2.1 4.6-4.6c0-2.6-2.1-4.6-4.6-4.6s-4.6 2.1-4.6 4.6m3.6 27.5c.7 2.5 3.2 3.9 5.7 3.3 2.5-.7 3.9-3.2 3.3-5.7s-3.2-3.9-5.7-3.3c-2.5.7-4 3.2-3.3 5.7m10.6 25.5c1.3 2.2 4.1 3 6.3 1.7 2.2-1.3 3-4.1 1.7-6.3s-4.1-3-6.3-1.7c-2.2 1.3-3 4.1-1.7 6.3m16.9 22c1.8 1.8 4.8 1.8 6.6 0s1.8-4.7 0-6.6c-1.8-1.8-4.8-1.8-6.6 0s-1.9 4.8 0 6.6m21.9 16.9c2.2 1.3 5.1.5 6.3-1.7 1.3-2.2.5-5.1-1.7-6.3s-5.1-.5-6.3 1.7c-1.3 2.1-.5 5 1.7 6.3m25.6 10.6c2.5.7 5-.8 5.7-3.3.7-2.5-.8-5-3.3-5.7s-5 .8-5.7 3.3c-.6 2.5.8 5 3.3 5.7m27.4 3.6c2.6 0 4.6-2.1 4.6-4.6 0-2.6-2.1-4.6-4.6-4.6-2.6 0-4.6 2.1-4.6 4.6 0 2.5 2.1 4.6 4.6 4.6m27.5-3.6c2.5-.7 3.9-3.2 3.3-5.7s-3.2-3.9-5.7-3.3c-2.5.7-3.9 3.2-3.3 5.7.7 2.5 3.2 3.9 5.7 3.3m64.4-49.4c1.3-2.2.5-5.1-1.7-6.3s-5.1-.5-6.3 1.7c-1.3 2.2-.5 5.1 1.7 6.3 2.2 1.3 5 .5 6.3-1.7m-38.8 38.8c2.2-1.3 3-4.1 1.7-6.3-1.3-2.2-4.1-3-6.3-1.7-2.2 1.3-3 4.1-1.7 6.3s4 3 6.3 1.7m21.9-16.8c1.8-1.8 1.8-4.7 0-6.6-1.8-1.8-4.8-1.8-6.6 0s-1.8 4.7 0 6.6c1.9 1.8 4.8 1.8 6.6 0m27.5-47.6c.7-2.5-.8-5-3.3-5.7-2.5-.7-5 .8-5.7 3.3-.7 2.5.8 5 3.3 5.7s5-.8 5.7-3.3m3.6-27.4c0-2.6-2.1-4.6-4.6-4.6-2.6 0-4.6 2.1-4.6 4.6 0 2.6 2.1 4.6 4.6 4.6 2.5 0 4.6-2 4.6-4.6m-3.7-27.4c-.7-2.5-3.2-3.9-5.7-3.3-2.5.7-3.9 3.2-3.3 5.7.7 2.5 3.2 3.9 5.7 3.3 2.5-.7 4-3.3 3.3-5.7m-10.6-25.6c-1.3-2.2-4.1-3-6.3-1.7-2.2 1.3-3 4.1-1.7 6.3 1.3 2.2 4.1 3 6.3 1.7 2.3-1.3 3-4.1 1.7-6.3m-16.8-22c-1.8-1.8-4.8-1.8-6.6 0s-1.8 4.7 0 6.6c1.8 1.8 4.8 1.8 6.6 0s1.8-4.8 0-6.6m-47.6-27.4c-2.5-.7-5 .8-5.7 3.3-.7 2.5.8 5 3.3 5.7 2.5.7 5-.8 5.7-3.3.7-2.5-.8-5.1-3.3-5.7m25.6 10.6c-2.2-1.3-5.1-.5-6.3 1.7s-.5 5.1 1.7 6.3 5.1.5 6.3-1.7c1.3-2.2.5-5.1-1.7-6.3m-53-14.3c-2.6 0-4.6 2.1-4.6 4.6 0 2.6 2.1 4.6 4.6 4.6 2.6 0 4.6-2.1 4.6-4.6 0-2.5-2-4.6-4.6-4.6m-27.5 3.7c-2.5.7-3.9 3.2-3.3 5.7s3.2 3.9 5.7 3.3c2.5-.7 3.9-3.2 3.3-5.7s-3.2-4-5.7-3.3m-25.5 10.5c-2.2 1.3-3 4.1-1.7 6.3s4.1 3 6.3 1.7c2.2-1.3 3-4.1 1.7-6.3s-4.1-2.9-6.3-1.7m-22 16.9c-1.8 1.8-1.8 4.7 0 6.6 1.8 1.8 4.8 1.8 6.6 0 1.8-1.8 1.8-4.7 0-6.6s-4.8-1.8-6.6 0" fill="#fff"/><ellipse transform="matrix(.259-.966.966.259 3520.6 4670.9)" cx="4803.9" cy="41.4" rx="10.4" ry="10.4" fill="none" stroke="#fff" stroke-width="2" stroke-miterlimit="10"/><path d="m4807.2 38.2c1.8 1.8 1.8 4.8 0 6.6-1.8 1.8-4.8 1.8-6.6 0s-1.8-4.8 0-6.6c1.8-1.8 4.7-1.8 6.6 0m-23.5 22c-1.3 2.2-.5 5.1 1.7 6.3 2.2 1.3 5.1.5 6.3-1.7 1.3-2.2.5-5.1-1.7-6.3-2.1-1.3-5-.6-6.3 1.7m-10.5 25.5c-.7 2.5.8 5 3.3 5.7 2.5.7 5-.8 5.7-3.3.7-2.5-.8-5-3.3-5.7-2.5-.6-5.1.9-5.7 3.3m-3.6 27.5c0 2.6 2.1 4.6 4.6 4.6s4.6-2.1 4.6-4.6c0-2.6-2.1-4.6-4.6-4.6s-4.6 2-4.6 4.6m3.6 27.4c.7 2.5 3.2 3.9 5.7 3.3 2.5-.7 3.9-3.2 3.3-5.7s-3.2-3.9-5.7-3.3-4 3.2-3.3 5.7m10.6 25.6c1.3 2.2 4.1 3 6.3 1.7 2.2-1.3 3-4.1 1.7-6.3s-4.1-3-6.3-1.7-3 4.1-1.7 6.3m16.8 22c1.8 1.8 4.8 1.8 6.6 0 1.8-1.8 1.8-4.8 0-6.6-1.8-1.8-4.8-1.8-6.6 0-1.8 1.8-1.8 4.7 0 6.6m22 16.8c2.2 1.3 5.1.5 6.3-1.7 1.3-2.2.5-5.1-1.7-6.3-2.2-1.3-5.1-.5-6.3 1.7-1.3 2.2-.5 5 1.7 6.3m25.6 10.6c2.5.7 5-.8 5.7-3.3.7-2.5-.8-5-3.3-5.7-2.5-.7-5 .8-5.7 3.3s.8 5.1 3.3 5.7m27.4 3.6c2.6 0 4.6-2.1 4.6-4.6s-2.1-4.6-4.6-4.6c-2.6 0-4.6 2.1-4.6 4.6s2.1 4.6 4.6 4.6m75-31c1.8-1.8 1.8-4.8 0-6.6-1.8-1.8-4.8-1.8-6.6 0-1.8 1.8-1.8 4.8 0 6.6 1.8 1.8 4.8 1.8 6.6 0m-47.5 27.4c2.5-.7 3.9-3.2 3.3-5.7-.7-2.5-3.2-3.9-5.7-3.3-2.5.7-3.9 3.2-3.3 5.7.6 2.5 3.2 4 5.7 3.3m25.5-10.6c2.2-1.3 3-4.1 1.7-6.3-1.3-2.2-4.1-3-6.3-1.7s-3 4.1-1.7 6.3 4.1 3 6.3 1.7m38.8-38.7c1.3-2.2.5-5.1-1.7-6.3-2.2-1.3-5.1-.5-6.3 1.7-1.3 2.2-.5 5.1 1.7 6.3 2.2 1.2 5.1.5 6.3-1.7m10.6-25.6c.7-2.5-.8-5-3.3-5.7-2.5-.7-5 .8-5.7 3.3-.7 2.5.8 5 3.3 5.7 2.5.6 5.1-.8 5.7-3.3m3.6-27.5c0-2.6-2.1-4.6-4.6-4.6s-4.6 2.1-4.6 4.6 2.1 4.6 4.6 4.6 4.6-2 4.6-4.6m-3.6-27.4c-.7-2.5-3.2-3.9-5.7-3.3s-3.9 3.2-3.3 5.7c.7 2.5 3.2 3.9 5.7 3.3 2.5-.7 4-3.2 3.3-5.7m-10.6-25.6c-1.3-2.2-4.1-3-6.3-1.7-2.2 1.3-3 4.1-1.7 6.3s4.1 3 6.3 1.7 3-4.1 1.7-6.3m-38.8-38.8c-2.2-1.3-5.1-.5-6.3 1.7s-.5 5.1 1.7 6.3c2.2 1.3 5.1.5 6.3-1.7s.5-5-1.7-6.3m21.9 16.9c-1.8-1.8-4.8-1.8-6.6 0-1.8 1.8-1.8 4.8 0 6.6s4.8 1.8 6.6 0c1.9-1.9 1.9-4.8 0-6.6m-47.5-27.5c-2.5-.7-5 .8-5.7 3.3s.8 5 3.3 5.7c2.5.7 5-.8 5.7-3.3s-.8-5-3.3-5.7m-27.4-3.6c-2.6 0-4.6 2.1-4.6 4.6 0 2.6 2.1 4.6 4.6 4.6 2.6 0 4.6-2.1 4.6-4.6 0-2.5-2.1-4.6-4.6-4.6m-27.5 3.6c-2.5.7-3.9 3.2-3.3 5.7s3.2 3.9 5.7 3.3 3.9-3.2 3.3-5.7-3.2-4-5.7-3.3m-25.6 10.6c-2.2 1.3-3 4.1-1.7 6.3s4.1 3 6.3 1.7c2.2-1.3 3-4.1 1.7-6.3s-4-3-6.3-1.7" fill="#fff"/><ellipse transform="matrix(.5-.866.866.5 2503.9 4387.5)" cx="5051.7" cy="25.3" rx="10.4" ry="10.4" fill="none" stroke="#fff" stroke-width="2" stroke-miterlimit="10"/><path d="m5055.7 23.1c1.3 2.2.5 5.1-1.7 6.3-2.2 1.3-5.1.5-6.3-1.7s-.5-5.1 1.7-6.3c2.1-1.3 5-.5 6.3 1.7m-28.3 15.2c-1.8 1.8-1.8 4.8 0 6.6s4.8 1.8 6.6 0c1.8-1.8 1.8-4.8 0-6.6-1.9-1.9-4.8-1.9-6.6 0m-16.9 21.9c-1.3 2.2-.5 5.1 1.7 6.3 2.2 1.3 5.1.5 6.3-1.7 1.3-2.2.5-5.1-1.7-6.3s-5-.5-6.3 1.7m-10.5 25.6c-.7 2.5.8 5 3.3 5.7s5-.8 5.7-3.3c.7-2.5-.8-5-3.3-5.7s-5.1.8-5.7 3.3m-3.7 27.4c0 2.6 2.1 4.6 4.6 4.6s4.6-2.1 4.6-4.6c0-2.6-2.1-4.6-4.6-4.6-2.5 0-4.6 2.1-4.6 4.6m3.7 27.5c.7 2.5 3.2 3.9 5.7 3.3s3.9-3.2 3.3-5.7c-.7-2.5-3.2-3.9-5.7-3.3s-4 3.2-3.3 5.7m10.6 25.6c1.3 2.2 4.1 3 6.3 1.7 2.2-1.3 3-4.1 1.7-6.3s-4.1-3-6.3-1.7c-2.3 1.2-3 4-1.7 6.3m16.8 21.9c1.8 1.8 4.8 1.8 6.6 0 1.8-1.8 1.8-4.8 0-6.6-1.8-1.8-4.8-1.8-6.6 0-1.8 1.9-1.8 4.8 0 6.6m22 16.9c2.2 1.3 5.1.5 6.3-1.7 1.3-2.2.5-5.1-1.7-6.3-2.2-1.3-5.1-.5-6.3 1.7s-.5 5 1.7 6.3m25.6 10.6c2.5.7 5-.8 5.7-3.3.7-2.5-.8-5-3.3-5.7-2.5-.7-5 .8-5.7 3.3-.7 2.5.8 5 3.3 5.7m80.4-10.6c2.2-1.3 3-4.1 1.7-6.3s-4.1-3-6.3-1.7c-2.2 1.3-3 4.1-1.7 6.3 1.2 2.2 4.1 3 6.3 1.7m-53 14.2c2.6 0 4.6-2.1 4.6-4.6 0-2.6-2.1-4.6-4.6-4.6-2.6 0-4.6 2.1-4.6 4.6 0 2.5 2 4.6 4.6 4.6m27.4-3.6c2.5-.7 3.9-3.2 3.3-5.7-.7-2.5-3.2-3.9-5.7-3.3s-3.9 3.2-3.3 5.7c.7 2.5 3.3 4 5.7 3.3m47.5-27.4c1.8-1.8 1.8-4.8 0-6.6-1.8-1.8-4.8-1.8-6.6 0-1.8 1.8-1.8 4.8 0 6.6 1.9 1.8 4.8 1.8 6.6 0m16.9-22c1.3-2.2.5-5.1-1.7-6.3-2.2-1.3-5.1-.5-6.3 1.7-1.3 2.2-.5 5.1 1.7 6.3 2.2 1.3 5 .5 6.3-1.7m10.6-25.6c.7-2.5-.8-5-3.3-5.7-2.5-.7-5 .8-5.7 3.3-.7 2.5.8 5 3.3 5.7 2.5.7 5-.8 5.7-3.3m3.6-27.4c0-2.6-2.1-4.6-4.6-4.6-2.6 0-4.6 2.1-4.6 4.6 0 2.6 2.1 4.6 4.6 4.6 2.5 0 4.6-2 4.6-4.6m-3.6-27.5c-.7-2.5-3.2-3.9-5.7-3.3-2.5.7-3.9 3.2-3.3 5.7.7 2.5 3.2 3.9 5.7 3.3 2.5-.6 3.9-3.2 3.3-5.7m-27.5-47.5c-1.8-1.8-4.8-1.8-6.6 0-1.8 1.8-1.8 4.8 0 6.6 1.8 1.8 4.8 1.8 6.6 0s1.8-4.8 0-6.6m16.9 22c-1.3-2.2-4.1-3-6.3-1.7-2.2 1.3-3 4.1-1.7 6.3 1.3 2.2 4.1 3 6.3 1.7 2.2-1.3 2.9-4.1 1.7-6.3m-38.9-38.9c-2.2-1.3-5.1-.5-6.3 1.7s-.5 5.1 1.7 6.3c2.2 1.3 5.1.5 6.3-1.7s.6-5-1.7-6.3m-25.5-10.6c-2.5-.7-5 .8-5.7 3.3s.8 5 3.3 5.7 5-.8 5.7-3.3c.6-2.5-.9-5-3.3-5.7m-27.5-3.6c-2.6 0-4.6 2.1-4.6 4.6 0 2.6 2.1 4.6 4.6 4.6s4.6-2.1 4.6-4.6c.1-2.5-2-4.6-4.6-4.6m-27.4 3.6c-2.5.7-3.9 3.2-3.3 5.7.7 2.5 3.2 3.9 5.7 3.3 2.5-.7 3.9-3.2 3.3-5.7-.7-2.5-3.2-3.9-5.7-3.3" fill="#fff"/><ellipse transform="matrix(.707-.707.707.707 1542.4 3754.2)" cx="5303" cy="15.2" rx="10.4" ry="10.4" fill="none" stroke="#fff" stroke-width="2" stroke-miterlimit="10"/><path d="m5307.4 14.2c.7 2.5-.8 5-3.3 5.7-2.5.7-5-.8-5.7-3.3s.8-5 3.3-5.7c2.5-.7 5 .8 5.7 3.3m-31.3 7.3c-2.2 1.3-3 4.1-1.7 6.3 1.3 2.2 4.1 3 6.3 1.7s3-4.1 1.7-6.3-4.1-3-6.3-1.7m-21.9 16.8c-1.8 1.8-1.8 4.8 0 6.6 1.8 1.8 4.8 1.8 6.6 0s1.8-4.8 0-6.6c-1.9-1.8-4.8-1.8-6.6 0m-16.9 22c-1.3 2.2-.5 5.1 1.7 6.3 2.2 1.3 5.1.5 6.3-1.7s.5-5.1-1.7-6.3c-2.2-1.3-5-.5-6.3 1.7m-10.6 25.6c-.7 2.5.8 5 3.3 5.7s5-.8 5.7-3.3c.7-2.5-.8-5-3.3-5.7-2.5-.7-5 .8-5.7 3.3m-3.6 27.4c0 2.6 2.1 4.6 4.6 4.6 2.6 0 4.6-2.1 4.6-4.6s-2.1-4.6-4.6-4.6c-2.5 0-4.6 2-4.6 4.6m3.6 27.5c.7 2.5 3.2 3.9 5.7 3.3 2.5-.7 3.9-3.2 3.3-5.7-.7-2.5-3.2-3.9-5.7-3.3-2.4.6-3.9 3.2-3.3 5.7m10.6 25.5c1.3 2.2 4.1 3 6.3 1.7s3-4.1 1.7-6.3c-1.3-2.2-4.1-3-6.3-1.7s-2.9 4.1-1.7 6.3m16.9 22c1.8 1.8 4.7 1.8 6.6 0 1.8-1.8 1.8-4.8 0-6.6-1.8-1.8-4.7-1.8-6.6 0-1.8 1.9-1.8 4.8 0 6.6m21.9 16.9c2.2 1.3 5.1.5 6.3-1.7s.5-5.1-1.7-6.3c-2.2-1.3-5.1-.5-6.3 1.7s-.5 5 1.7 6.3m80.5 10.6c2.5-.7 3.9-3.2 3.3-5.7-.7-2.5-3.2-3.9-5.7-3.3-2.5.7-3.9 3.2-3.3 5.7.7 2.5 3.2 3.9 5.7 3.3m-54.9 0c2.5.7 5-.8 5.7-3.3s-.8-5-3.3-5.7c-2.5-.7-5 .8-5.7 3.3-.6 2.5.8 5 3.3 5.7m27.5 3.6c2.6 0 4.6-2.1 4.6-4.6 0-2.6-2.1-4.6-4.6-4.6-2.6 0-4.6 2.1-4.6 4.6-.1 2.5 2 4.6 4.6 4.6m53-14.2c2.2-1.3 3-4.1 1.7-6.3-1.3-2.2-4.1-3-6.3-1.7s-3 4.1-1.7 6.3c1.2 2.2 4 3 6.3 1.7m21.9-16.9c1.8-1.8 1.8-4.8 0-6.6-1.8-1.8-4.7-1.8-6.6 0-1.8 1.8-1.8 4.8 0 6.6 1.9 1.8 4.8 1.8 6.6 0m16.8-21.9c1.3-2.2.5-5.1-1.7-6.3-2.2-1.3-5.1-.5-6.3 1.7s-.5 5.1 1.7 6.3c2.2 1.2 5.1.5 6.3-1.7m10.6-25.6c.7-2.5-.8-5-3.3-5.7s-5 .8-5.7 3.3c-.7 2.5.8 5 3.3 5.7s5.1-.8 5.7-3.3m3.6-27.5c0-2.6-2.1-4.6-4.6-4.6-2.6 0-4.6 2.1-4.6 4.6s2.1 4.6 4.6 4.6c2.6.1 4.6-2 4.6-4.6m-14.2-53c-1.3-2.2-4.1-3-6.3-1.7s-3 4.1-1.7 6.3c1.3 2.2 4.1 3 6.3 1.7s3-4.1 1.7-6.3m10.6 25.6c-.7-2.5-3.2-3.9-5.7-3.3-2.5.7-3.9 3.2-3.3 5.7.7 2.5 3.2 3.9 5.7 3.3 2.5-.7 4-3.2 3.3-5.7m-27.4-47.6c-1.8-1.8-4.7-1.8-6.6 0s-1.8 4.8 0 6.6c1.8 1.8 4.7 1.8 6.6 0 1.8-1.8 1.8-4.8 0-6.6m-22-16.8c-2.2-1.3-5.1-.5-6.3 1.7s-.5 5.1 1.7 6.3c2.2 1.3 5.1.5 6.3-1.7s.5-5-1.7-6.3m-25.5-10.6c-2.5-.7-5 .8-5.7 3.3-.7 2.5.8 5 3.3 5.7s5-.8 5.7-3.3c.6-2.5-.9-5.1-3.3-5.7m-27.5-3.6c-2.6 0-4.6 2.1-4.6 4.6s2.1 4.6 4.6 4.6c2.6 0 4.6-2.1 4.6-4.6s-2-4.6-4.6-4.6" fill="#fff"/></svg>