<svg version="1.1" xmlns="http://www.w3.org/2000/svg" xmlns:xlink="http://www.w3.org/1999/xlink" x="0px" y="0px" width="311.8px" height="411px" viewBox="0 0 311.8 411" xml:space="preserve">

	<defs>
		<style type="text/css">@import url('../../stylesheets/css/sspace.css')</style>
	</defs>

	<style type="text/css">
		svg{font-size: 62.5%;}
		.st3{fill:#FFFFFF;}
		.st27{fill:#363664;}
		.st28{font-family:'Cabin'; font-weight: 600;}
		.st29{font-size:4.2rem;}
		.st33{fill:none;stroke:#FFFFFF;stroke-width:3.5;stroke-miterlimit:10;}
	</style>

	<g id="quitter">
		<path class="st3" d="M303.8,8v281.6H8V8H303.8 M311.8,0H0v297.6h311.8V0L311.8,0z"/>
		<rect x="0" y="297.6" class="st3" width="311.8" height="113.4"/>
		<text transform="matrix(1 0 0 1 42.5189 364.1578)" class="st27 st28 st29">Quitter</text>
		<path class="st33" d="M138.3,193.1v-13.9h-20.8 M186.4,151c1.8-1,3.3-0.2,3.3,1.9c0,2.1-1.4,4.6-3.2,5.6c-1.8,1-3.3,0.2-3.3-1.9C183.2,154.5,184.7,152,186.4,151 M155.9,193.1l38.4-22.2v-44.3l-38.4,22.1V193.1L155.9,193.1z M117.5,170.9v-44.3l38.4,22.1"/>
	</g>

</svg>