<svg version="1.1" xmlns="http://www.w3.org/2000/svg" xmlns:xlink="http://www.w3.org/1999/xlink" x="0px" y="0px" width="311.8px" height="411px" viewBox="0 0 311.8 411" xml:space="preserve">

	<defs>
		<style type="text/css">@import url('../../stylesheets/css/sspace.css')</style>
	</defs>

<style type="text/css">
	svg{font-size: 62.5%;}
	.st3{fill:#FFFFFF;}
	.st27{fill:#363664;}
	.st28{font-family:'Cabin'; font-weight: 600;}
	.st29{font-size:4.2rem;}
	.st30{fill:none;stroke:#FFFFFF;stroke-width:3;stroke-miterlimit:10;}
</style>

<g id="vrboard">
	<path class="st3" d="M303.8,8v281.6H8V8H303.8 M311.8,0H0v297.6h311.8V0L311.8,0z"/>
	<rect x="0" y="297.6" class="st3" width="311.8" height="113.4"/>
	<text transform="matrix(1 0 0 1 42.5185 364.1579)" class="st27 st28 st29">vrBoard</text>
	<path id="sspace_1_" class="st30" d="M165.4,120.7c5.7,0.3,11.1,0.9,16.1,1.6v25c-5-0.8-10.4-1.3-16.1-1.6V120.7z M118.1,201c10,2.8,23.3,4.5,37.8,4.5c3.2,0,6.4-0.1,9.4-0.2v-14.2c-3.1,0.2-6.2,0.2-9.4,0.2c-14.5,0-27.8-1.7-37.8-4.5V201z M146.5,106.5c3.1-0.2,6.2-0.2,9.4-0.2c6.6,0,13,0.4,18.9,1V93.1c-5.9-0.6-12.3-1-18.9-1c-3.2,0-6.4,0.1-9.4,0.2V106.5z M189,173.8c14.3,3.2,23.6,8.3,23.6,14.2v-39.2c0-5.8-9.3-11-23.6-14.2V173.8z M174.8,165.3v39.2c22-2.4,37.8-8.9,37.8-16.5v-39.2c0,5.8-9.3,11-23.6,14.2C184.7,163.9,179.9,164.7,174.8,165.3z M99.2,109.6v39.2c0-7.6,15.8-14.1,37.8-16.5V93.1C115,95.5,99.2,102,99.2,109.6z M99.2,148.8c0,9.7,25.4,17.5,56.7,17.5V127c-6.6,0-13-0.4-18.9-1c-22-2.4-37.8-8.9-37.8-16.5V148.8z"/>
</g>

</svg>