<svg version="1.1" xmlns="http://www.w3.org/2000/svg" width="4989" height="286.3" viewBox="0 0 4989 286.3" enable-background="new 0 0 4989 286.3"><path d="m3746.2 110.2c20.1 0 36.5 16.4 36.5 36.5s-16.4 36.5-36.5 36.5c-20.1 0-36.5-16.4-36.5-36.5s16.4-36.5 36.5-36.5m0-6c-23.5 0-42.5 19-42.5 42.5 0 23.5 19 42.5 42.5 42.5s42.5-19 42.5-42.5c.1-23.4-19-42.5-42.5-42.5zm3.5 48.3v16.7h-6.9v-16.7l-13.1-21.1h7.3l9.2 14.9 9.2-14.9h7.3l-13 21.1m341.9 13.7l-3.3-2.7c-2.8 2.1-6.2 3.1-9.9 3.1-9.6 0-16.6-6.9-16.6-17.5 0-10.6 7-17.5 16.6-17.5s16.6 6.9 16.6 17.5c0 4.1-1.1 7.8-3.2 10.8l3 2.4-3.2 3.9m-23.6-17c0 7 3.5 12.1 10.4 12.1 2 0 4-.4 5.6-1.4l-4.3-3.6 3.2-3.8 4.5 3.8c1.2-2.3 1.6-4.7 1.6-7.2 0-7-3.6-12.1-10.5-12.1-7 0-10.5 5.2-10.5 12.2m46.8 16.8l-.2-1.8c-1.4 1.3-3.5 2.3-5.7 2.3-6.9 0-9.7-4.3-9.7-11.2v-13.2h5.4v12.8c0 4.7 1.5 6.9 5 6.9 2 0 3.7-.7 4.8-2.2v-17.5h5.4v23.9h-5m10.7-28v-5.6h5.5v5.6h-5.5m0 28v-23.9h5.5v23.9h-5.5m23.2.4h-4.1c-4.5 0-6.3-3.1-6.3-6.1v-13.8h-3.6l.5-4.4h3.1v-5.4l5.4-.6v6h5.6v4.4h-5.6v11.3c0 3.9.3 4.1 4 4.1h1.5l-.5 4.5m16.4 0h-4.1c-4.5 0-6.3-3.1-6.3-6.1v-13.8h-3.6l.5-4.4h3.1v-5.4l5.4-.6v6h5.6v4.4h-5.6v11.3c0 3.9.3 4.1 4 4.1h1.5l-.5 4.5m8.6-11.5c.7 5.1 4.1 7 7.7 7 2.2 0 5.2-.8 7.2-1.8l.4 4.5c-1.8.9-4.6 1.8-8 1.8-8.6 0-12.9-5.7-12.9-12.4 0-6.6 4.1-12.3 11.5-12.3 6 0 10.4 3.9 10.4 10.3 0 1-.1 1.9-.3 3h-16zm.2-3.7h10.5c0-2.5-1.3-4.9-4.8-4.9-3.2 0-5 2-5.7 4.9m32.6-4.3h-2c-2 0-3.9 1.2-4.7 2.6v16.5h-5.6v-23.9h4.9l.3 3c1.7-1.9 4.1-3.5 6.9-3.5h1.2l-1 5.3m-194.9-36.7v73h-148.8v-73h148.8m6-6h-160.8v85h160.8v-85zm-134.6 57.1l.6-5.7c1.7 1.5 4.9 3.1 9.2 3.1 3.3 0 5.8-1 5.8-3.6 0-3.1-3.3-4.2-7.1-5.5-4.4-1.5-9-2.9-9-8.1 0-3.9 2.6-8.7 10.6-8.7 3.9 0 7.8 1.2 9.3 2.2l-.5 5.1c-3.1-1.6-5.7-2.6-8.6-2.6-2.5 0-5.8.8-5.8 3.5 0 2.5 2.8 3.4 6 4.5 4.7 1.4 10.4 3.1 10.4 9.5 0 3.3-1.4 8.4-11.4 8.4-4.2-.1-7.8-1.1-9.5-2.1m45.4 1.4v-13h-14.7v13h-5v-29.4h5v11.7h14.7v-11.7h5v29.4h-5m11.5 0v-29.4h5v29.4h-5m16.4-24.7v7h10.1v4.7h-10.1v13h-5v-29.4h18.1v4.7h-13.1m28 0v24.7h-5v-24.7h-8.4v-4.7h21.8v4.7h-8.4m-166.2-24.3h-2v66.2h2v-66.2" fill="#fff"/><path d="m2156 110.2c20.1 0 36.5 16.4 36.5 36.5s-16.4 36.5-36.5 36.5-36.5-16.4-36.5-36.5 16.4-36.5 36.5-36.5m0-6c-23.5 0-42.5 19-42.5 42.5s19 42.5 42.5 42.5 42.5-19 42.5-42.5-19-42.5-42.5-42.5zm9.5 60.2l-3.2-9.1h-12.6l-3.2 9.1h-7.2l13.4-37.8h6.5l13.4 37.8h-7.1m-9.5-26.9l-3.9 11.1h7.8l-3.9-11.1m222.3 26.7l.7-6.5c1.9 1.7 5.6 3.5 10.5 3.5 3.7 0 6.6-1.1 6.6-4.1 0-3.6-3.7-4.8-8.1-6.2-5-1.7-10.3-3.4-10.3-9.3 0-4.4 3-10 12.1-10 4.5 0 8.9 1.4 10.7 2.5l-.6 5.9c-3.5-1.9-6.5-3-9.8-3-2.9 0-6.6.9-6.6 4 0 2.8 3.2 3.9 6.9 5.1 5.4 1.6 11.9 3.5 11.9 10.9 0 3.7-1.6 9.6-13.1 9.6-4.9 0-9-1.2-10.9-2.4m32.6-9.3c.7 5.1 4.1 7 7.7 7 2.2 0 5.2-.8 7.2-1.8l.4 4.5c-1.8.9-4.6 1.8-8 1.8-8.6 0-12.9-5.7-12.9-12.4 0-6.6 4.1-12.3 11.5-12.3 6 0 10.4 3.9 10.4 10.3 0 1-.1 1.9-.3 3h-16zm.2-3.7h10.5c0-2.5-1.3-4.9-4.8-4.9-3.2-.1-5 1.9-5.7 4.9m.6-13.5v-3.1l9-4.4v4.5l-9 3m27.8 28.7h-1.9c-4.4 0-6.1-2.8-6.1-6.1v-30.4h5.5v27.9c0 3.9.5 4.1 3.1 4.1l-.6 4.5m8.2-11.5c.7 5.1 4.1 7 7.7 7 2.2 0 5.2-.8 7.2-1.8l.4 4.5c-1.8.9-4.6 1.8-8 1.8-8.6 0-12.9-5.7-12.9-12.4 0-6.6 4.1-12.3 11.5-12.3 6 0 10.4 3.9 10.4 10.3 0 1-.1 1.9-.3 3h-16zm.2-3.7h10.5c0-2.5-1.3-4.9-4.8-4.9-3.2-.1-5.1 1.9-5.7 4.9m18.9 2.8c0-6.8 3.9-12.4 11.7-12.4 3.7 0 5.7.8 7.2 1.7l-.6 4.7c-1.9-1.2-3.9-1.8-6.1-1.8-4.3 0-6.6 3.1-6.6 7.8 0 4.7 2.3 7.8 6.6 7.8 2.3 0 4.2-.6 6.2-1.8l.5 4.6c-1.5 1-3.4 1.8-7.2 1.8-7.8 0-11.7-5.7-11.7-12.4m35 12.4h-4.1c-4.5 0-6.3-3.1-6.3-6.1v-13.8h-3.6l.5-4.4h3.1v-5.4l5.4-.6v6h5.6v4.4h-5.6v11.3c0 3.9.3 4.1 4 4.1h1.5l-.5 4.5m4.4-28.5v-5.6h5.5v5.6h-5.5m0 28v-23.9h5.5v23.9h-5.5m9.8-11.9c0-6.7 4.4-12.4 12-12.4 7.6 0 12 5.7 12 12.4 0 6.8-4.4 12.4-12 12.4-7.6 0-12-5.6-12-12.4m5.5 0c0 4.8 2.4 7.8 6.4 7.8 4.1 0 6.4-3.1 6.4-7.8 0-4.7-2.4-7.8-6.4-7.8-4 0-6.4 3.1-6.4 7.8m38.5 11.9v-12.9c0-4.7-1.5-6.8-5.2-6.8-2.2 0-4 .8-5.1 2.4v17.3h-5.4v-23.9h4.9l.2 1.8c1.8-1.4 4-2.2 6-2.2 7.3 0 10 4.6 10 11.4v12.9h-5.4m26.6 0v-12.9c0-4.7-1.5-6.8-5.2-6.8-2.2 0-4 .8-5.1 2.4v17.3h-5.4v-23.9h4.9l.2 1.8c1.8-1.4 4-2.2 6-2.2 7.3 0 10 4.6 10 11.4v12.9h-5.4m15.1-11c.7 5.1 4.1 7 7.7 7 2.2 0 5.2-.8 7.2-1.8l.4 4.5c-1.8.9-4.6 1.8-8 1.8-8.6 0-12.9-5.7-12.9-12.4 0-6.6 4.1-12.3 11.5-12.3 6 0 10.4 3.9 10.4 10.3 0 1-.1 1.9-.3 3h-16zm.2-3.7h10.5c0-2.5-1.3-4.9-4.8-4.9-3.3-.1-5.1 1.9-5.7 4.9m32.5-4.4h-2c-2 0-3.9 1.2-4.7 2.6v16.5h-5.6v-23.9h4.9l.3 3c1.7-1.9 4.1-3.5 6.9-3.5h1.2l-1 5.3m-406.5-33.2h-2v66.2h2v-66.2" fill="#fff"/><path d="m2287.2 102.8v41.3c0 0-19.8 0-31 0 0-20.5 9.8-41.3 31-41.3" fill="#cf534d"/><path d="m2290.2 102.2v-.2h-2.9c0 0 0 0 0 0h-1c-17.2.6-30.9 14.7-30.9 32v28.1c0 17.7 14.3 32 32 32 17.7 0 32-14.3 32-32v-28.1c-.2-16.6-12.9-30.3-29.2-31.8m23 60c0 14.3-11.7 26-26 26s-26-11.7-26-26v-28.2c0-14 11.1-25.4 24.9-26v36h4v-35.9c13 1.5 23.1 12.5 23.1 25.8v28.3" fill="#fff"/><path d="m1484.9 179.8h-2v-66.2h2v66.2m333.4-13.8v-13.2c0-6.8-3.1-11.1-9.4-11.1-4.3 0-7.1 2-8.2 4-1.8-2.9-4.8-4-7.5-4-2.5 0-4.7 1-6.4 2.5l-.4-2.1h-4.4v23.9h5.4v-17.4c1.1-1.5 2.8-2.3 5-2.3 3.4 0 5 1.4 5 6.8v12.9h5.4v-14.4c0-2.5.8-5.2 5.2-5.2 3.5 0 4.8 2.1 4.8 6.5v13.1h5.5m15.9.4c7.6 0 12-5.6 12-12.4 0-6.7-4.4-12.4-12-12.4s-12 5.7-12 12.4c0 6.8 4.5 12.4 12 12.4m0-20.1c4.1 0 6.4 3.1 6.4 7.8 0 4.8-2.4 7.8-6.4 7.8s-6.4-3.1-6.4-7.8c0-4.8 2.4-7.8 6.4-7.8m37.9 19.7v-36h-5.5v13.8c-1.7-1.5-3.7-2.1-6.1-2.1-7.3 0-11.4 5.8-11.4 12.4 0 6.8 4.3 12.4 11.4 12.4 2.4 0 4.6-.8 6.3-2.4l.2 1.9h5.1m-11.2-19.7c3.7 0 6.1 3 6.1 7.8 0 4.9-2.4 7.8-6.1 7.8-3.9 0-6.2-3.3-6.2-7.8-.1-4.6 2.2-7.8 6.2-7.8m37 8.6c.2-1.1.3-2 .3-3 0-6.3-4.5-10.3-10.4-10.3-7.4 0-11.5 5.7-11.5 12.3 0 6.7 4.3 12.4 12.9 12.4 3.4 0 6.1-.9 8-1.8l-.4-4.5c-2 1-5 1.8-7.2 1.8-3.6 0-7-1.8-7.7-7h16zm-9.9-8.6c3.4 0 4.8 2.4 4.8 4.9h-10.5c.5-2.9 2.3-4.9 5.7-4.9m53.7-13.9h-5.9l-9.6 26.4-9.7-26.4h-5.9l12.3 33.6h6.7l12.1-33.6m29.2 33.6l-7.6-14.2c3.4-1.9 5.8-4.8 5.8-9.7 0-7.4-4.9-9.7-11.6-9.7h-11.9v33.6h5.7v-12.7h6.5l7.1 12.7h6m-14.4-28.9c5 0 6.6 2 6.6 5.3 0 3.6-1.8 5.6-6.4 5.6h-5.4v-10.9h5.2m-240.1-26.9h-186.8v73h186.8v-73m6-6v85h-198.8v-85h198.8zm-153.4 58.5v-4.7h-13.9v-8.3h10.5v-4.7h-10.5v-7h13.5v-4.7h-18.5v29.4h18.9m27.9 0v-29.4h-5v19.9l-13.1-19.9h-5v29.4h5v-21.1l14.1 21.1h4m25.8-24.7v-4.7h-21.8v4.7h8.4v24.7h5v-24.7h8.4m26.1 24.7l-6.7-12.4c2.9-1.7 5.1-4.2 5.1-8.5 0-6.5-4.3-8.5-10.1-8.5h-10.4v29.4h5v-11.1h5.7l6.2 11.1h5.2m-12.6-25.3c4.4 0 5.8 1.7 5.8 4.7 0 3.1-1.6 4.9-5.6 4.9h-4.7v-9.5h4.5zm35.4 25.3v-4.7h-13.9v-8.3h10.5v-4.7h-10.5v-7h13.5v-4.7h-18.5v29.4h18.9m26.9 0l-6.7-12.4c2.9-1.7 5.1-4.2 5.1-8.5 0-6.5-4.3-8.5-10.1-8.5h-10.4v29.4h5v-11.1h5.7l6.2 11.1h5.2m-12.6-25.3c4.4 0 5.8 1.7 5.8 4.7 0 3.1-1.6 4.9-5.6 4.9h-4.7v-9.5h4.5zm-262.3-16.5h-21.2c-14.3 0-25.9 11.6-25.9 25.9 0 14.3 11.6 25.9 25.9 25.9h21.2c14.3 0 25.9-11.6 25.9-25.9 0-14.3-11.6-25.9-25.9-25.9m0-6c17.6 0 31.9 14.3 31.9 31.9 0 17.6-14.3 31.9-31.9 31.9h-21.2c-17.6 0-31.9-14.3-31.9-31.9 0-17.6 14.3-31.9 31.9-31.9h21.2zm-21.8 21.7v20.4l21.5-10.2-21.5-10.2m-6-9.5l41.5 19.7-41.5 19.7v-39.4z" fill="#fff"/><path d="m2796.7 165.4v-37.8h6.9v31.1h15.6v6.7h-22.5m37.9-31.1v31.1h-6.9v-31.1h-10.7v-6.7h28.3v6.7h-10.7m17.4-37.7c.6 0 1 .5 1 1v99.4c0 .6-.5 1-1 1h-65.4c-.6 0-1-.5-1-1v-99.4c0-.6.5-1 1-1h65.4m0-6h-65.4c-3.9 0-7 3.1-7 7v99.4c0 3.9 3.1 7 7 7h65.4c3.9 0 7-3.1 7-7v-99.4c0-3.8-3.1-7-7-7zm89.7 74.8l-7.8-14h-7v14h-6.9v-37.8h13.8c7.3 0 13 2.7 13 10.9 0 5.8-2.9 8.8-6.4 11l8.5 15.9h-7.2m-14.8-32v11.5h5.1c6.3 0 7.6-2.5 7.6-5.9 0-3.5-1.4-5.6-7.3-5.6h-5.4m40.8.9v31.1h-6.9v-31.1h-10.7v-6.7h28.3v6.7h-10.7m12.5-37.7c.6 0 1 .5 1 1v99.4c0 .6-.5 1-1 1h-65.4c-.6 0-1-.5-1-1v-99.4c0-.6.5-1 1-1h65.4m0-6h-65.4c-3.9 0-7 3.1-7 7v99.4c0 3.9 3.1 7 7 7h65.4c3.9 0 7-3.1 7-7v-99.4c0-3.8-3.2-7-7-7zm-94.9 60.3v6.8h-4.7v-6.8h-7.3v-4.8h7.3v-6.7h4.7v6.7h7.3v4.8h-7.3m440.2 14.6l-3-23.4-8.7 16.1-8.8-16-3 23.4h-5.9l4.6-33.6h4.7l8.4 15.7 8.3-15.7h4.7l4.6 33.6h-5.9zm14.5-11c.7 5.1 4.1 7 7.7 7 2.2 0 5.2-.8 7.2-1.8l.4 4.5c-1.8.9-4.6 1.8-8 1.8-8.6 0-12.9-5.7-12.9-12.4 0-6.6 4.1-12.3 11.5-12.3 6 0 10.4 3.9 10.4 10.3 0 1-.1 1.9-.3 3h-16zm.3-3.7h10.5c0-2.5-1.3-4.9-4.8-4.9-3.3-.1-5.1 2-5.7 4.9m36 14.7v-12.9c0-4.7-1.5-6.8-5.2-6.8-2.2 0-4 .8-5.1 2.4v17.3h-5.4v-23.9h4.9l.2 1.8c1.8-1.4 4-2.2 6-2.2 7.3 0 10 4.6 10 11.4v12.9h-5.4m26.1 0l-.2-1.8c-1.4 1.3-3.5 2.3-5.7 2.3-6.9 0-9.7-4.3-9.7-11.2v-13.2h5.4v12.8c0 4.7 1.5 6.9 5 6.9 2 0 3.7-.7 4.8-2.2v-17.5h5.4v23.9h-5m41.7 0l-7.1-12.7h-6.5v12.7h-5.7v-33.6h11.9c6.6 0 11.6 2.4 11.6 9.7 0 4.8-2.4 7.8-5.8 9.7l7.6 14.2h-6m-13.6-28.9v10.9h5.4c4.6 0 6.4-2 6.4-5.6 0-3.4-1.6-5.3-6.6-5.3h-5.2m42.6 29.4h-1.6c-3.1 0-4.7-1.2-5.6-3-1.6 1.9-4.4 3-7.3 3-4 0-7.1-2.7-7.1-7.1 0-6.7 8.7-8.4 13.7-8.5-.1-3.3-1.4-4.4-4.6-4.4-2 0-3.9.5-6.4 1.9l-.6-4.4c2.6-1.4 5.5-2.3 8.5-2.3 5.6 0 8.6 2.7 8.6 10.2v6c0 3.6.3 4.2 2.3 4.2h.6l-.5 4.4m-7.9-11.9c-4.4.2-8 1.5-8 4.6 0 2.2 1.2 3.1 3.4 3.1 1.4 0 3.4-.8 4.7-2.2v-5.5zm17.3 9.7v13.3h-5.4v-35.5h4.6l.5 2c1.8-1.5 3.6-2.4 6.5-2.4 7.3 0 11.4 5.8 11.4 12.4 0 6.8-3.9 12.4-11.4 12.4-2.4 0-4.5-.8-6.2-2.2m-.3-10.2c0 4.9 2.3 7.8 6 7.8 3.9 0 6.2-3.3 6.2-7.8 0-4.6-2.3-7.8-6.2-7.8-3.7 0-6 3-6 7.8m22.2-16.1v-5.6h5.5v5.6h-5.5m0 28v-23.9h5.5v23.9h-5.5m27.7 0l-.2-1.9c-1.7 1.5-3.8 2.4-6.3 2.4-7.2 0-11.4-5.6-11.4-12.4 0-6.6 4.1-12.4 11.4-12.4 2.4 0 4.4.6 6.1 2.1v-13.8h5.5v36h-5.1m-12.4-11.9c0 4.5 2.3 7.8 6.2 7.8 3.7 0 6.1-2.8 6.1-7.8 0-4.8-2.4-7.8-6.1-7.8-3.9 0-6.2 3.3-6.2 7.8m27.3.9c.7 5.1 4.1 7 7.7 7 2.2 0 5.2-.8 7.2-1.8l.4 4.5c-1.8.9-4.6 1.8-8 1.8-8.6 0-12.9-5.7-12.9-12.4 0-6.6 4.1-12.3 11.5-12.3 6 0 10.4 3.9 10.4 10.3 0 1-.1 1.9-.3 3h-16zm.3-3.7h10.5c0-2.5-1.3-4.9-4.8-4.9-3.3-.1-5.1 2-5.7 4.9m-316.1-40.6v73h-181.4v-73h181.4m6-6h-193.4v85h193.4v-85zm-166.6 58.5v-29.4h18.5v4.7h-13.5v7h10.5v4.7h-10.5v8.3h13.9v4.7h-18.9m22.5-1.5l.6-5.7c1.7 1.5 4.9 3.1 9.2 3.1 3.3 0 5.8-1 5.8-3.6 0-3.1-3.3-4.2-7.1-5.5-4.4-1.5-9-2.9-9-8.1 0-3.9 2.6-8.7 10.6-8.7 3.9 0 7.8 1.2 9.3 2.2l-.5 5.1c-3.1-1.6-5.7-2.6-8.6-2.6-2.5 0-5.8.8-5.8 3.5 0 2.5 2.8 3.4 6 4.5 4.7 1.4 10.4 3.1 10.4 9.5 0 3.3-1.4 8.4-11.4 8.4-4.3 0-7.8-1-9.5-2.1m30.7-8.4v9.9h-5v-29.4h8.7c7.3 0 11.9 1.3 11.9 9.3 0 8.2-5.8 10.2-9.9 10.2h-5.7m0-15.3v10.8h4.9c4 0 5.6-1.6 5.6-5.6 0-3.7-1.3-5.2-6-5.2h-4.5m35.7 25.2l-2.6-7.4h-10.3l-2.6 7.4h-5.2l10.5-29.4h4.8l10.5 29.4h-5.1m-7.8-21.9l-3.4 9.8h6.9l-3.5-9.8m14.2 7.2c0-9.3 6.1-15.3 14.6-15.3 3 0 6.2.7 8.3 1.7l-.5 4.7c-2.4-.9-4.7-1.7-7.7-1.7-6 0-9.2 4.5-9.2 10.6 0 6.1 3.1 10.6 9.2 10.6 3 0 5.3-.8 7.7-1.7l.5 4.7c-2.1 1-5.3 1.7-8.3 1.7-8.4 0-14.6-6-14.6-15.3m27.5 14.7v-29.4h18.5v4.7h-13.5v7h10.5v4.7h-10.5v8.3h13.9v4.7h-18.9m-176.9-49.1h-2v66.2h2v-66.2" fill="#fff"/><path d="m816.6 93.5c1.8 0 3.6.2 5.5.6 0 0 1 1.8 1.8 2.2.7.4 6.3 2.9 7.5 3.9 1.3 1 6.6 2.6 6.6 2.6s6.7 1.4 15.8 1.4c4.6 0 9.7-.3 15-1.4 0 0 3.6-.7 7-2.5 3.4-1.8 7.2-3.1 7.5-3.5.3-.4 2.1-2.6 2.1-2.6s2.1-.6 5.4-.6c4.5 0 11.2 1.1 17.8 6.3 0 0 .9 3.3.7 3.3.3.2 4.1 3.1 12.8 37.6 9.1 36 0 49.4-3.2 50.8-1.1.5-3 1.2-5.6 1.2-4.7 0-12.1-2.3-22.5-12.1-16.2-15.2-31-12.9-37.3-13.3-.9-.1-2-.1-3.3-.1-7.7 0-21.4 1.6-33.1 12.2-13.6 12.3-15.8 13-25.9 13.2-.1 0-.1 0-.2 0-9.9 0-11.1-16.7-8.7-39 0 0 5.2-32.3 15.5-50.9 0 0 .5-2.5.6-3 .3-.3 8.1-6.3 18.2-6.3m37 37.4c5.2 0 9.4-4.3 9.4-9.5 0-5.2-4.2-9.5-9.4-9.5-5.2 0-9.4 4.3-9.4 9.5 0 5.3 4.2 9.5 9.4 9.5m-37-43.4c-6.4 0-11.9 2-15.4 3.6-7.2 3.5-8 5.9-8.3 6.8-.1.3-.2.7-.7 2.8-10.5 19.3-15.5 50.7-15.8 52v.2.2c-2.4 22.2-.9 34.9 4.8 41.2 2.6 2.9 6 4.4 9.9 4.4.1 0 .2 0 .3 0 12-.2 15.6-2 29.8-14.8 9.8-8.8 21.2-10.6 29.1-10.6 1 0 1.9 0 2.9.1 1 .1 2.2.1 3.4.1 7.1 0 17.9 0 30.2 11.6 9.7 9.1 18.6 13.7 26.6 13.7 3.7 0 6.3-1 8-1.7 7.7-3.4 15.8-21.5 6.6-57.8-6.5-25.7-10.5-35-12.9-38.7-.2-.7-.4-1.5-.6-2.3l-.5-1.9-1.5-1.2c-8-6.3-16.1-7.6-21.5-7.6-4 0-6.6.7-7.1.8l-1.8.5-1.2 1.4c-.3.3-.9 1.1-1.4 1.7-.3.1-.6.3-.9.4-1.5.6-3.5 1.5-5.4 2.5-2.5 1.3-5.3 1.9-5.4 1.9-4.3.8-8.9 1.3-13.9 1.3-7.5 0-13.2-1-14.4-1.2-1.8-.6-3.9-1.3-4.6-1.7-1.2-.8-3.2-1.9-7.4-3.9 0-.1-.1-.1-.1-.2l-1.3-2.3-2.6-.6c-2.3-.4-4.6-.7-6.9-.7zm37 37.4c-1.9 0-3.4-1.6-3.4-3.5 0-1.9 1.5-3.5 3.4-3.5.9 0 1.7.4 2.4 1 .7.7 1 1.6 1 2.5 0 2-1.5 3.5-3.4 3.5m403.5-34.2h-268v104.9h268v-104.9m-33.6 33.9v-23.4h23.4v23.4h-23.4m-32.1 0v-23.4h23.4v23.4h-23.4m-32 0v-23.4h23.4v23.4h-23.4m-32.1 0v-23.4h23.4v23.4h-23.4m-32 0v-23.4h23.4v23.4h-23.4m-32.1 0v-23.4h23.4v23.4h-23.4m-32 0v-23.4h23.4v23.4h-23.4m-32.1 0v-23.4h23.4v23.4h-23.4m224.4 32.1v-23.4h23.4v23.4h-23.4m-32.1 0v-23.4h23.4v23.4h-23.4m-32 0v-23.4h23.4v23.4h-23.4m-32.1 0v-23.4h23.4v23.4h-23.4m-32 0v-23.4h23.4v23.4h-23.4m-32.1 0v-23.4h23.4v23.4h-23.4m-32 0v-23.4h23.4v23.4h-23.4m-32.1 0v-23.4h23.4v23.4h-23.4m192.3 28.5v-20.4h55.7v20.4h-55.7m-128.1 0v-20.4h119.7v20.4h-119.7m-64.2 0v-20.4h55.7v20.4h-55.7m-37.4-75.1h-2v66.2h2v-66.2" fill="#fff"/></svg>