<svg version="1.1" xmlns="http://www.w3.org/2000/svg" xmlns:xlink="http://www.w3.org/1999/xlink" x="0px" y="0px" width="467.7px" height="453.5px" viewBox="0 0 467.7 453.5" xml:space="preserve">

	<defs>
		<style type="text/css">@import url('../../stylesheets/css/sspace.css')</style>
	</defs>

	<style type="text/css">
		svg {font-size: 62.5%;}
		.st3{fill:#FFFFFF;}
		.st9{fill:#363664;}
		.st10{font-family:'Cabin'; font-weight: 600;}
		.st11{font-size:4.2rem;}
		.st12{fill:url(#pct-profil_2_);}
	</style>

	<g id="edit">
		<path class="st3" d="M459.7,8v281.6H8V8H459.7 M467.7,0H0v297.6h467.7V0L467.7,0z"/>
		<rect x="0" y="297.6" class="st3" width="467.7" height="155.9"/>
		<text transform="matrix(1 0 0 1 56.6929 385.83)" class="st9 st10 st11">Éditer le profil</text>
		<linearGradient id="pct-profil_2_" gradientUnits="userSpaceOnUse" x1="163.633" y1="148.7643" x2="304.084" y2="148.7643">
			<stop offset="0" style="stop-color:#CF534D"/>
			<stop offset="1" style="stop-color:#8CCBCB"/>
		</linearGradient>
		<path id="pct-profil_1_" class="st12" transform="rotation" d="M233.9,229.8l-70.2-40.5v-81.1l70.2-40.5l70.2,40.5v81.1L233.9,229.8z M169.8,185.7l60.9,35.2v-70.3l-60.9-35.2V185.7z M237,150.6v70.3l60.9-35.2v-73.9l-64-36.9L172.9,110l60.9,35.2l54.8-31.7l3.1,5.4L237,150.6zM203.8,198c-1.6,0-3.3-0.5-5-1.5c-5.1-3-9.1-9.9-9.1-15.8l0-11.4l21.4,12.3l0,7.8c0,3.4-1.4,6.2-3.8,7.6C206.2,197.7,205,198,203.8,198z M195.9,180.1l0,0.7c0,3.7,2.8,8.6,6,10.4c1.1,0.6,2,0.7,2.3,0.5c0.3-0.2,0.7-0.9,0.7-2.2l0-4.2L195.9,180.1z M219.9,182.7c-1.6,0-3.3-0.5-5-1.5c-5.1-3-9.1-9.9-9.1-15.8l0-6c0-3.4,1.4-6.2,3.8-7.6c2.4-1.4,5.5-1.2,8.5,0.5l0,0c5.1,3,9.1,9.9,9.1,15.8l0,6c0,3.4-1.4,6.2-3.8,7.6C222.4,182.4,221.2,182.7,219.9,182.7z M213.2,157.1c-0.2,0-0.3,0-0.4,0.1c-0.3,0.2-0.7,0.9-0.7,2.2l0,6c0,3.7,2.8,8.6,6,10.4c1.1,0.6,2,0.7,2.3,0.5c0.3-0.2,0.7-0.9,0.7-2.2l0-6c0-3.7-2.8-8.6-6-10.4v0C214.2,157.3,213.6,157.1,213.2,157.1z M187.8,164.2c-1.6,0-3.3-0.5-5-1.5c-5.1-3-9.1-9.9-9.1-15.8l0-6c0-3.4,1.4-6.2,3.8-7.6c2.4-1.4,5.5-1.2,8.5,0.5c5.1,3,9.1,9.9,9.1,15.8l0,6c0,3.4-1.4,6.2-3.8,7.6C190.2,163.8,189,164.2,187.8,164.2z M181,138.6c-0.2,0-0.3,0-0.4,0.1c-0.3,0.2-0.7,0.9-0.7,2.2l0,6c0,3.7,2.8,8.6,6,10.4c1.1,0.6,2,0.7,2.3,0.5c0.3-0.2,0.7-0.9,0.7-2.2l0-6c0-3.7-2.8-8.6-6-10.4l0,0C182.1,138.8,181.4,138.6,181,138.6z">

		</path>
	</g>

</svg>
