<svg version="1.1" xmlns="http://www.w3.org/2000/svg" xmlns:xlink="http://www.w3.org/1999/xlink" x="0px" y="0px" width="467.7px" height="453.5px" viewBox="0 0 467.7 453.5" xml:space="preserve">

	<defs>
		<style type="text/css">@import url('../../stylesheets/css/sspace.css')</style>
	</defs>

	<style type="text/css">
		svg {font-size: 62.5%;}
		.st3{fill:#FFFFFF;}
		.st11{fill:#363664;}
		.st12{font-family:'Cabin'; font-weight: 600;}
		.st13{font-size:4.2rem;}
		.st14{fill:url(#pct-a-propos_2_);}
	</style>

	<g id="about">
		<path class="st3" d="M459.7,8v281.6H8V8H459.7 M467.7,0H0v297.6h467.7V0L467.7,0z"/>
		<rect x="0" y="297.6" class="st3" width="467.7" height="155.9"/>
		<text transform="matrix(1 0 0 1 56.6929 385.83)" class="st11 st12 st13">À propos</text>
		<linearGradient id="pct-a-propos_2_" gradientUnits="userSpaceOnUse" x1="163.633" y1="148.7643" x2="304.084" y2="148.7643">
			<stop  offset="0" style="stop-color:#CF534D"/>
			<stop  offset="1" style="stop-color:#8CCBCB"/>
		</linearGradient>
		<path id="pct-a-propos_1_" class="st14" d="M233.9,229.8l-70.2-40.5v-81.1l70.2-40.5l70.2,40.5v81.1L233.9,229.8z M169.8,185.7l64,36.9l64-37v-73.9l-64-36.9l-64,37v23.2c2.4-0.3,5.3-1,8.3-2.1c0.2-0.1,0.4-0.2,0.6-0.2c4.6-1.8,9.3-4.8,12-9.1l4.5-6.9l1.2,8.1c1.9,12.6,12.8,33.8,31.1,41.5c13.1,5.6,27.2,3.1,42-7.4l4.9-3.5v36.7h-6.2v-25c-17.1,10.3-31.3,9.2-40.9,5.7l0,1.2c0,3.4-1.4,6.2-3.8,7.6c-2.4,1.4-5.5,1.2-8.5-0.5c-5.1-3-9.1-9.9-9.1-15.8l0-7.7c-6.8-7.8-11.7-17.2-14.2-25.7c-1.2,1.1-2.6,2.1-3.9,3c4.3,3.4,7.4,9.4,7.4,14.6l0,6c0,3.4-1.4,6.2-3.8,7.6c-2.4,1.4-5.5,1.2-8.5-0.5c-5.1-3-9.1-9.9-9.1-15.8l0-6c0-0.1,0-0.1,0-0.2c-1.3,0.3-2.6,0.5-3.8,0.6V185.7z M212,163.9l0,1.5c0,3.7,2.8,8.6,6,10.4c1.1,0.6,2,0.7,2.3,0.5c0.3-0.2,0.7-0.9,0.7-2.2l0-4C217.8,168.4,214.8,166.3,212,163.9z M181,138.6c-0.2,0-0.3,0-0.4,0.1c-0.3,0.2-0.7,0.9-0.7,2.2l0,6c0,3.7,2.8,8.6,6,10.4c1.1,0.6,2,0.7,2.3,0.5c0.3-0.2,0.7-0.9,0.7-2.2l0-6c0-3.7-2.8-8.6-6-10.4l0,0C182.1,138.8,181.4,138.6,181,138.6z M220.5,207.7c-0.8,0-1.7-0.2-2.5-0.7c-2.1-1.2-3.6-3.8-3.6-6.2c0-1.8,0.8-3.2,2.2-4c1.4-0.8,3-0.7,4.5,0.1h0c2.1,1.2,3.6,3.8,3.6,6.2c0,1.8-0.8,3.2-2.1,4C221.9,207.5,221.2,207.7,220.5,207.7z M220.4,201.5c-0.3,0-0.6,0.1-0.9,0.3c-0.3,0.2-0.6,0.4-0.7,0.7c0.3,0,0.6-0.1,0.9-0.3C220,202,220.2,201.7,220.4,201.5z M203.8,198c-1.6,0-3.3-0.5-5-1.5c-5.1-3-9.1-9.9-9.1-15.8l0-11.4l21.4,12.3l0,7.8c0,3.4-1.4,6.2-3.8,7.6C206.2,197.7,205,198,203.8,198z M195.9,180.1l0,0.7c0,3.7,2.8,8.6,6,10.4c1.1,0.6,2,0.7,2.3,0.5c0.3-0.2,0.7-0.9,0.7-2.2l0-4.2L195.9,180.1z"/>
	</g>

</svg>
