<svg version="1.1" xmlns="http://www.w3.org/2000/svg" xmlns:xlink="http://www.w3.org/1999/xlink" x="0px" y="0px" width="467.7px" height="453.5px" viewBox="0 0 467.7 453.5" xml:space="preserve">

	<defs>
		<style type="text/css">@import url('../../stylesheets/css/sspace.css')</style>
	</defs>

	<style type="text/css">
		svg {font-size: 62.5%;}
		.st3{fill:#FFFFFF;}
		.st10{fill:#363664;}
		.st11{font-family:'Cabin'; font-weight: 600;}
		.st12{font-size:4.2rem;}
		.st13{fill:url(#pct-personnaliser_2_);}
	</style>

	<g id="perso">
		<path class="st3" d="M459.7,8v281.6H8V8H459.7 M467.7,0H0v297.6h467.7V0L467.7,0z"/>
		<rect x="0" y="297.6" class="st3" width="467.7" height="155.9"/>
		<text transform="matrix(1 0 0 1 56.6931 385.83)" class="st10 st11 st12">Réaménager</text>
		<linearGradient id="pct-personnaliser_2_" gradientUnits="userSpaceOnUse" x1="160.5318" y1="163.8174" x2="307.1768" y2="163.8174">
			<stop offset="0" style="stop-color:#CF534D"/>
			<stop offset="1" style="stop-color:#8CCBCB"/>
		</linearGradient>
		<path id="pct-personnaliser_1_" class="st13" d="M233.9,229.8l-73.3-42.3l73.3-42.3l16.9,9.8l-3.1,5.4l-13.8-8l-60.9,35.1l60.9,35.2l60.9-35.2l-13.9-8c-0.6,5-1.9,9.4-4.3,12.3c-2,2.5-4.7,3.8-7.8,3.8c-3.1,0-5.7-1.3-7.7-3.8c-8.4-10.5-3.2-40.6-1.2-50.6c-5.1-3.8-7.1-10.6-4.7-17.1c0.8-2.3,1.6-4.3,2.4-6.2c2.5-6.2,4.1-10.2,3.3-15.7l-0.7-4.4l4.4,0.9c11,2.4,17.3,13.7,18.7,23.8c1.1,8.1-0.9,15-5.3,18.6c1.1,5.5,3.5,19.1,3.3,31.4l25.8,14.9L233.9,229.8z M265.8,143.8c-3.5,18-4.5,38.2,0.2,44.1c0.8,1,1.7,1.5,2.9,1.5c1.2,0,2.1-0.5,2.9-1.5c4.9-6.1,4-26.1,0.5-44C270.2,144.3,267.9,144.2,265.8,143.8z M263.4,120.3c-0.7,1.8-1.5,3.7-2.3,5.9c-1.6,4.3,0,8.8,3.8,10.7c2.5,1.3,5.9,1.4,8.3,0.1c3.4-1.8,5-7.1,4.1-13.6c-0.3-2-0.8-4.1-1.6-6.1C271.8,119.4,267.2,121.4,263.4,120.3z M265.7,114.4c1.8,0.1,4.7-1.2,7.3-2.6c-1.5-2.2-3.4-4.1-5.5-5.4C267.2,109.2,266.6,111.8,265.7,114.4z M233.9,215.3c-2.2,0-4.5-0.5-6.2-1.5c-2.2-1.3-3.5-3.3-3.5-5.4c0-2.1,1.3-4.1,3.5-5.4c3.5-2.1,8.9-2.1,12.5,0l0,0c2.2,1.3,3.5,3.3,3.5,5.4c0,2.1-1.3,4.1-3.5,5.4C238.3,214.8,236.1,215.3,233.9,215.3z M230.7,208.4C230.7,208.4,230.7,208.4,230.7,208.4c1.7,1,4.7,1,6.3,0c0,0,0,0,0,0c0,0,0,0-0.1,0C235.4,207.5,232.3,207.4,230.7,208.4C230.7,208.4,230.7,208.4,230.7,208.4z M203.4,198.7c-4.1,0-8.2-0.9-11.4-2.8c-3.6-2.1-5.6-5.1-5.6-8.4c0-3.2,2-6.3,5.6-8.4c6.4-3.7,16.3-3.7,22.7,0c3.6,2.1,5.6,5.1,5.6,8.4c0,3.2-2,6.3-5.6,8.3C211.6,197.7,207.5,198.7,203.4,198.7z M203.3,182.6c-3,0-6,0.6-8.2,1.9c-1.6,0.9-2.5,2-2.5,3c0,1,1,2.1,2.5,3c4.5,2.6,12.1,2.6,16.5,0c1.5-0.9,2.5-2,2.5-3c0-1-1-2.1-2.5-3C209.3,183.2,206.3,182.6,203.3,182.6z M233.9,173c-2.2,0-4.5-0.5-6.2-1.5c-2.2-1.3-3.5-3.3-3.5-5.4c0-2.1,1.3-4.1,3.5-5.4c3.5-2.1,8.9-2.1,12.5,0l0,0c2.2,1.3,3.5,3.3,3.5,5.4c0,2.1-1.3,4.1-3.5,5.4C238.3,172.5,236.1,173,233.9,173z M230.7,166.1C230.7,166.1,230.7,166.1,230.7,166.1c1.7,1,4.7,1,6.3,0c0,0,0,0,0,0c0,0,0,0-0.1,0C235.4,165.1,232.3,165.1,230.7,166.1C230.7,166,230.7,166,230.7,166.1z"/>
	</g>

</svg>