<svg version="1.1" xmlns="http://www.w3.org/2000/svg" xmlns:xlink="http://www.w3.org/1999/xlink" x="0px" y="0px" width="2437.8px" height="1474px" viewBox="0 0 2437.8 1474" xml:space="preserve">

	<defs>
		<style type="text/css">@import url('../../stylesheets/css/sspace.css')</style>
	</defs>

	<style type="text/css">
		svg{font-size:62.5%;}
		.st2{fill:#FFFFFF;}
		.st3{fill:#CF534D;}
		.st4{fill:none;stroke:#FFFFFF;stroke-width:2;stroke-miterlimit:10;}
		.st5{fill:#A3D5D5;}
		.st6{fill:none;stroke:#363664;stroke-width:4;stroke-miterlimit:10;}
		.st15{fill:#F2CF78;}
		.st16{fill:#363664;}
		.st17{fill:#FFFFFF;stroke:#727293;stroke-width:4;stroke-miterlimit:10;}
		.st18{fill:none;stroke:#CF534D;stroke-width:10;stroke-miterlimit:10;}
		.st19{fill:none;stroke:#CF534D;stroke-width:8;stroke-miterlimit:10;}
		.st20{fill:none;stroke:#FFFFFF;stroke-width:4;stroke-miterlimit:10;}
		.st21{fill:#A3D5D5;stroke:#A3D5D5;stroke-width:4;stroke-miterlimit:10;}
		.st22{fill:none;stroke:#FFFFFF;stroke-width:6.5306;stroke-miterlimit:10;}
		.st26{fill:none;stroke:#FFFFFF;stroke-width:3;stroke-miterlimit:10;}
		.st27{font-family:'Cabin'; font-weight: 700;}
		.st28{font-size:12.4rem;}
		.st29{font-size:8.4rem;}
	</style>

	<g id="stop">
		<path class="st2" d="M2424,13.8v1446.5H13.8V13.8H2424 M2437.8,0H0v1474h2437.8V0L2437.8,0z"/>
		<g>
			<rect x="0" y="1332.3" class="st2" width="2437.8" height="141.7"/>
			<path class="st16" d="M522.4,1392.6v27.7h-6.1v-27.7h-9.5v-6h25.2v6H522.4z M530.4,1408.3c0-6.7,4.5-12.4,12.1-12.4s12.1,5.7,12.1,12.4s-4.5,12.4-12.1,12.4S530.4,1415.1,530.4,1408.3z M536.5,1408.3c0,4.5,2.2,7.5,6,7.5s6-3.1,6-7.5c0-4.5-2.2-7.5-6-7.5S536.5,1403.9,536.5,1408.3z M574.2,1420.3l-0.1-1.4c-1.4,1.1-3.5,1.9-5.3,1.9c-7.5,0-10.2-4.8-10.2-11.6v-12.9h6v12.9c0,4.5,1.4,6.6,4.8,6.6c2,0,3.4-0.7,4.5-2v-17.5h6v24H574.2z M583.9,1408.3c0-6.7,4-12.4,11.7-12.4c3.8,0,5.7,0.8,7.2,1.8l-0.5,5.1c-2-1.3-3.9-2-6.2-2c-3.8,0-6,3.1-6,7.5c0,4.5,2.2,7.5,6,7.5c2.3,0,4.2-0.7,6.2-2l0.5,5.1c-1.5,1-3.4,1.8-7.2,1.8C587.9,1420.8,583.9,1415.1,583.9,1408.3z M622,1420.3v-12.9c0-4.5-1.4-6.6-4.8-6.6c-2,0-3.4,0.8-4.5,2.1v17.4h-6v-36h6v13.2c1.4-0.9,3.2-1.6,5-1.6c7.5,0,10.2,4.7,10.2,11.5v12.9H622z M638,1409.6c0.7,4.5,4,6.3,7.2,6.3c2.3,0,5.4-0.9,7.4-2l0.3,5c-1.8,1-4.6,1.8-8,1.8c-8.7,0-13-5.7-13-12.4c0-6.7,4.1-12.4,11.5-12.4c6,0,10.6,4.1,10.6,10.4c0,1.1-0.1,2.1-0.4,3.3H638z M638.2,1405.5h9.7c0-2.2-1.1-4.8-4.3-4.8C640.5,1400.8,638.8,1402.8,638.2,1405.5z M803.9,1420.3l-0.1-1.3c-1.7,1.2-3.3,1.8-5.9,1.8c-7.7,0-11.8-5.7-11.8-12.4s4.1-12.4,11.8-12.4c2.4,0,4.1,0.6,5.6,1.6v-13.2h6v36H803.9z M792.3,1408.3c0,4.5,2.2,7.5,6,7.5s5.5-3.1,5.5-7.5c0-4.5-1.7-7.5-5.5-7.5S792.3,1403.9,792.3,1408.3z M819.8,1409.6c0.7,4.5,4,6.3,7.2,6.3c2.3,0,5.4-0.9,7.4-2l0.3,5c-1.8,1-4.6,1.8-8,1.8c-8.7,0-13-5.7-13-12.4c0-6.7,4.1-12.4,11.5-12.4c6,0,10.6,4.1,10.6,10.4c0,1.1-0.1,2.1-0.4,3.3H819.8z M819.9,1405.5h9.7c0-2.2-1.1-4.8-4.3-4.8C822.2,1400.8,820.5,1402.8,819.9,1405.5z M858.8,1420.8h-2.2c-4.3,0-6.1-2.8-6.1-6.3v-30.2h6v27.7c0,3.8,0.5,3.8,2.9,3.8L858.8,1420.8z M883.2,1420.8h-2.2c-2.7,0-4.5-1.1-5.4-2.8c-1.6,1.8-4.5,2.8-7.3,2.8c-3.8,0-7-2.6-7-7.2c0-6.8,9-8.4,13.5-8.6c-0.1-2.7-1.2-3.9-4.3-3.9c-2.2,0-4,0.6-6.6,1.8l-0.5-4.8c2.9-1.4,5.8-2.1,8.7-2.1c5.4,0,8.7,2.7,8.7,9.6v6.5c0,3.6,0.4,3.8,2.1,3.8h0.8L883.2,1420.8z M874.9,1409c-3.4,0.1-7.3,1.5-7.3,4.3c0,2,1,2.9,3.2,2.9c1.1,0,2.8-0.5,4.1-1.7V1409z M928.2,1420.3v-12.9c0-4.4-1.2-6.6-4.5-6.6c-3.9,0-4.8,2.2-4.8,4.7v14.8H913v-12.9c0-5.2-1.4-6.6-4.8-6.6c-1.9,0-3.4,0.7-4.4,2v17.5h-6v-24h4.9l0.3,1.9c1.4-1.2,3.6-2.3,6.1-2.3c2.8,0,5.7,1.2,7.3,3.6c0.8-1.5,3.6-3.6,8-3.6c6.5,0,9.6,4.8,9.6,11.5v12.9H928.2z M959.5,1420.8h-2.2c-2.7,0-4.5-1.1-5.4-2.8c-1.6,1.8-4.5,2.8-7.3,2.8c-3.8,0-7-2.6-7-7.2c0-6.8,9-8.4,13.5-8.6c-0.1-2.7-1.2-3.9-4.3-3.9c-2.2,0-4,0.6-6.6,1.8l-0.5-4.8c2.9-1.4,5.8-2.1,8.7-2.1c5.4,0,8.7,2.7,8.7,9.6v6.5c0,3.6,0.4,3.8,2.1,3.8h0.8L959.5,1420.8z M951.2,1409c-3.4,0.1-7.3,1.5-7.3,4.3c0,2,1,2.9,3.2,2.9c1.1,0,2.8-0.5,4.1-1.7V1409z M978.6,1420.3v-12.9c0-4.5-1.4-6.6-4.8-6.6c-2,0-3.4,0.8-4.5,2.1v17.4h-6v-24h5.6l0.1,1.4c1.4-1,3.4-1.8,5.3-1.8c7.5,0,10.2,4.7,10.2,11.5v12.9H978.6z M994.6,1409.6c0.7,4.5,4,6.3,7.2,6.3c2.3,0,5.4-0.9,7.4-2l0.3,5c-1.8,1-4.6,1.8-8,1.8c-8.7,0-13-5.7-13-12.4c0-6.7,4.1-12.4,11.5-12.4c6,0,10.6,4.1,10.6,10.4c0,1.1-0.1,2.1-0.4,3.3H994.6z M994.7,1405.5h9.7c0-2.2-1.1-4.8-4.3-4.8C997,1400.8,995.3,1402.8,994.7,1405.5z M1026.6,1420.8h-4.3c-4.5,0-6.4-3.2-6.4-6.3v-13.3h-3.4l0.5-4.9h2.9v-5.3l6-0.6v5.9h5.3v4.9h-5.3v10.8c0,3.6,0.3,3.8,3.6,3.8h1.6L1026.6,1420.8z M1043.2,1420.8h-4.3c-4.5,0-6.4-3.2-6.4-6.3v-13.3h-3.4l0.5-4.9h2.9v-5.3l6-0.6v5.9h5.3v4.9h-5.3v10.8c0,3.6,0.3,3.8,3.6,3.8h1.6L1043.2,1420.8z M1052.3,1409.6c0.7,4.5,4,6.3,7.2,6.3c2.3,0,5.4-0.9,7.4-2l0.3,5c-1.8,1-4.6,1.8-8,1.8c-8.7,0-13-5.7-13-12.4c0-6.7,4.1-12.4,11.5-12.4c6,0,10.6,4.1,10.6,10.4c0,1.1-0.1,2.1-0.4,3.3H1052.3z M1052.5,1405.5h9.7c0-2.2-1.1-4.8-4.3-4.8C1054.8,1400.8,1053,1402.8,1052.5,1405.5z M1081.7,1408.3c0-6.7,4.5-12.4,12.1-12.4s12.1,5.7,12.1,12.4s-4.5,12.4-12.1,12.4S1081.7,1415.1,1081.7,1408.3z M1087.7,1408.3c0,4.5,2.2,7.5,6,7.5c3.8,0,6-3.1,6-7.5c0-4.5-2.2-7.5-6-7.5C1090,1400.8,1087.7,1403.9,1087.7,1408.3z M1125.4,1420.3l-0.1-1.4c-1.4,1.1-3.5,1.9-5.3,1.9c-7.5,0-10.2-4.8-10.2-11.6v-12.9h6v12.9c0,4.5,1.4,6.6,4.8,6.6c2,0,3.4-0.7,4.5-2v-17.5h6v24H1125.4z M1160.9,1392.6v27.7h-6.1v-27.7h-9.5v-6h25.2v6H1160.9z M1169,1408.3c0-6.7,4.5-12.4,12.1-12.4s12.1,5.7,12.1,12.4s-4.5,12.4-12.1,12.4S1169,1415.1,1169,1408.3z M1175.1,1408.3c0,4.5,2.2,7.5,6,7.5c3.8,0,6-3.1,6-7.5c0-4.5-2.2-7.5-6-7.5C1177.3,1400.8,1175.1,1403.9,1175.1,1408.3z M1212.8,1420.3l-0.1-1.4c-1.4,1.1-3.5,1.9-5.3,1.9c-7.5,0-10.2-4.8-10.2-11.6v-12.9h6v12.9c0,4.5,1.4,6.6,4.8,6.6c2,0,3.4-0.7,4.5-2v-17.5h6v24H1212.8z M1222.5,1408.3c0-6.7,4-12.4,11.7-12.4c3.8,0,5.7,0.8,7.2,1.8l-0.5,5.1c-2-1.3-3.9-2-6.2-2c-3.8,0-6,3.1-6,7.5c0,4.5,2.2,7.5,6,7.5c2.3,0,4.2-0.7,6.2-2l0.5,5.1c-1.5,1-3.4,1.8-7.2,1.8C1226.5,1420.8,1222.5,1415.1,1222.5,1408.3z M1260.6,1420.3v-12.9c0-4.5-1.4-6.6-4.8-6.6c-2,0-3.4,0.8-4.5,2.1v17.4h-6v-36h6v13.2c1.4-0.9,3.2-1.6,5-1.6c7.5,0,10.2,4.7,10.2,11.5v12.9H1260.6z M1276.6,1409.6c0.7,4.5,4,6.3,7.2,6.3c2.3,0,5.4-0.9,7.4-2l0.3,5c-1.8,1-4.6,1.8-8,1.8c-8.7,0-13-5.7-13-12.4c0-6.7,4.1-12.4,11.5-12.4c6,0,10.6,4.1,10.6,10.4c0,1.1-0.1,2.1-0.4,3.3H1276.6z M1276.8,1405.5h9.7c0-2.2-1.1-4.8-4.3-4.8C1279.1,1400.8,1277.3,1402.8,1276.8,1405.5z M1485.7,1420.3l-0.1-1.3c-1.7,1.2-3.3,1.8-5.9,1.8c-7.7,0-11.8-5.7-11.8-12.4s4.1-12.4,11.8-12.4c2.4,0,4.1,0.6,5.6,1.6v-13.2h6v36H1485.7z M1474,1408.3c0,4.5,2.2,7.5,6,7.5c3.8,0,5.5-3.1,5.5-7.5c0-4.5-1.7-7.5-5.5-7.5C1476.3,1400.8,1474,1403.9,1474,1408.3z M1512.2,1420.3l-0.1-1.4c-1.4,1.1-3.5,1.9-5.3,1.9c-7.5,0-10.2-4.8-10.2-11.6v-12.9h6v12.9c0,4.5,1.4,6.6,4.8,6.6c2,0,3.4-0.7,4.5-2v-17.5h6v24H1512.2z M1532.7,1408.3c0-6.7,4-12.4,11.7-12.4c3.8,0,5.7,0.8,7.2,1.8l-0.5,5.1c-2-1.3-3.9-2-6.2-2c-3.8,0-6,3.1-6,7.5c0,4.5,2.2,7.5,6,7.5c2.3,0,4.2-0.7,6.2-2l0.5,5.1c-1.5,1-3.4,1.8-7.2,1.8C1536.6,1420.8,1532.7,1415.1,1532.7,1408.3z M1563.9,1420.8h-2.2c-4.3,0-6.1-2.8-6.1-6.3v-30.2h6v27.7c0,3.8,0.5,3.8,2.9,3.8L1563.9,1420.8z M1588.3,1420.8h-2.2c-2.7,0-4.5-1.1-5.4-2.8c-1.6,1.8-4.5,2.8-7.3,2.8c-3.8,0-7-2.6-7-7.2c0-6.8,9-8.4,13.5-8.6c-0.1-2.7-1.2-3.9-4.3-3.9c-2.2,0-4,0.6-6.6,1.8l-0.5-4.8c2.9-1.4,5.8-2.1,8.7-2.1c5.4,0,8.7,2.7,8.7,9.6v6.5c0,3.6,0.4,3.8,2.1,3.8h0.8L1588.3,1420.8z M1580,1409c-3.4,0.1-7.3,1.5-7.3,4.3c0,2,1,2.9,3.2,2.9c1.1,0,2.8-0.5,4.1-1.7V1409z M1602.9,1420.3h-5.1l-9.2-24h5.9l5.9,16.6l5.9-16.6h5.9L1602.9,1420.3z M1615.1,1392.6v-6h6v6H1615.1z M1615.1,1420.3v-24h6v24H1615.1z M1631.3,1409.6c0.7,4.5,4,6.3,7.2,6.3c2.3,0,5.4-0.9,7.4-2l0.3,5c-1.8,1-4.6,1.8-8,1.8c-8.7,0-13-5.7-13-12.4c0-6.7,4.1-12.4,11.5-12.4c6,0,10.6,4.1,10.6,10.4c0,1.1-0.1,2.1-0.4,3.3H1631.3z M1631.5,1405.5h9.7c0-2.2-1.1-4.8-4.3-4.8C1633.8,1400.8,1632.1,1402.8,1631.5,1405.5z M1663.8,1401.5h-2.2c-2,0-3.7,1.1-4.4,2.4v16.4h-6v-24h5.6l0.1,2.5c1.2-1.3,3.6-2.9,6.4-2.9h1.6L1663.8,1401.5z M1684.5,1419.1v12.8h-6v-35.6h5.2l0.5,1.4c1.6-1.1,3.3-1.8,5.9-1.8c7.7,0,11.8,5.7,11.8,12.4s-4.1,12.4-11.8,12.4C1687.6,1420.8,1686.1,1420.2,1684.5,1419.1z M1684.2,1408.3c0,4.5,1.7,7.5,5.5,7.5c3.8,0,6-3.1,6-7.5c0-4.5-2.2-7.5-6-7.5C1685.9,1400.8,1684.2,1403.9,1684.2,1408.3z M1704.5,1408.3c0-6.7,4.5-12.4,12.1-12.4s12.1,5.7,12.1,12.4s-4.5,12.4-12.1,12.4S1704.5,1415.1,1704.5,1408.3z M1710.6,1408.3c0,4.5,2.2,7.5,6,7.5c3.8,0,6-3.1,6-7.5c0-4.5-2.2-7.5-6-7.5C1712.8,1400.8,1710.6,1403.9,1710.6,1408.3z M1748.3,1420.3l-0.1-1.4c-1.4,1.1-3.5,1.9-5.3,1.9c-7.5,0-10.2-4.8-10.2-11.6v-12.9h6v12.9c0,4.5,1.4,6.6,4.8,6.6c2,0,3.4-0.7,4.5-2v-17.5h6v24H1748.3z M1772,1401.5h-2.2c-2,0-3.7,1.1-4.4,2.4v16.4h-6v-24h5.6l0.1,2.5c1.2-1.3,3.6-2.9,6.4-2.9h1.6L1772,1401.5z M1794.1,1401.2v19.1h-6v-19.1h-3.4l0.5-4.9h2.9v-5.7c0-3.1,1.9-6.3,5.8-6.3c3.2,0,3.8,0.1,5.4,0.3l-0.5,4.9c-1.1-0.2-2.2-0.2-2.5-0.2c-1.8,0-2.2,0.8-2.2,3.7v3.3h5.3v4.9H1794.1z M1807.5,1409.6c0.7,4.5,4,6.3,7.2,6.3c2.3,0,5.4-0.9,7.4-2l0.3,5c-1.8,1-4.6,1.8-8,1.8c-8.7,0-13-5.7-13-12.4c0-6.7,4.1-12.4,11.5-12.4c6,0,10.6,4.1,10.6,10.4c0,1.1-0.1,2.1-0.4,3.3H1807.5z M1807.6,1405.5h9.7c0-2.2-1.1-4.8-4.3-4.8C1809.9,1400.8,1808.2,1402.8,1807.6,1405.5z M1840,1401.5h-2.2c-2,0-3.7,1.1-4.4,2.4v16.4h-6v-24h5.6l0.1,2.5c1.2-1.3,3.6-2.9,6.4-2.9h1.6L1840,1401.5z M1874.2,1420.3v-12.9c0-4.4-1.2-6.6-4.5-6.6c-3.9,0-4.8,2.2-4.8,4.7v14.8h-5.9v-12.9c0-5.2-1.4-6.6-4.8-6.6c-1.9,0-3.4,0.7-4.4,2v17.5h-6v-24h4.9l0.3,1.9c1.4-1.2,3.6-2.3,6.1-2.3c2.8,0,5.7,1.2,7.3,3.6c0.8-1.5,3.6-3.6,8-3.6c6.5,0,9.6,4.8,9.6,11.5v12.9H1874.2z M1890.2,1409.6c0.7,4.5,4,6.3,7.2,6.3c2.3,0,5.4-0.9,7.4-2l0.3,5c-1.8,1-4.6,1.8-8,1.8c-8.7,0-13-5.7-13-12.4c0-6.7,4.1-12.4,11.5-12.4c6,0,10.6,4.1,10.6,10.4c0,1.1-0.1,2.1-0.4,3.3H1890.2z M1890.3,1405.5h9.7c0-2.2-1.1-4.8-4.3-4.8C1892.6,1400.8,1890.9,1402.8,1890.3,1405.5z M1922.7,1401.5h-2.2c-2,0-3.7,1.1-4.4,2.4v16.4h-6v-24h5.6l0.1,2.5c1.2-1.3,3.6-2.9,6.4-2.9h1.6L1922.7,1401.5z"/>
			<path id="Y_1_" class="st16" d="M713.6,1366.6c20.1,0,36.5,16.4,36.5,36.5c0,20.1-16.4,36.5-36.5,36.5c-20.1,0-36.5-16.4-36.5-36.5C677.1,1383,693.5,1366.6,713.6,1366.6 M713.6,1360.6c-23.5,0-42.5,19-42.5,42.5s19,42.5,42.5,42.5c23.5,0,42.5-19,42.5-42.5S737.1,1360.6,713.6,1360.6L713.6,1360.6z M700.9,1422.7v-37.8h10.2c8.7,0,14.5,1.4,14.5,9.7c0,3.4-1,6-3.2,7.9c4.4,1.7,6.6,4.3,6.6,9.1c0,8.7-7.2,11.1-13.5,11.1H700.9z M707.8,1390.8v9.3h6.8c1.9,0,4.6-0.8,4.6-4.4c0-3.9-2.1-4.9-5.2-4.9H707.8z M707.8,1405.5v11.3h6.8c4.4,0,7.2-1.4,7.2-5.6c0-4.4-3-5.7-6.9-5.7H707.8z"/>
			<path class="st16" d="M1420.9,1366.6v73h-99.1v-73H1420.9 M1426.9,1360.6h-111.1v85h111.1V1360.6L1426.9,1360.6z M1348.9,1394.4v24.7h-5v-24.7h-8.4v-4.7h21.8v4.7H1348.9z M1376.7,1419.1l-2.6-7.4h-10.3l-2.6,7.4h-5.2l10.5-29.4h4.8l10.5,29.4H1376.7z M1368.9,1397.3l-3.4,9.8h6.9L1368.9,1397.3z M1385.3,1419.1v-29.4h7.5c6.8,0,11.2,1,11.2,7.5c0,2.6-0.5,4.5-2.5,6.2c3.6,1.4,5.1,3.5,5.1,7c0,7.1-5.5,8.7-10.4,8.7H1385.3z M1390.3,1394v7.6h5.2c1.8,0,3.9-0.5,3.9-3.8c0-3.3-1.9-3.8-4.6-3.8H1390.3z M1390.3,1405.7v9.2h5c3.9,0,6.3-0.9,6.3-4.5c0-3.7-2.4-4.7-5.5-4.7H1390.3z"/>
		</g>
		<text transform="matrix(1 0 0 1 319.1685 660.0153)"><tspan x="0" y="0" class="st2 st27 st28">Vous êtes sur la démo de sSpace. </tspan><tspan x="26.6" y="141" class="st2 st27 st29">Certaines limites ne peuvent pas être dépassées.</tspan></text>
	</g>

</svg>