<svg version="1.1" xmlns="http://www.w3.org/2000/svg" xmlns:xlink="http://www.w3.org/1999/xlink" x="0px" y="0px" width="467.7px" height="453.5px" viewBox="0 0 467.7 453.5" xml:space="preserve">

	<defs>
		<style type="text/css">@import url('../../stylesheets/css/sspace.css')</style>
	</defs>

	<style type="text/css">
			svg{font-size: 62.5%;}
			.st3{fill:#FFFFFF;}
			.st27{fill:#363664;}
			.st28{font-family:'Cabin'; font-weight: 600;}
			.st29{font-size:4.2rem;}
	</style>

	<g id="vrschedule">
		<path class="st3" d="M459.7,8v281.6H8V8H459.7 M467.7,0H0v297.6h467.7V0L467.7,0z"/>
		<rect x="0" y="297.6" class="st3" width="467.7" height="155.9"/>
		<text transform="matrix(1 0 0 1 56.6926 385.8302)" class="st27 st28 st29">vrSchedule</text>
		<linearGradient id="SVGID_2_" gradientUnits="userSpaceOnUse" x1="134.6599" y1="148.7639" x2="333.0707" y2="148.7639">
			<stop  offset="0" style="stop-color:#CF534D"/>
			<stop  offset="1" style="stop-color:#8CCBCB"/>
		</linearGradient>
		<path style="fill:url(#SVGID_2_);" d="M262.8,229.8L223.3,207l3.1-5.4l33.3,19.2v-64.6l-52.4,53.1l-72.7-42l59.5-60.1l68.7-39.6l70.2,40.5v81.1L262.8,229.8z M265.9,150.6v70.3l4.9-2.9v-70.3L265.9,150.6z M277.1,144.1v70.3l5.1-2.9v-70.3L277.1,144.1zM288.4,137.6v70.3l5.1-2.9v-70.3L288.4,137.6z M144.7,166.1l61.6,35.6l51.5-52.2l-61.6-35.5L144.7,166.1z M299.6,131.1v70.3l5.1-2.9v-70.3L299.6,131.1z M310.9,124.6v70.3l5.1-2.9v-70.3L310.9,124.6z M322.2,118.1v70.3l4.7-2.7v-70.3L322.2,118.1zM201.9,110l60.9,35.2l60.9-35.2l-60.9-35.1L201.9,110z M203.4,184.8l-4.4-4.3l23.8-24.4l-7.3-0.9l0.8-6.2l19.6,2.5L203.4,184.8zM184.9,174.6l-19.8-11.4l3.7-5.6l1.4-0.2c22.7-3.1,32.4-8.6,34-12.7c0.3-0.7,0.5-1.7-0.7-3c-1.6-1.8-5.3-3.3-8.9-2.5l-1.3-6.1c5.5-1.2,11.6,0.6,15,4.5c2.3,2.7,3,6.1,1.8,9.3c-2.7,7.2-14.2,12.6-33.3,15.8l11.4,6.6L184.9,174.6z"/>
	</g>

</svg>