<svg version="1.1" id="isoField" xmlns="http://www.w3.org/2000/svg" xmlns:xlink="http://www.w3.org/1999/xlink" x="0px" y="0px" width="5000px" height="2525px" viewBox="0 0 5000 2525" xml:space="preserve">

	<rect id="background" y="0" fill="#363664" stroke="url(#background_1_)" stroke-miterlimit="10" width="5000" height="2525"/>
	<g id="iso">
		<defs>
			<rect id="mask" y="0" width="5000" height="2525"/>
		</defs>
		<clipPath id="mask_1_">
			<use xlink:href="#mask"  overflow="visible"/>
		</clipPath>
		<path opacity="0.25" clip-path="url(#mask_1_)" fill="none" stroke="#FFFFFF" stroke-miterlimit="10" d="M5781.3,451.1L5625,541.3l-156.3-90.2V270.6l156.3-90.2l156.3,90.2V451.1z M5468.8,451.1l-156.3-90.2l-156.3,90.2v180.4l156.3,90.2l156.3-90.2V451.1z M5156.3,270.6L5000,180.4l-156.3,90.2v180.4l156.3,90.2l156.3-90.2V270.6z M5781.3-90.2L5625-180.4l-156.3,90.2V90.2l156.3,90.2l156.3-90.2V-90.2z M5468.8,90.2L5312.5,0l-156.3,90.2v180.4l156.3,90.2l156.3-90.2V90.2z M5156.3-90.2L5000-180.4l-156.3,90.2V90.2l156.3,90.2l156.3-90.2V-90.2z M5468.8-270.6l-156.3-90.2l-156.3,90.2v180.4L5312.5,0l156.3-90.2V-270.6z M5781.3,631.5L5625,541.3l-156.3,90.2v180.4l156.3,90.2l156.3-90.2V631.5z M5468.8,811.9l-156.3-90.2l-156.3,90.2v180.4l156.3,90.2l156.3-90.2V811.9z M5156.3,631.5L5000,541.3l-156.3,90.2v180.4l156.3,90.2l156.3-90.2V631.5z M5781.3,270.6L5625,180.4l-156.3,90.2v180.4l156.3,90.2l156.3-90.2V270.6z M5468.8,451.1l-156.3-90.2l-156.3,90.2v180.4l156.3,90.2l156.3-90.2V451.1z M5156.3,270.6L5000,180.4l-156.3,90.2v180.4l156.3,90.2l156.3-90.2V270.6z M5468.8,90.2L5312.5,0l-156.3,90.2v180.4l156.3,90.2l156.3-90.2V90.2z M5781.3,992.3L5625,902.1l-156.3,90.2v180.4L5625,1263l156.3-90.2V992.3z M5468.8,1172.7l-156.3-90.2l-156.3,90.2v180.4l156.3,90.2l156.3-90.2V1172.7z M5156.3,992.3L5000,902.1l-156.3,90.2v180.4L5000,1263l156.3-90.2V992.3z M5781.3,631.5L5625,541.3l-156.3,90.2v180.4l156.3,90.2l156.3-90.2V631.5z M5468.8,811.9l-156.3-90.2l-156.3,90.2v180.4l156.3,90.2l156.3-90.2V811.9z M5156.3,631.5L5000,541.3l-156.3,90.2v180.4l156.3,90.2l156.3-90.2V631.5z M5468.8,451.1l-156.3-90.2l-156.3,90.2v180.4l156.3,90.2l156.3-90.2V451.1z M5781.3,1353.2L5625,1263l-156.3,90.2v180.4l156.3,90.2l156.3-90.2V1353.2z M5468.8,1533.6l-156.3-90.2l-156.3,90.2V1714l156.3,90.2l156.3-90.2V1533.6z M5156.3,1353.2L5000,1263l-156.3,90.2v180.4l156.3,90.2l156.3-90.2V1353.2z M5781.3,992.3L5625,902.1l-156.3,90.2v180.4L5625,1263l156.3-90.2V992.3z M5468.8,1172.7l-156.3-90.2l-156.3,90.2v180.4l156.3,90.2l156.3-90.2V1172.7z M5156.3,992.3L5000,902.1l-156.3,90.2v180.4L5000,1263l156.3-90.2V992.3z M5468.8,811.9l-156.3-90.2l-156.3,90.2v180.4l156.3,90.2l156.3-90.2V811.9z M5781.3,1714l-156.3-90.2l-156.3,90.2v180.4l156.3,90.2l156.3-90.2V1714z M5468.8,1894.4l-156.3-90.2l-156.3,90.2v180.4l156.3,90.2l156.3-90.2V1894.4z M5156.3,1714l-156.3-90.2l-156.3,90.2v180.4l156.3,90.2l156.3-90.2V1714z M5781.3,1353.2L5625,1263l-156.3,90.2v180.4l156.3,90.2l156.3-90.2V1353.2z M5468.8,1533.6l-156.3-90.2l-156.3,90.2V1714l156.3,90.2l156.3-90.2V1533.6z M5156.3,1353.2L5000,1263l-156.3,90.2v180.4l156.3,90.2l156.3-90.2V1353.2z M5468.8,1172.7l-156.3-90.2l-156.3,90.2v180.4l156.3,90.2l156.3-90.2V1172.7z M5781.3,2074.9l-156.3-90.2l-156.3,90.2v180.4l156.3,90.2l156.3-90.2V2074.9z M5468.8,2255.3l-156.3-90.2l-156.3,90.2v180.4l156.3,90.2l156.3-90.2V2255.3z M5156.3,2074.9l-156.3-90.2l-156.3,90.2v180.4l156.3,90.2l156.3-90.2V2074.9z M5781.3,1714l-156.3-90.2l-156.3,90.2v180.4l156.3,90.2l156.3-90.2V1714z M5468.8,1894.4l-156.3-90.2l-156.3,90.2v180.4l156.3,90.2l156.3-90.2V1894.4z M5156.3,1714l-156.3-90.2l-156.3,90.2v180.4l156.3,90.2l156.3-90.2V1714z M5468.8,1533.6l-156.3-90.2l-156.3,90.2V1714l156.3,90.2l156.3-90.2V1533.6z M5781.3,2435.7l-156.3-90.2l-156.3,90.2v180.4l156.3,90.2l156.3-90.2V2435.7z M5468.8,2616.1l-156.3-90.2l-156.3,90.2v180.4l156.3,90.2l156.3-90.2V2616.1z M5156.3,2435.7l-156.3-90.2l-156.3,90.2v180.4l156.3,90.2l156.3-90.2V2435.7z M5781.3,2074.9l-156.3-90.2l-156.3,90.2v180.4l156.3,90.2l156.3-90.2V2074.9z M5468.8,2255.3l-156.3-90.2l-156.3,90.2v180.4l156.3,90.2l156.3-90.2V2255.3z M5156.3,2074.9l-156.3-90.2l-156.3,90.2v180.4l156.3,90.2l156.3-90.2V2074.9z M5468.8,1894.4l-156.3-90.2l-156.3,90.2v180.4l156.3,90.2l156.3-90.2V1894.4z M5156.3,270.6L5000,180.4l-156.3,90.2v180.4l156.3,90.2l156.3-90.2V270.6z M4843.8,451.1l-156.3-90.2l-156.3,90.2v180.4l156.3,90.2l156.3-90.2V451.1z M4531.3,270.6L4375,180.4l-156.3,90.2v180.4l156.3,90.2l156.3-90.2V270.6z M5156.3-90.2L5000-180.4l-156.3,90.2V90.2l156.3,90.2l156.3-90.2V-90.2z M4843.8,90.2L4687.5,0l-156.3,90.2v180.4l156.3,90.2l156.3-90.2V90.2z M4531.3-90.2L4375-180.4l-156.3,90.2V90.2l156.3,90.2l156.3-90.2V-90.2z M4843.8-270.6l-156.3-90.2l-156.3,90.2v180.4L4687.5,0l156.3-90.2V-270.6z M5156.3,631.5L5000,541.3l-156.3,90.2v180.4l156.3,90.2l156.3-90.2V631.5z M4843.8,811.9l-156.3-90.2l-156.3,90.2v180.4l156.3,90.2l156.3-90.2V811.9z M4531.3,631.5L4375,541.3l-156.3,90.2v180.4l156.3,90.2l156.3-90.2V631.5z M5156.3,270.6L5000,180.4l-156.3,90.2v180.4l156.3,90.2l156.3-90.2V270.6z M4843.8,451.1l-156.3-90.2l-156.3,90.2v180.4l156.3,90.2l156.3-90.2V451.1z M4531.3,270.6L4375,180.4l-156.3,90.2v180.4l156.3,90.2l156.3-90.2V270.6z M4843.8,90.2L4687.5,0l-156.3,90.2v180.4l156.3,90.2l156.3-90.2V90.2z M5156.3,992.3L5000,902.1l-156.3,90.2v180.4L5000,1263l156.3-90.2V992.3z M4843.8,1172.7l-156.3-90.2l-156.3,90.2v180.4l156.3,90.2l156.3-90.2V1172.7z M4531.3,992.3L4375,902.1l-156.3,90.2v180.4L4375,1263l156.3-90.2V992.3z M5156.3,631.5L5000,541.3l-156.3,90.2v180.4l156.3,90.2l156.3-90.2V631.5z M4843.8,811.9l-156.3-90.2l-156.3,90.2v180.4l156.3,90.2l156.3-90.2V811.9z M4531.3,631.5L4375,541.3l-156.3,90.2v180.4l156.3,90.2l156.3-90.2V631.5z M4843.8,451.1l-156.3-90.2l-156.3,90.2v180.4l156.3,90.2l156.3-90.2V451.1z M5156.3,1353.2L5000,1263l-156.3,90.2v180.4l156.3,90.2l156.3-90.2V1353.2z M4843.8,1533.6l-156.3-90.2l-156.3,90.2V1714l156.3,90.2l156.3-90.2V1533.6z M4531.3,1353.2L4375,1263l-156.3,90.2v180.4l156.3,90.2l156.3-90.2V1353.2z M5156.3,992.3L5000,902.1l-156.3,90.2v180.4L5000,1263l156.3-90.2V992.3z M4843.8,1172.7l-156.3-90.2l-156.3,90.2v180.4l156.3,90.2l156.3-90.2V1172.7z M4531.3,992.3L4375,902.1l-156.3,90.2v180.4L4375,1263l156.3-90.2V992.3z M4843.8,811.9l-156.3-90.2l-156.3,90.2v180.4l156.3,90.2l156.3-90.2V811.9z M5156.3,1714l-156.3-90.2l-156.3,90.2v180.4l156.3,90.2l156.3-90.2V1714z M4843.8,1894.4l-156.3-90.2l-156.3,90.2v180.4l156.3,90.2l156.3-90.2V1894.4z M4531.3,1714l-156.3-90.2l-156.3,90.2v180.4l156.3,90.2l156.3-90.2V1714z M5156.3,1353.2L5000,1263l-156.3,90.2v180.4l156.3,90.2l156.3-90.2V1353.2z M4843.8,1533.6l-156.3-90.2l-156.3,90.2V1714l156.3,90.2l156.3-90.2V1533.6z M4531.3,1353.2L4375,1263l-156.3,90.2v180.4l156.3,90.2l156.3-90.2V1353.2z M4843.8,1172.7l-156.3-90.2l-156.3,90.2v180.4l156.3,90.2l156.3-90.2V1172.7z M5156.3,2074.9l-156.3-90.2l-156.3,90.2v180.4l156.3,90.2l156.3-90.2V2074.9z M4843.8,2255.3l-156.3-90.2l-156.3,90.2v180.4l156.3,90.2l156.3-90.2V2255.3z M4531.3,2074.9l-156.3-90.2l-156.3,90.2v180.4l156.3,90.2l156.3-90.2V2074.9z M5156.3,1714l-156.3-90.2l-156.3,90.2v180.4l156.3,90.2l156.3-90.2V1714z M4843.8,1894.4l-156.3-90.2l-156.3,90.2v180.4l156.3,90.2l156.3-90.2V1894.4z M4531.3,1714l-156.3-90.2l-156.3,90.2v180.4l156.3,90.2l156.3-90.2V1714z M4843.8,1533.6l-156.3-90.2l-156.3,90.2V1714l156.3,90.2l156.3-90.2V1533.6z M5156.3,2435.7l-156.3-90.2l-156.3,90.2v180.4l156.3,90.2l156.3-90.2V2435.7z M4843.8,2616.1l-156.3-90.2l-156.3,90.2v180.4l156.3,90.2l156.3-90.2V2616.1z M4531.3,2435.7l-156.3-90.2l-156.3,90.2v180.4l156.3,90.2l156.3-90.2V2435.7z M5156.3,2074.9l-156.3-90.2l-156.3,90.2v180.4l156.3,90.2l156.3-90.2V2074.9z M4843.8,2255.3l-156.3-90.2l-156.3,90.2v180.4l156.3,90.2l156.3-90.2V2255.3z M4531.3,2074.9l-156.3-90.2l-156.3,90.2v180.4l156.3,90.2l156.3-90.2V2074.9z M4843.8,1894.4l-156.3-90.2l-156.3,90.2v180.4l156.3,90.2l156.3-90.2V1894.4z M4531.3,270.6L4375,180.4l-156.3,90.2v180.4l156.3,90.2l156.3-90.2V270.6z M4218.8,451.1l-156.3-90.2l-156.3,90.2v180.4l156.3,90.2l156.3-90.2V451.1z M3906.3,270.6L3750,180.4l-156.3,90.2v180.4l156.3,90.2l156.3-90.2V270.6z M4531.3-90.2L4375-180.4l-156.3,90.2V90.2l156.3,90.2l156.3-90.2V-90.2z M4218.8,90.2L4062.5,0l-156.3,90.2v180.4l156.3,90.2l156.3-90.2V90.2z M3906.3-90.2L3750-180.4l-156.3,90.2V90.2l156.3,90.2l156.3-90.2V-90.2z M4218.8-270.6l-156.3-90.2l-156.3,90.2v180.4L4062.5,0l156.3-90.2V-270.6z M4531.3,631.5L4375,541.3l-156.3,90.2v180.4l156.3,90.2l156.3-90.2V631.5z M4218.8,811.9l-156.3-90.2l-156.3,90.2v180.4l156.3,90.2l156.3-90.2V811.9z M3906.3,631.5L3750,541.3l-156.3,90.2v180.4l156.3,90.2l156.3-90.2V631.5z M4531.3,270.6L4375,180.4l-156.3,90.2v180.4l156.3,90.2l156.3-90.2V270.6z M4218.8,451.1l-156.3-90.2l-156.3,90.2v180.4l156.3,90.2l156.3-90.2V451.1z M3906.3,270.6L3750,180.4l-156.3,90.2v180.4l156.3,90.2l156.3-90.2V270.6z M4218.8,90.2L4062.5,0l-156.3,90.2v180.4l156.3,90.2l156.3-90.2V90.2z M4531.3,992.3L4375,902.1l-156.3,90.2v180.4L4375,1263l156.3-90.2V992.3z M4218.8,1172.7l-156.3-90.2l-156.3,90.2v180.4l156.3,90.2l156.3-90.2V1172.7z M3906.3,992.3L3750,902.1l-156.3,90.2v180.4L3750,1263l156.3-90.2V992.3z M4531.3,631.5L4375,541.3l-156.3,90.2v180.4l156.3,90.2l156.3-90.2V631.5z M4218.8,811.9l-156.3-90.2l-156.3,90.2v180.4l156.3,90.2l156.3-90.2V811.9z M3906.3,631.5L3750,541.3l-156.3,90.2v180.4l156.3,90.2l156.3-90.2V631.5z M4218.8,451.1l-156.3-90.2l-156.3,90.2v180.4l156.3,90.2l156.3-90.2V451.1z M4531.3,1353.2L4375,1263l-156.3,90.2v180.4l156.3,90.2l156.3-90.2V1353.2z M4218.8,1533.6l-156.3-90.2l-156.3,90.2V1714l156.3,90.2l156.3-90.2V1533.6z M3906.3,1353.2L3750,1263l-156.3,90.2v180.4l156.3,90.2l156.3-90.2V1353.2z M4531.3,992.3L4375,902.1l-156.3,90.2v180.4L4375,1263l156.3-90.2V992.3z M4218.8,1172.7l-156.3-90.2l-156.3,90.2v180.4l156.3,90.2l156.3-90.2V1172.7z M3906.3,992.3L3750,902.1l-156.3,90.2v180.4L3750,1263l156.3-90.2V992.3z M4218.8,811.9l-156.3-90.2l-156.3,90.2v180.4l156.3,90.2l156.3-90.2V811.9z M4531.3,1714l-156.3-90.2l-156.3,90.2v180.4l156.3,90.2l156.3-90.2V1714z M4218.8,1894.4l-156.3-90.2l-156.3,90.2v180.4l156.3,90.2l156.3-90.2V1894.4z M3906.3,1714l-156.3-90.2l-156.3,90.2v180.4l156.3,90.2l156.3-90.2V1714z M4531.3,1353.2L4375,1263l-156.3,90.2v180.4l156.3,90.2l156.3-90.2V1353.2z M4218.8,1533.6l-156.3-90.2l-156.3,90.2V1714l156.3,90.2l156.3-90.2V1533.6z M3906.3,1353.2L3750,1263l-156.3,90.2v180.4l156.3,90.2l156.3-90.2V1353.2z M4218.8,1172.7l-156.3-90.2l-156.3,90.2v180.4l156.3,90.2l156.3-90.2V1172.7z M4531.3,2074.9l-156.3-90.2l-156.3,90.2v180.4l156.3,90.2l156.3-90.2V2074.9z M4218.8,2255.3l-156.3-90.2l-156.3,90.2v180.4l156.3,90.2l156.3-90.2V2255.3z M3906.3,2074.9l-156.3-90.2l-156.3,90.2v180.4l156.3,90.2l156.3-90.2V2074.9z M4531.3,1714l-156.3-90.2l-156.3,90.2v180.4l156.3,90.2l156.3-90.2V1714z M4218.8,1894.4l-156.3-90.2l-156.3,90.2v180.4l156.3,90.2l156.3-90.2V1894.4z M3906.3,1714l-156.3-90.2l-156.3,90.2v180.4l156.3,90.2l156.3-90.2V1714z M4218.8,1533.6l-156.3-90.2l-156.3,90.2V1714l156.3,90.2l156.3-90.2V1533.6z M4531.3,2435.7l-156.3-90.2l-156.3,90.2v180.4l156.3,90.2l156.3-90.2V2435.7z M4218.8,2616.1l-156.3-90.2l-156.3,90.2v180.4l156.3,90.2l156.3-90.2V2616.1z M3906.3,2435.7l-156.3-90.2l-156.3,90.2v180.4l156.3,90.2l156.3-90.2V2435.7z M4531.3,2074.9l-156.3-90.2l-156.3,90.2v180.4l156.3,90.2l156.3-90.2V2074.9z M4218.8,2255.3l-156.3-90.2l-156.3,90.2v180.4l156.3,90.2l156.3-90.2V2255.3z M3906.3,2074.9l-156.3-90.2l-156.3,90.2v180.4l156.3,90.2l156.3-90.2V2074.9z M4218.8,1894.4l-156.3-90.2l-156.3,90.2v180.4l156.3,90.2l156.3-90.2V1894.4z M3906.3,270.6L3750,180.4l-156.3,90.2v180.4l156.3,90.2l156.3-90.2V270.6z M3593.8,451.1l-156.3-90.2l-156.3,90.2v180.4l156.3,90.2l156.3-90.2V451.1z M3281.3,270.6L3125,180.4l-156.3,90.2v180.4l156.3,90.2l156.3-90.2V270.6z M3906.3-90.2L3750-180.4l-156.3,90.2V90.2l156.3,90.2l156.3-90.2V-90.2z M3593.8,90.2L3437.5,0l-156.3,90.2v180.4l156.3,90.2l156.3-90.2V90.2z M3281.3-90.2L3125-180.4l-156.3,90.2V90.2l156.3,90.2l156.3-90.2V-90.2z M3593.8-270.6l-156.3-90.2l-156.3,90.2v180.4L3437.5,0l156.3-90.2V-270.6z M3906.3,631.5L3750,541.3l-156.3,90.2v180.4l156.3,90.2l156.3-90.2V631.5z M3593.8,811.9l-156.3-90.2l-156.3,90.2v180.4l156.3,90.2l156.3-90.2V811.9z M3281.3,631.5L3125,541.3l-156.3,90.2v180.4l156.3,90.2l156.3-90.2V631.5z M3906.3,270.6L3750,180.4l-156.3,90.2v180.4l156.3,90.2l156.3-90.2V270.6z M3593.8,451.1l-156.3-90.2l-156.3,90.2v180.4l156.3,90.2l156.3-90.2V451.1z M3281.3,270.6L3125,180.4l-156.3,90.2v180.4l156.3,90.2l156.3-90.2V270.6z M3593.8,90.2L3437.5,0l-156.3,90.2v180.4l156.3,90.2l156.3-90.2V90.2z M3906.3,992.3L3750,902.1l-156.3,90.2v180.4L3750,1263l156.3-90.2V992.3z M3593.8,1172.7l-156.3-90.2l-156.3,90.2v180.4l156.3,90.2l156.3-90.2V1172.7z M3281.3,992.3L3125,902.1l-156.3,90.2v180.4L3125,1263l156.3-90.2V992.3z M3906.3,631.5L3750,541.3l-156.3,90.2v180.4l156.3,90.2l156.3-90.2V631.5z M3593.8,811.9l-156.3-90.2l-156.3,90.2v180.4l156.3,90.2l156.3-90.2V811.9z M3281.3,631.5L3125,541.3l-156.3,90.2v180.4l156.3,90.2l156.3-90.2V631.5z M3593.8,451.1l-156.3-90.2l-156.3,90.2v180.4l156.3,90.2l156.3-90.2V451.1z M3906.3,1353.2L3750,1263l-156.3,90.2v180.4l156.3,90.2l156.3-90.2V1353.2z M3593.8,1533.6l-156.3-90.2l-156.3,90.2V1714l156.3,90.2l156.3-90.2V1533.6z M3281.3,1353.2L3125,1263l-156.3,90.2v180.4l156.3,90.2l156.3-90.2V1353.2z M3906.3,992.3L3750,902.1l-156.3,90.2v180.4L3750,1263l156.3-90.2V992.3z M3593.8,1172.7l-156.3-90.2l-156.3,90.2v180.4l156.3,90.2l156.3-90.2V1172.7z M3281.3,992.3L3125,902.1l-156.3,90.2v180.4L3125,1263l156.3-90.2V992.3z M3593.8,811.9l-156.3-90.2l-156.3,90.2v180.4l156.3,90.2l156.3-90.2V811.9z M3906.3,1714l-156.3-90.2l-156.3,90.2v180.4l156.3,90.2l156.3-90.2V1714z M3593.8,1894.4l-156.3-90.2l-156.3,90.2v180.4l156.3,90.2l156.3-90.2V1894.4z M3281.3,1714l-156.3-90.2l-156.3,90.2v180.4l156.3,90.2l156.3-90.2V1714z M3906.3,1353.2L3750,1263l-156.3,90.2v180.4l156.3,90.2l156.3-90.2V1353.2z M3593.8,1533.6l-156.3-90.2l-156.3,90.2V1714l156.3,90.2l156.3-90.2V1533.6z M3281.3,1353.2L3125,1263l-156.3,90.2v180.4l156.3,90.2l156.3-90.2V1353.2z M3593.8,1172.7l-156.3-90.2l-156.3,90.2v180.4l156.3,90.2l156.3-90.2V1172.7z M3906.3,2074.9l-156.3-90.2l-156.3,90.2v180.4l156.3,90.2l156.3-90.2V2074.9z M3593.8,2255.3l-156.3-90.2l-156.3,90.2v180.4l156.3,90.2l156.3-90.2V2255.3z M3281.3,2074.9l-156.3-90.2l-156.3,90.2v180.4l156.3,90.2l156.3-90.2V2074.9z M3906.3,1714l-156.3-90.2l-156.3,90.2v180.4l156.3,90.2l156.3-90.2V1714z M3593.8,1894.4l-156.3-90.2l-156.3,90.2v180.4l156.3,90.2l156.3-90.2V1894.4z M3281.3,1714l-156.3-90.2l-156.3,90.2v180.4l156.3,90.2l156.3-90.2V1714z M3593.8,1533.6l-156.3-90.2l-156.3,90.2V1714l156.3,90.2l156.3-90.2V1533.6z M3906.3,2435.7l-156.3-90.2l-156.3,90.2v180.4l156.3,90.2l156.3-90.2V2435.7z M3593.8,2616.1l-156.3-90.2l-156.3,90.2v180.4l156.3,90.2l156.3-90.2V2616.1z M3281.3,2435.7l-156.3-90.2l-156.3,90.2v180.4l156.3,90.2l156.3-90.2V2435.7z M3906.3,2074.9l-156.3-90.2l-156.3,90.2v180.4l156.3,90.2l156.3-90.2V2074.9z M3593.8,2255.3l-156.3-90.2l-156.3,90.2v180.4l156.3,90.2l156.3-90.2V2255.3z M3281.3,2074.9l-156.3-90.2l-156.3,90.2v180.4l156.3,90.2l156.3-90.2V2074.9z M3593.8,1894.4l-156.3-90.2l-156.3,90.2v180.4l156.3,90.2l156.3-90.2V1894.4z M3281.3,270.6L3125,180.4l-156.3,90.2v180.4l156.3,90.2l156.3-90.2V270.6z M2968.8,451.1l-156.3-90.2l-156.3,90.2v180.4l156.3,90.2l156.3-90.2V451.1z M2656.3,270.6L2500,180.4l-156.3,90.2v180.4l156.3,90.2l156.3-90.2V270.6z M3281.3-90.2L3125-180.4l-156.3,90.2V90.2l156.3,90.2l156.3-90.2V-90.2z M2968.8,90.2L2812.5,0l-156.3,90.2v180.4l156.3,90.2l156.3-90.2V90.2z M2656.3-90.2L2500-180.4l-156.3,90.2V90.2l156.3,90.2l156.3-90.2V-90.2z M2968.8-270.6l-156.3-90.2l-156.3,90.2v180.4L2812.5,0l156.3-90.2V-270.6z M3281.3,631.5L3125,541.3l-156.3,90.2v180.4l156.3,90.2l156.3-90.2V631.5z M2968.8,811.9l-156.3-90.2l-156.3,90.2v180.4l156.3,90.2l156.3-90.2V811.9z M2656.3,631.5L2500,541.3l-156.3,90.2v180.4l156.3,90.2l156.3-90.2V631.5z M3281.3,270.6L3125,180.4l-156.3,90.2v180.4l156.3,90.2l156.3-90.2V270.6z M2968.8,451.1l-156.3-90.2l-156.3,90.2v180.4l156.3,90.2l156.3-90.2V451.1z M2656.3,270.6L2500,180.4l-156.3,90.2v180.4l156.3,90.2l156.3-90.2V270.6z M2968.8,90.2L2812.5,0l-156.3,90.2v180.4l156.3,90.2l156.3-90.2V90.2z M3281.3,992.3L3125,902.1l-156.3,90.2v180.4L3125,1263l156.3-90.2V992.3z M2968.8,1172.7l-156.3-90.2l-156.3,90.2v180.4l156.3,90.2l156.3-90.2V1172.7z M2656.3,992.3L2500,902.1l-156.3,90.2v180.4L2500,1263l156.3-90.2V992.3z M3281.3,631.5L3125,541.3l-156.3,90.2v180.4l156.3,90.2l156.3-90.2V631.5z M2968.8,811.9l-156.3-90.2l-156.3,90.2v180.4l156.3,90.2l156.3-90.2V811.9z M2656.3,631.5L2500,541.3l-156.3,90.2v180.4l156.3,90.2l156.3-90.2V631.5z M2968.8,451.1l-156.3-90.2l-156.3,90.2v180.4l156.3,90.2l156.3-90.2V451.1z M3281.3,1353.2L3125,1263l-156.3,90.2v180.4l156.3,90.2l156.3-90.2V1353.2z M2968.8,1533.6l-156.3-90.2l-156.3,90.2V1714l156.3,90.2l156.3-90.2V1533.6z M2656.3,1353.2L2500,1263l-156.3,90.2v180.4l156.3,90.2l156.3-90.2V1353.2z M3281.3,992.3L3125,902.1l-156.3,90.2v180.4L3125,1263l156.3-90.2V992.3z M2968.8,1172.7l-156.3-90.2l-156.3,90.2v180.4l156.3,90.2l156.3-90.2V1172.7z M2656.3,992.3L2500,902.1l-156.3,90.2v180.4L2500,1263l156.3-90.2V992.3z M2968.8,811.9l-156.3-90.2l-156.3,90.2v180.4l156.3,90.2l156.3-90.2V811.9z M3281.3,1714l-156.3-90.2l-156.3,90.2v180.4l156.3,90.2l156.3-90.2V1714z M2968.8,1894.4l-156.3-90.2l-156.3,90.2v180.4l156.3,90.2l156.3-90.2V1894.4z M2656.3,1714l-156.3-90.2l-156.3,90.2v180.4l156.3,90.2l156.3-90.2V1714z M3281.3,1353.2L3125,1263l-156.3,90.2v180.4l156.3,90.2l156.3-90.2V1353.2z M2968.8,1533.6l-156.3-90.2l-156.3,90.2V1714l156.3,90.2l156.3-90.2V1533.6z M2656.3,1353.2L2500,1263l-156.3,90.2v180.4l156.3,90.2l156.3-90.2V1353.2z M2968.8,1172.7l-156.3-90.2l-156.3,90.2v180.4l156.3,90.2l156.3-90.2V1172.7z M3281.3,2074.9l-156.3-90.2l-156.3,90.2v180.4l156.3,90.2l156.3-90.2V2074.9z M2968.8,2255.3l-156.3-90.2l-156.3,90.2v180.4l156.3,90.2l156.3-90.2V2255.3z M2656.3,2074.9l-156.3-90.2l-156.3,90.2v180.4l156.3,90.2l156.3-90.2V2074.9z M3281.3,1714l-156.3-90.2l-156.3,90.2v180.4l156.3,90.2l156.3-90.2V1714z M2968.8,1894.4l-156.3-90.2l-156.3,90.2v180.4l156.3,90.2l156.3-90.2V1894.4z M2656.3,1714l-156.3-90.2l-156.3,90.2v180.4l156.3,90.2l156.3-90.2V1714z M2968.8,1533.6l-156.3-90.2l-156.3,90.2V1714l156.3,90.2l156.3-90.2V1533.6z M3281.3,2435.7l-156.3-90.2l-156.3,90.2v180.4l156.3,90.2l156.3-90.2V2435.7z M2968.8,2616.1l-156.3-90.2l-156.3,90.2v180.4l156.3,90.2l156.3-90.2V2616.1z M2656.3,2435.7l-156.3-90.2l-156.3,90.2v180.4l156.3,90.2l156.3-90.2V2435.7z M3281.3,2074.9l-156.3-90.2l-156.3,90.2v180.4l156.3,90.2l156.3-90.2V2074.9z M2968.8,2255.3l-156.3-90.2l-156.3,90.2v180.4l156.3,90.2l156.3-90.2V2255.3z M2656.3,2074.9l-156.3-90.2l-156.3,90.2v180.4l156.3,90.2l156.3-90.2V2074.9z M2968.8,1894.4l-156.3-90.2l-156.3,90.2v180.4l156.3,90.2l156.3-90.2V1894.4z M2656.3,270.6L2500,180.4l-156.3,90.2v180.4l156.3,90.2l156.3-90.2V270.6z M2343.8,451.1l-156.3-90.2l-156.2,90.2l0,180.4l156.3,90.2l156.3-90.2V451.1z M2031.3,270.6L1875,180.4l-156.3,90.2l0,180.4l156.3,90.2l156.3-90.2V270.6z M2656.3-90.2L2500-180.4l-156.3,90.2V90.2l156.3,90.2l156.3-90.2V-90.2z M2343.8,90.2L2187.5,0l-156.2,90.2l0,180.4l156.3,90.2l156.3-90.2V90.2z M2031.3-90.2L1875-180.4l-156.3,90.2l0,180.4l156.3,90.2l156.3-90.2V-90.2z M2343.8-270.6l-156.3-90.2l-156.2,90.2l0,180.4L2187.5,0l156.3-90.2V-270.6z M2656.3,631.5L2500,541.3l-156.3,90.2v180.4l156.3,90.2l156.3-90.2V631.5z M2343.8,811.9l-156.3-90.2l-156.2,90.2l0,180.4l156.3,90.2l156.3-90.2V811.9z M2031.3,631.5L1875,541.3l-156.3,90.2l0,180.4l156.3,90.2l156.3-90.2V631.5z M2656.3,270.6L2500,180.4l-156.3,90.2v180.4l156.3,90.2l156.3-90.2V270.6z M2343.8,451.1l-156.3-90.2l-156.2,90.2l0,180.4l156.3,90.2l156.3-90.2V451.1z M2031.3,270.6L1875,180.4l-156.3,90.2l0,180.4l156.3,90.2l156.3-90.2V270.6z M2343.8,90.2L2187.5,0l-156.2,90.2l0,180.4l156.3,90.2l156.3-90.2V90.2z M2656.3,992.3L2500,902.1l-156.3,90.2v180.4L2500,1263l156.3-90.2V992.3z M2343.8,1172.7l-156.3-90.2l-156.2,90.2l0,180.4l156.3,90.2l156.3-90.2V1172.7z M2031.3,992.3L1875,902.1l-156.3,90.2l0,180.4L1875,1263l156.3-90.2V992.3z M2656.3,631.5L2500,541.3l-156.3,90.2v180.4l156.3,90.2l156.3-90.2V631.5z M2343.8,811.9l-156.3-90.2l-156.2,90.2l0,180.4l156.3,90.2l156.3-90.2V811.9z M2031.3,631.5L1875,541.3l-156.3,90.2l0,180.4l156.3,90.2l156.3-90.2V631.5z M2343.8,451.1l-156.3-90.2l-156.2,90.2l0,180.4l156.3,90.2l156.3-90.2V451.1z M2656.3,1353.2L2500,1263l-156.3,90.2v180.4l156.3,90.2l156.3-90.2V1353.2z M2343.8,1533.6l-156.3-90.2l-156.2,90.2l0,180.4l156.3,90.2l156.3-90.2V1533.6z M2031.3,1353.2L1875,1263l-156.3,90.2l0,180.4l156.3,90.2l156.3-90.2V1353.2z M2656.3,992.3L2500,902.1l-156.3,90.2v180.4L2500,1263l156.3-90.2V992.3z M2343.8,1172.7l-156.3-90.2l-156.2,90.2l0,180.4l156.3,90.2l156.3-90.2V1172.7z M2031.3,992.3L1875,902.1l-156.3,90.2l0,180.4L1875,1263l156.3-90.2V992.3z M2343.8,811.9l-156.3-90.2l-156.2,90.2l0,180.4l156.3,90.2l156.3-90.2V811.9z M2656.3,1714l-156.3-90.2l-156.3,90.2v180.4l156.3,90.2l156.3-90.2V1714z M2343.8,1894.4l-156.3-90.2l-156.2,90.2l0,180.4l156.3,90.2l156.3-90.2V1894.4z M2031.3,1714l-156.2-90.2l-156.3,90.2l0,180.4l156.3,90.2l156.3-90.2V1714z M2656.3,1353.2L2500,1263l-156.3,90.2v180.4l156.3,90.2l156.3-90.2V1353.2z M2343.8,1533.6l-156.3-90.2l-156.2,90.2l0,180.4l156.3,90.2l156.3-90.2V1533.6z M2031.3,1353.2L1875,1263l-156.3,90.2l0,180.4l156.3,90.2l156.3-90.2V1353.2z M2343.8,1172.7l-156.3-90.2l-156.2,90.2l0,180.4l156.3,90.2l156.3-90.2V1172.7z M2656.3,2074.9l-156.3-90.2l-156.3,90.2v180.4l156.3,90.2l156.3-90.2V2074.9z M2343.8,2255.3l-156.3-90.2l-156.2,90.2l0,180.4l156.3,90.2l156.3-90.2V2255.3z M2031.3,2074.9l-156.2-90.2l-156.3,90.2l0,180.4l156.3,90.2l156.3-90.2V2074.9z M2656.3,1714l-156.3-90.2l-156.3,90.2v180.4l156.3,90.2l156.3-90.2V1714z M2343.8,1894.4l-156.3-90.2l-156.2,90.2l0,180.4l156.3,90.2l156.3-90.2V1894.4z M2031.3,1714l-156.2-90.2l-156.3,90.2l0,180.4l156.3,90.2l156.3-90.2V1714z M2343.8,1533.6l-156.3-90.2l-156.2,90.2l0,180.4l156.3,90.2l156.3-90.2V1533.6z M2656.3,2435.7l-156.3-90.2l-156.3,90.2v180.4l156.3,90.2l156.3-90.2V2435.7z M2343.8,2616.1l-156.3-90.2l-156.2,90.2l0,180.4l156.3,90.2l156.3-90.2V2616.1z M2031.3,2435.7l-156.2-90.2l-156.3,90.2l0,180.4l156.3,90.2l156.3-90.2V2435.7z M2656.3,2074.9l-156.3-90.2l-156.3,90.2v180.4l156.3,90.2l156.3-90.2V2074.9z M2343.8,2255.3l-156.3-90.2l-156.2,90.2l0,180.4l156.3,90.2l156.3-90.2V2255.3z M2031.3,2074.9l-156.2-90.2l-156.3,90.2l0,180.4l156.3,90.2l156.3-90.2V2074.9z M2343.8,1894.4l-156.3-90.2l-156.2,90.2l0,180.4l156.3,90.2l156.3-90.2V1894.4z M2031.3,270.6L1875,180.4l-156.3,90.2l0,180.4l156.3,90.2l156.3-90.2V270.6z M1718.8,451.1l-156.2-90.2l-156.3,90.2l0,180.4l156.3,90.2l156.3-90.2V451.1z M1406.3,270.6L1250,180.4l-156.3,90.2l0,180.4l156.3,90.2l156.3-90.2V270.6z M2031.3-90.2L1875-180.4l-156.3,90.2l0,180.4l156.3,90.2l156.3-90.2V-90.2z M1718.8,90.2L1562.5,0l-156.3,90.2l0,180.4l156.3,90.2l156.3-90.2V90.2z M1406.3-90.2L1250-180.4l-156.3,90.2l0,180.4l156.3,90.2l156.3-90.2V-90.2z M1718.8-270.6l-156.2-90.2l-156.3,90.2l0,180.4L1562.5,0l156.3-90.2V-270.6z M2031.3,631.5L1875,541.3l-156.3,90.2l0,180.4l156.3,90.2l156.3-90.2V631.5z M1718.8,811.9l-156.2-90.2l-156.3,90.2l0,180.4l156.3,90.2l156.3-90.2V811.9z M1406.3,631.5L1250,541.3l-156.3,90.2l0,180.4l156.3,90.2l156.3-90.2V631.5z M2031.3,270.6L1875,180.4l-156.3,90.2l0,180.4l156.3,90.2l156.3-90.2V270.6z M1718.8,451.1l-156.2-90.2l-156.3,90.2l0,180.4l156.3,90.2l156.3-90.2V451.1z M1406.3,270.6L1250,180.4l-156.3,90.2l0,180.4l156.3,90.2l156.3-90.2V270.6z M1718.8,90.2L1562.5,0l-156.3,90.2l0,180.4l156.3,90.2l156.3-90.2V90.2z M2031.3,992.3L1875,902.1l-156.3,90.2l0,180.4L1875,1263l156.3-90.2V992.3z M1718.8,1172.7l-156.2-90.2l-156.3,90.2l0,180.4l156.3,90.2l156.3-90.2V1172.7z M1406.3,992.3L1250,902.1l-156.3,90.2l0,180.4L1250,1263l156.3-90.2V992.3z M2031.3,631.5L1875,541.3l-156.3,90.2l0,180.4l156.3,90.2l156.3-90.2V631.5z M1718.8,811.9l-156.2-90.2l-156.3,90.2l0,180.4l156.3,90.2l156.3-90.2V811.9z M1406.3,631.5L1250,541.3l-156.3,90.2l0,180.4l156.3,90.2l156.3-90.2V631.5z M1718.8,451.1l-156.2-90.2l-156.3,90.2l0,180.4l156.3,90.2l156.3-90.2V451.1z M2031.3,1353.2L1875,1263l-156.3,90.2l0,180.4l156.3,90.2l156.3-90.2V1353.2z M1718.8,1533.6l-156.2-90.2l-156.3,90.2l0,180.4l156.3,90.2l156.3-90.2V1533.6z M1406.3,1353.2L1250,1263l-156.3,90.2l0,180.4l156.3,90.2l156.3-90.2V1353.2z M2031.3,992.3L1875,902.1l-156.3,90.2l0,180.4L1875,1263l156.3-90.2V992.3z M1718.8,1172.7l-156.2-90.2l-156.3,90.2l0,180.4l156.3,90.2l156.3-90.2V1172.7z M1406.3,992.3L1250,902.1l-156.3,90.2l0,180.4L1250,1263l156.3-90.2V992.3z M1718.8,811.9l-156.2-90.2l-156.3,90.2l0,180.4l156.3,90.2l156.3-90.2V811.9z M2031.3,1714l-156.2-90.2l-156.3,90.2l0,180.4l156.3,90.2l156.3-90.2V1714z M1718.8,1894.4l-156.2-90.2l-156.3,90.2l0,180.4l156.3,90.2l156.3-90.2V1894.4z M1406.3,1714l-156.2-90.2l-156.3,90.2l0,180.4l156.3,90.2l156.3-90.2V1714z M2031.3,1353.2L1875,1263l-156.3,90.2l0,180.4l156.3,90.2l156.3-90.2V1353.2z M1718.8,1533.6l-156.2-90.2l-156.3,90.2l0,180.4l156.3,90.2l156.3-90.2V1533.6z M1406.3,1353.2L1250,1263l-156.3,90.2l0,180.4l156.3,90.2l156.3-90.2V1353.2z M1718.8,1172.7l-156.2-90.2l-156.3,90.2l0,180.4l156.3,90.2l156.3-90.2V1172.7z M2031.3,2074.9l-156.2-90.2l-156.3,90.2l0,180.4l156.3,90.2l156.3-90.2V2074.9z M1718.8,2255.3l-156.2-90.2l-156.3,90.2l0,180.4l156.3,90.2l156.3-90.2V2255.3z M1406.3,2074.9l-156.2-90.2l-156.3,90.2l0,180.4l156.3,90.2l156.3-90.2V2074.9z M2031.3,1714l-156.2-90.2l-156.3,90.2l0,180.4l156.3,90.2l156.3-90.2V1714z M1718.8,1894.4l-156.2-90.2l-156.3,90.2l0,180.4l156.3,90.2l156.3-90.2V1894.4z M1406.3,1714l-156.2-90.2l-156.3,90.2l0,180.4l156.3,90.2l156.3-90.2V1714z M1718.8,1533.6l-156.2-90.2l-156.3,90.2l0,180.4l156.3,90.2l156.3-90.2V1533.6z M2031.3,2435.7l-156.2-90.2l-156.3,90.2l0,180.4l156.3,90.2l156.3-90.2V2435.7z M1718.8,2616.1l-156.2-90.2l-156.3,90.2l0,180.4l156.3,90.2l156.3-90.2V2616.1z M1406.3,2435.7l-156.2-90.2l-156.3,90.2l0,180.4l156.3,90.2l156.3-90.2V2435.7z M2031.3,2074.9l-156.2-90.2l-156.3,90.2l0,180.4l156.3,90.2l156.3-90.2V2074.9z M1718.8,2255.3l-156.2-90.2l-156.3,90.2l0,180.4l156.3,90.2l156.3-90.2V2255.3z M1406.3,2074.9l-156.2-90.2l-156.3,90.2l0,180.4l156.3,90.2l156.3-90.2V2074.9z M1718.8,1894.4l-156.2-90.2l-156.3,90.2l0,180.4l156.3,90.2l156.3-90.2V1894.4z M1406.3,270.6L1250,180.4l-156.3,90.2l0,180.4l156.3,90.2l156.3-90.2V270.6z M1093.8,451.1l-156.2-90.2l-156.3,90.2v180.4l156.3,90.2l156.2-90.2V451.1z M781.3,270.6L625,180.4l-156.3,90.2v180.4L625,541.3l156.3-90.2V270.6z M1406.3-90.2L1250-180.4l-156.3,90.2l0,180.4l156.3,90.2l156.3-90.2V-90.2z M1093.8,90.2L937.5,0L781.3,90.2v180.4l156.3,90.2l156.2-90.2V90.2z M781.3-90.2L625-180.4L468.8-90.2V90.2L625,180.4l156.3-90.2V-90.2z M1093.8-270.6l-156.2-90.2l-156.3,90.2v180.4L937.5,0l156.2-90.2V-270.6z M1406.3,631.5L1250,541.3l-156.3,90.2l0,180.4l156.3,90.2l156.3-90.2V631.5z M1093.8,811.9l-156.2-90.2l-156.3,90.2v180.4l156.3,90.2l156.2-90.2V811.9z M781.3,631.5L625,541.3l-156.3,90.2v180.4L625,902.1l156.3-90.2V631.5z M1406.3,270.6L1250,180.4l-156.3,90.2l0,180.4l156.3,90.2l156.3-90.2V270.6z M1093.8,451.1l-156.2-90.2l-156.3,90.2v180.4l156.3,90.2l156.2-90.2V451.1z M781.3,270.6L625,180.4l-156.3,90.2v180.4L625,541.3l156.3-90.2V270.6z M1093.8,90.2L937.5,0L781.3,90.2v180.4l156.3,90.2l156.2-90.2V90.2z M1406.3,992.3L1250,902.1l-156.3,90.2l0,180.4L1250,1263l156.3-90.2V992.3z M1093.8,1172.7l-156.2-90.2l-156.3,90.2v180.4l156.3,90.2l156.2-90.2V1172.7z M781.3,992.3L625,902.1l-156.3,90.2v180.4L625,1263l156.3-90.2V992.3z M1406.3,631.5L1250,541.3l-156.3,90.2l0,180.4l156.3,90.2l156.3-90.2V631.5z M1093.8,811.9l-156.2-90.2l-156.3,90.2v180.4l156.3,90.2l156.2-90.2V811.9z M781.3,631.5L625,541.3l-156.3,90.2v180.4L625,902.1l156.3-90.2V631.5z M1093.8,451.1l-156.2-90.2l-156.3,90.2v180.4l156.3,90.2l156.2-90.2V451.1z M1406.3,1353.2L1250,1263l-156.3,90.2l0,180.4l156.3,90.2l156.3-90.2V1353.2z M1093.8,1533.6l-156.2-90.2l-156.3,90.2V1714l156.3,90.2l156.2-90.2V1533.6z M781.3,1353.2L625,1263l-156.3,90.2v180.4l156.3,90.2l156.3-90.2V1353.2z M1406.3,992.3L1250,902.1l-156.3,90.2l0,180.4L1250,1263l156.3-90.2V992.3z M1093.8,1172.7l-156.2-90.2l-156.3,90.2v180.4l156.3,90.2l156.2-90.2V1172.7z M781.3,992.3L625,902.1l-156.3,90.2v180.4L625,1263l156.3-90.2V992.3z M1093.8,811.9l-156.2-90.2l-156.3,90.2v180.4l156.3,90.2l156.2-90.2V811.9z M1406.3,1714l-156.2-90.2l-156.3,90.2l0,180.4l156.3,90.2l156.3-90.2V1714z M1093.8,1894.4l-156.2-90.2l-156.3,90.2v180.4l156.3,90.2l156.2-90.2V1894.4z M781.3,1714L625,1623.8L468.8,1714v180.4l156.3,90.2l156.3-90.2V1714z M1406.3,1353.2L1250,1263l-156.3,90.2l0,180.4l156.3,90.2l156.3-90.2V1353.2z M1093.8,1533.6l-156.2-90.2l-156.3,90.2V1714l156.3,90.2l156.2-90.2V1533.6z M781.3,1353.2L625,1263l-156.3,90.2v180.4l156.3,90.2l156.3-90.2V1353.2z M1093.8,1172.7l-156.2-90.2l-156.3,90.2v180.4l156.3,90.2l156.2-90.2V1172.7z M1406.3,2074.9l-156.2-90.2l-156.3,90.2l0,180.4l156.3,90.2l156.3-90.2V2074.9z M1093.8,2255.3l-156.2-90.2l-156.3,90.2v180.4l156.3,90.2l156.2-90.2V2255.3z M781.3,2074.9L625,1984.6l-156.3,90.2v180.4l156.3,90.2l156.3-90.2V2074.9z M1406.3,1714l-156.2-90.2l-156.3,90.2l0,180.4l156.3,90.2l156.3-90.2V1714z M1093.8,1894.4l-156.2-90.2l-156.3,90.2v180.4l156.3,90.2l156.2-90.2V1894.4z M781.3,1714L625,1623.8L468.8,1714v180.4l156.3,90.2l156.3-90.2V1714z M1093.8,1533.6l-156.2-90.2l-156.3,90.2V1714l156.3,90.2l156.2-90.2V1533.6z M1406.3,2435.7l-156.2-90.2l-156.3,90.2l0,180.4l156.3,90.2l156.3-90.2V2435.7z M1093.8,2616.1l-156.2-90.2l-156.3,90.2v180.4l156.3,90.2l156.2-90.2V2616.1z M781.3,2435.7L625,2345.5l-156.3,90.2v180.4l156.3,90.2l156.3-90.2V2435.7z M1406.3,2074.9l-156.2-90.2l-156.3,90.2l0,180.4l156.3,90.2l156.3-90.2V2074.9z M1093.8,2255.3l-156.2-90.2l-156.3,90.2v180.4l156.3,90.2l156.2-90.2V2255.3z M781.3,2074.9L625,1984.6l-156.3,90.2v180.4l156.3,90.2l156.3-90.2V2074.9z M1093.8,1894.4l-156.2-90.2l-156.3,90.2v180.4l156.3,90.2l156.2-90.2V1894.4z M781.3,270.6L625,180.4l-156.3,90.2v180.4L625,541.3l156.3-90.2V270.6z M468.8,451.1l-156.3-90.2l-156.3,90.2v180.4l156.3,90.2l156.3-90.2V451.1z M156.3,270.6L0,180.4l-156.3,90.2v180.4L0,541.3l156.3-90.2V270.6z M781.3-90.2L625-180.4L468.8-90.2V90.2L625,180.4l156.3-90.2V-90.2z M468.8,90.2L312.5,0L156.3,90.2v180.4l156.3,90.2l156.3-90.2V90.2z M156.3-90.2L0-180.4l-156.3,90.2V90.2L0,180.4l156.3-90.2V-90.2z M468.8-270.6l-156.3-90.2l-156.3,90.2v180.4L312.5,0l156.3-90.2V-270.6z M781.3,631.5L625,541.3l-156.3,90.2v180.4L625,902.1l156.3-90.2V631.5z M468.8,811.9l-156.3-90.2l-156.3,90.2v180.4l156.3,90.2l156.3-90.2V811.9z M156.3,631.5L0,541.3l-156.3,90.2v180.4L0,902.1l156.3-90.2V631.5z M781.3,270.6L625,180.4l-156.3,90.2v180.4L625,541.3l156.3-90.2V270.6z M468.8,451.1l-156.3-90.2l-156.3,90.2v180.4l156.3,90.2l156.3-90.2V451.1z M156.3,270.6L0,180.4l-156.3,90.2v180.4L0,541.3l156.3-90.2V270.6z M468.8,90.2L312.5,0L156.3,90.2v180.4l156.3,90.2l156.3-90.2V90.2z M781.3,992.3L625,902.1l-156.3,90.2v180.4L625,1263l156.3-90.2V992.3z M468.8,1172.7l-156.3-90.2l-156.3,90.2v180.4l156.3,90.2l156.3-90.2V1172.7z M156.3,992.3L0,902.1l-156.3,90.2v180.4L0,1263l156.3-90.2V992.3z M781.3,631.5L625,541.3l-156.3,90.2v180.4L625,902.1l156.3-90.2V631.5z M468.8,811.9l-156.3-90.2l-156.3,90.2v180.4l156.3,90.2l156.3-90.2V811.9z M156.3,631.5L0,541.3l-156.3,90.2v180.4L0,902.1l156.3-90.2V631.5z M468.8,451.1l-156.3-90.2l-156.3,90.2v180.4l156.3,90.2l156.3-90.2V451.1z M781.3,1353.2L625,1263l-156.3,90.2v180.4l156.3,90.2l156.3-90.2V1353.2z M468.8,1533.6l-156.3-90.2l-156.3,90.2V1714l156.3,90.2l156.3-90.2V1533.6z M156.3,1353.2L0,1263l-156.3,90.2v180.4L0,1623.8l156.3-90.2V1353.2z M781.3,992.3L625,902.1l-156.3,90.2v180.4L625,1263l156.3-90.2V992.3z M468.8,1172.7l-156.3-90.2l-156.3,90.2v180.4l156.3,90.2l156.3-90.2V1172.7z M156.3,992.3L0,902.1l-156.3,90.2v180.4L0,1263l156.3-90.2V992.3z M468.8,811.9l-156.3-90.2l-156.3,90.2v180.4l156.3,90.2l156.3-90.2V811.9z M781.3,1714L625,1623.8L468.8,1714v180.4l156.3,90.2l156.3-90.2V1714z M468.8,1894.4l-156.3-90.2l-156.3,90.2v180.4l156.3,90.2l156.3-90.2V1894.4z M156.3,1714L0,1623.8l-156.3,90.2v180.4L0,1984.6l156.3-90.2V1714z M781.3,1353.2L625,1263l-156.3,90.2v180.4l156.3,90.2l156.3-90.2V1353.2z M468.8,1533.6l-156.3-90.2l-156.3,90.2V1714l156.3,90.2l156.3-90.2V1533.6z M156.3,1353.2L0,1263l-156.3,90.2v180.4L0,1623.8l156.3-90.2V1353.2z M468.8,1172.7l-156.3-90.2l-156.3,90.2v180.4l156.3,90.2l156.3-90.2V1172.7z M781.3,2074.9L625,1984.6l-156.3,90.2v180.4l156.3,90.2l156.3-90.2V2074.9z M468.8,2255.3l-156.3-90.2l-156.3,90.2v180.4l156.3,90.2l156.3-90.2V2255.3z M156.3,2074.9L0,1984.6l-156.3,90.2v180.4L0,2345.5l156.3-90.2V2074.9z M781.3,1714L625,1623.8L468.8,1714v180.4l156.3,90.2l156.3-90.2V1714z M468.8,1894.4l-156.3-90.2l-156.3,90.2v180.4l156.3,90.2l156.3-90.2V1894.4z M156.3,1714L0,1623.8l-156.3,90.2v180.4L0,1984.6l156.3-90.2V1714z M468.8,1533.6l-156.3-90.2l-156.3,90.2V1714l156.3,90.2l156.3-90.2V1533.6z M781.3,2435.7L625,2345.5l-156.3,90.2v180.4l156.3,90.2l156.3-90.2V2435.7z M468.8,2616.1l-156.3-90.2l-156.3,90.2v180.4l156.3,90.2l156.3-90.2V2616.1z M156.3,2435.7L0,2345.5l-156.3,90.2v180.4L0,2706.3l156.3-90.2V2435.7z M781.3,2074.9L625,1984.6l-156.3,90.2v180.4l156.3,90.2l156.3-90.2V2074.9z M468.8,2255.3l-156.3-90.2l-156.3,90.2v180.4l156.3,90.2l156.3-90.2V2255.3z M156.3,2074.9L0,1984.6l-156.3,90.2v180.4L0,2345.5l156.3-90.2V2074.9z M468.8,1894.4l-156.3-90.2l-156.3,90.2v180.4l156.3,90.2l156.3-90.2V1894.4z"/>
	</g>
	<linearGradient id="cache_1_" gradientUnits="userSpaceOnUse" x1="2500" y1="2525.0007" x2="2500" y2="6.455054e-004">
		<stop  offset="0" style="stop-color:#8CCBCB"/>
		<stop  offset="7.952542e-002" style="stop-color:#89C7C8;stop-opacity:0.8409"/>
		<stop  offset="0.1619" style="stop-color:#82BABF;stop-opacity:0.6761"/>
		<stop  offset="0.2457" style="stop-color:#76A5B1;stop-opacity:0.5086"/>
		<stop  offset="0.3304" style="stop-color:#66889D;stop-opacity:0.3392"/>
		<stop  offset="0.4152" style="stop-color:#506383;stop-opacity:0.1695"/>
		<stop  offset="0.5" style="stop-color:#363664;stop-opacity:0"/>
		<stop  offset="0.5848" style="stop-color:#506383;stop-opacity:0.1695"/>
		<stop  offset="0.6696" style="stop-color:#66889D;stop-opacity:0.3392"/>
		<stop  offset="0.7543" style="stop-color:#76A5B1;stop-opacity:0.5086"/>
		<stop  offset="0.8381" style="stop-color:#82BABF;stop-opacity:0.6761"/>
		<stop  offset="0.9205" style="stop-color:#89C7C8;stop-opacity:0.8409"/>
		<stop  offset="1" style="stop-color:#8CCBCB"/>
	</linearGradient>
	<rect id="cache" y="0" fill="url(#cache_1_)" width="5000" height="2525"/>
</svg>