<svg version="1.1" xmlns="http://www.w3.org/2000/svg" width="720" height="300" viewBox="0 0 720 300" enable-background="new 0 0 720 300"><path d="m408.7 94.6c7.5-3.9 15.8-6.8 16.6-7.8.8-1 4.7-5.8 4.7-5.8s25.8-7.4 51.4 12.7c0 0 1.5 6.3 1.5 7.2 0 0 8.3 3.5 28.4 83.1 20.1 79.6 0 109.3-7 112.3-7 3.1-26.2 9.6-62.1-24.1-35.8-33.7-68.5-28.4-82.6-29.3-14-.9-50.3-.5-80.5 26.6-30.2 27.1-35 28.8-57.3 29.3-22.3.4-24.9-36.7-19.6-86.1 0 0 11.4-71.5 34.3-112.4 0 0 1.1-5.6 1.4-6.6.3-1 23.8-19.1 51.9-12.8 0 0 2.2 3.9 3.9 4.8 1.6.8 13.8 6.4 16.7 8.6 2.8 2.2 14.6 5.7 14.6 5.7s33.1 6.9 68.2 0c.1.1 8-1.4 15.5-5.4zm-114.8-8.8c-1.6-.8-3.9-4.8-3.9-4.8-28.1-6.3-51.6 11.8-51.9 12.8-.3 1-1.4 6.6-1.4 6.6 27.8-21 57.2-14.6 57.2-14.6zm189 15.2c.7.5-1.5-7.2-1.5-7.2-25.6-20.1-51.4-12.7-51.4-12.7s-3.9 4.8-4.7 5.8c.1 0 30.3-7.1 57.6 14.1zm-149.9 40.4c0-3.5-3-6.4-6.8-6.4h-2.5c-3.8 0-6.8 2.9-6.8 6.4 0 3.5 3 6.4 6.8 6.4h2.5c3.8 0 6.8-2.9 6.8-6.4zm96.3-13c-6.2 0-11.2 5-11.2 11.3 0 6.2 5 11.3 11.2 11.3 6.2 0 11.2-5 11.2-11.3 0-6.3-5-11.3-11.2-11.3zm-69.6-8c-11.5 0-20.8 9.4-20.8 21 0 11.6 9.3 21 20.8 21 11.5 0 20.8-9.4 20.8-21-.1-11.6-9.4-21-20.8-21zm-96.5-14.3c-18.1 0-32.8 14.8-32.8 33 0 18.2 14.7 33 32.8 33 18.1 0 32.8-14.8 32.8-33 0-18.2-14.7-33-32.8-33zm-.3 11.3c-12.5 0-22.6 9.7-22.6 21.6 0 11.9 10.1 21.6 22.6 21.6 12.5 0 22.6-9.7 22.6-21.6 0-11.9-10.1-21.6-22.6-21.6zm142.1 47.2c-18.1 0-32.8 14.8-32.8 33 0 18.2 14.7 33 32.8 33 18.1 0 32.8-14.8 32.8-33 0-18.2-14.7-33-32.8-33zm-.3 11.3c-12.5 0-21.4 9.8-21.4 21.7 0 11.9 8.9 21.6 21.4 21.6 12.5 0 22.6-9.7 22.6-21.6 0-12-10.1-21.7-22.6-21.7zm-94.8-15.5c-19.5 0-35.3 15.7-35.3 35.1 0 19.4 15.8 35.1 35.3 35.1 19.5 0 35.3-15.7 35.3-35.1 0-19.3-15.8-35-35.3-35.1zm-.7 8.9c-15 0-25.7 11.9-25.8 26.5 0 14.6 10.7 26.3 25.7 26.3 15 0 27.2-11.8 27.2-26.4.1-14.6-12.1-26.4-27.1-26.4zm-24.2 35.3c12.7-.1 13.7 2.1 13.7 2.1 3.9 3.4 2.6 14 2.6 14 9.7 3.4 16.8 0 16.8 0-.1-1.2-1.5-14 5.1-15.2 6.7-1.2 11.4-.8 11.4-.8 3.3-8.1.6-16.5.6-16.5-13.8-.5-14-1.1-16.1-4.7-2.1-3.6-1-12.6-1-12.6-8-3.9-16.9-.5-16.9-.5.7 9.7-.6 13-2.4 15.5-1.7 2.5-14.4 2.3-14.4 2.3-2.8 10.3.6 16.4.6 16.4z" fill="none" stroke="#fff"/><path d="m603.4 261.2l.2-1.7c.7.5 1.8 1 3.3 1 1.3 0 2.5-.4 2.5-1.6 0-1.2-1.2-1.6-2.7-2.1-1.7-.6-3.4-1.1-3.4-2.9 0-1.3.9-3 3.8-3 1.4 0 2.7.4 3.3.7l-.2 1.5c-1-.5-2-.9-3-.9-1.1 0-2.4.5-2.4 1.5 0 1 1 1.4 2.3 1.8 1.8.6 3.9 1.1 3.9 3.4 0 1.1-.5 2.9-4.1 2.9-1.6.1-2.9-.2-3.5-.6m9.8-3.2c.2 2 1.4 2.6 2.8 2.6.7 0 1.5-.1 2.1-.4l.2 1.1c-.6.3-1.4.6-2.5.6-2.6 0-4-1.8-4-3.9 0-2.1 1.3-3.8 3.6-3.8 1.8 0 3.2 1.1 3.2 3.1 0 .2 0 .5-.1.7h-5.3m.1-.9h3.9c0-1-.6-1.7-1.8-1.7-1.2 0-1.8.6-2.1 1.7m.5-4.3v-.6l2.8-1.4v1.1l-2.8.9m8.5 9.1h-.4c-1.4 0-1.9-.9-1.9-1.8v-9.6h1.3v8.8c0 1.3.2 1.5 1.2 1.5l-.2 1.1m2-3.9c.2 2 1.4 2.6 2.8 2.6.7 0 1.5-.1 2.1-.4l.2 1.1c-.6.3-1.4.6-2.5.6-2.6 0-4-1.8-4-3.9 0-2.1 1.3-3.8 3.6-3.8 1.8 0 3.2 1.1 3.2 3.1 0 .2 0 .5-.1.7h-5.3m.2-.9h3.9c0-1-.6-1.7-1.8-1.7-1.3 0-1.9.6-2.1 1.7m6.2.9c0-2.1 1.2-3.8 3.6-3.8 1.1 0 1.8.2 2.3.4l-.2 1.2c-.6-.3-1.2-.5-1.9-.5-1.6 0-2.4 1-2.4 2.6 0 1.6.8 2.7 2.4 2.7.7 0 1.3-.2 1.9-.5l.2 1.1c-.4.3-1 .6-2.2.6-2.5.1-3.7-1.7-3.7-3.8m11 3.9h-1.2c-1.4 0-1.9-.9-1.9-1.8v-4.7h-1.3l.1-1h1.1v-1.8l1.3-.1v2h1.9v1h-1.9v3.9c0 1.4.1 1.5 1.5 1.5h.3l.1 1m1.3-9.2v-1.5h1.3v1.5h-1.3m0 9v-7.3h1.3v7.3h-1.3m2.7-3.7c0-2.1 1.3-3.8 3.6-3.8 2.3 0 3.6 1.7 3.6 3.8s-1.3 3.8-3.6 3.8c-2.3.1-3.6-1.6-3.6-3.8m1.4 0c0 1.6.8 2.6 2.3 2.6s2.3-1 2.3-2.6c0-1.7-.8-2.6-2.3-2.6s-2.3 1-2.3 2.6m12.6 3.7v-4c0-1.6-.5-2.3-1.9-2.3-.8 0-1.6.3-2 1v5.3h-1.3v-7.3h1l.2.8c.8-.8 1.6-.9 2.4-.9 2.1 0 3 1.3 3 3.5v4h-1.4zm8.4 0v-4c0-1.6-.5-2.3-1.9-2.3-.8 0-1.6.3-2 1v5.3h-1.3v-7.3h1l.2.8c.8-.8 1.6-.9 2.4-.9 2.1 0 3 1.3 3 3.5v4h-1.4zm4-3.7c.2 2 1.4 2.6 2.8 2.6.7 0 1.5-.1 2.1-.4l.2 1.1c-.6.3-1.4.6-2.5.6-2.6 0-4-1.8-4-3.9 0-2.1 1.3-3.8 3.6-3.8 1.8 0 3.2 1.1 3.2 3.1 0 .2 0 .5-.1.7h-5.3m.1-.9h3.9c0-1-.6-1.7-1.8-1.7-1.2 0-1.8.6-2.1 1.7m10.2-1.5h-.4c-.6 0-1.4.5-1.7.9v5.2h-1.4v-7.3h1.1l.2 1.2c.9-1 1.6-1.5 2.5-1.5h.1l-.4 1.5m-72.6-50l-2.3-4.1h-2.2v4.1h-1.5v-10.5h3.4c2.2 0 3.6.7 3.6 3.1 0 1.3-.7 2.4-1.9 3l2.4 4.5h-1.5zm-4.5-9.4v3.9h2.3c.8 0 1.8-.5 1.8-2 0-1.2-.7-1.9-2.2-1.9h-1.9m7.9 5.7c.2 2 1.4 2.6 2.8 2.6.7 0 1.5-.1 2.1-.4l.2 1.1c-.6.3-1.4.6-2.5.6-2.6 0-4-1.8-4-3.9 0-2.1 1.3-3.8 3.6-3.8 1.8 0 3.2 1.1 3.2 3.1 0 .2 0 .5-.1.7h-5.3m.1-.9h3.9c0-1-.6-1.7-1.8-1.7-1.2 0-1.8.6-2.1 1.7m10.4 4.7h-1.2c-1.4 0-1.9-.9-1.9-1.8v-4.7h-1.3l.1-1h1.1v-1.8l1.3-.1v2h1.9v1h-1.9v3.9c0 1.4.1 1.5 1.5 1.5h.3l.1 1m.8-3.8c0-2.1 1.3-3.8 3.6-3.8 2.3 0 3.6 1.7 3.6 3.8s-1.3 3.8-3.6 3.8c-2.3 0-3.6-1.7-3.6-3.8m1.4 0c0 1.6.8 2.6 2.3 2.6s2.3-1 2.3-2.6c0-1.7-.8-2.6-2.3-2.6s-2.3 1-2.3 2.6m12.1 3.7l-.2-.8c-.5.6-1.1 1-2 1-1.7 0-2.7-1-2.7-3.2v-4.3h1.3v3.9c0 1.6.5 2.4 1.7 2.4.7 0 1.3-.3 1.7-.8v-5.5h1.3v7.3h-1.1m6.6-6.1h-.5c-.6 0-1.4.5-1.7.9v5.2h-1.4v-7.3h1.1l.2 1.2c.9-1 1.6-1.5 2.5-1.5h.1l-.3 1.5m-32-74.8l-1-.8c-1 .7-2.1 1.1-3.2 1.1-3 0-5.2-2.1-5.2-5.5s2.2-5.5 5.2-5.5 5.2 2.1 5.2 5.5c0 1.3-.3 2.4-1.1 3.6l.9.7-.8.9m-7.9-5.2c0 2.3 1.2 4.2 3.6 4.2.7 0 1.6-.1 2.3-.6l-1.5-1.3.8-.9 1.6 1.4c.7-1 .7-2 .7-2.8 0-2.3-1.3-4.2-3.8-4.2s-3.7 1.9-3.7 4.2m15.1 5.3l-.2-.8c-.5.6-1.1 1-2 1-1.7 0-2.7-1-2.7-3.2v-4.3h1.3v3.9c0 1.6.5 2.4 1.7 2.4.7 0 1.3-.3 1.7-.8v-5.5h1.3v7.3h-1.1m3-9v-1.5h1.3v1.5h-1.3m0 9v-7.3h1.3v7.3h-1.3m6.9.1h-1.2c-1.4 0-1.9-.9-1.9-1.8v-4.7h-1.3l.1-1h1.1v-1.8l1.3-.1v2h1.9v1h-1.7v3.9c0 1.4.1 1.5 1.5 1.5h.3l-.1 1m5.1 0h-1.2c-1.4 0-1.9-.9-1.9-1.8v-4.7h-1.3l.1-1h1.1v-1.8l1.3-.1v2h1.9v1h-1.8v3.9c0 1.4.1 1.5 1.5 1.5h.3v1m2.2-3.8c.2 2 1.4 2.6 2.8 2.6.7 0 1.5-.1 2.1-.4l.2 1.1c-.6.3-1.4.6-2.5.6-2.6 0-4-1.8-4-3.9 0-2.1 1.3-3.8 3.6-3.8 1.8 0 3.2 1.1 3.2 3.1 0 .2 0 .5-.1.7h-5.3m.1-1h3.9c0-1-.6-1.7-1.8-1.7-1.2.1-1.8.7-2.1 1.7m10.2-1.5h-.5c-.6 0-1.4.5-1.7.9v5.2h-1.4v-7.3h1.1l.2 1.2c.9-1 1.6-1.5 2.5-1.5h.1l-.3 1.5m4.2 5.7l.2-1.3c.3.3 1.2.8 2.3.8.9 0 1.5-.3 1.5-.9 0-.8-.9-1-1.5-1.2-1-.3-2.3-.6-2.3-2.1 0-1.1.8-2.2 2.8-2.2 1 0 1.5.3 2 .5l-.2 1.2c-.4-.4-1-.6-1.8-.6-.8 0-1.4.3-1.4 1 0 .7.6.9 1.7 1.2.7.2 2.1.7 2.1 2.2 0 1-.6 2.2-2.8 2.2-1.4-.2-2.3-.6-2.6-.8m6.4 0l.2-1.7c.7.5 1.8 1 3.3 1 1.3 0 2.5-.4 2.5-1.6 0-1.2-1.2-1.6-2.7-2.1-1.7-.6-3.4-1.1-3.4-2.9 0-1.3.9-3 3.8-3 1.4 0 2.7.4 3.3.7l-.2 1.5c-1-.5-2-.9-3-.9-1.1 0-2.4.5-2.4 1.5 0 1 1 1.4 2.3 1.8 1.8.6 3.9 1.1 3.9 3.4 0 1.1-.5 2.9-4.1 2.9-1.7.1-2.9-.3-3.5-.6m10.1-.5v4.6h-1.3v-11h1l.2 1c.6-.8 1.3-1.2 2.5-1.2 2.1 0 3.3 1.8 3.3 3.8 0 2.1-1.1 3.8-3.3 3.8-.7.1-1.8-.3-2.4-1m-.1-2.7c0 1.8 1.2 2.6 2.2 2.6 1.3 0 2.1-1.2 2.1-2.6 0-1.5-.8-2.6-2.1-2.6-1 0-2.2.8-2.2 2.6m13.1 3.8h-.1c-1.3 0-1.6-.4-1.9-1.1-.6.6-1.3 1.1-2.3 1.1-1.4 0-2.3-.9-2.3-2.1 0-2.1 2.5-2.6 4.4-2.6 0-1.4-.6-1.7-1.6-1.7-.6 0-1.2.1-1.9.7l-.2-1.1c.6-.5 1.5-.8 2.5-.8 1.9 0 2.6.9 2.6 3.5v1.5c0 1 .1 1.5.8 1.5h.1l-.1 1.1m-2.1-3.8c-2.1.1-3 .5-3 1.6 0 .8.5 1.1 1.1 1.1.7 0 1.4-.4 1.9-1v-1.7m2.9 0c0-2.1 1.2-3.8 3.6-3.8 1.1 0 1.8.2 2.3.4l-.2 1.2c-.6-.3-1.2-.5-1.9-.5-1.6 0-2.4 1-2.4 2.6 0 1.6.8 2.7 2.4 2.7.7 0 1.3-.2 1.9-.5l.2 1.1c-.4.3-1 .6-2.2.6-2.5 0-3.7-1.8-3.7-3.8m8.1 0c.2 2 1.4 2.6 2.8 2.6.7 0 1.5-.1 2.1-.4l.2 1.1c-.6.3-1.4.6-2.5.6-2.6 0-4-1.8-4-3.9 0-2.1 1.3-3.8 3.6-3.8 1.8 0 3.2 1.1 3.2 3.1 0 .2 0 .5-.1.7h-5.3m.1-1h3.9c0-1-.6-1.7-1.8-1.7-1.2.1-1.8.7-2.1 1.7m-638.7 14.3v-10.5h6.4v1.3h-5v3.1h4v1.3h-4v3.6h5.1v1.3h-6.5zm13.2 0v-4c0-1.6-.5-2.3-1.9-2.3-.8 0-1.6.3-2 1v5.3h-1.3v-7.4h1l.2.8c.8-.8 1.6-.9 2.4-.9 2.1 0 3 1.3 3 3.5v4h-1.4m6.7.1h-1.2c-1.4 0-1.9-.9-1.9-1.8v-4.7h-1.3l.1-1h1.1v-1.8l1.3-.1v2h1.9v1h-1.9v3.9c0 1.4.1 1.5 1.5 1.5h.3l.1 1m4.9-6.2h-.5c-.6 0-1.4.5-1.7.9v5.2h-1.4v-7.4h1.1l.2 1.2c.9-1 1.6-1.5 2.5-1.5h.1l-.3 1.6m1.9 2.4c.2 2 1.4 2.6 2.8 2.6.7 0 1.5-.1 2.1-.4l.2 1.1c-.6.3-1.4.6-2.5.6-2.6 0-4-1.8-4-3.9 0-2.1 1.3-3.8 3.6-3.8 1.8 0 3.2 1.1 3.2 3.1 0 .2 0 .5-.1.7h-5.3m.2-.9h3.8c0-1-.6-1.7-1.8-1.7-1.2 0-1.8.6-2 1.7m10.2-1.5h-.5c-.6 0-1.4.5-1.7.9v5.2h-1.4v-7.4h1.1l.2 1.2c.9-1 1.6-1.5 2.5-1.5h.1l-.3 1.6m9.9 6.1l-.1-.9c-.6.7-1.6 1.1-2.3 1.1-1.9 0-3.3-1.7-3.3-3.8 0-2 1.3-3.8 3.3-3.8.7 0 1.6.2 2.3.9v-4.7h1.3v11.2h-1.2m-4.4-3.7c0 1.4.8 2.6 2.1 2.6 1.1 0 2.3-.7 2.3-2.6 0-1.8-1.2-2.7-2.3-2.7-1.3.1-2.1 1.2-2.1 2.7m13.4 3.8h-.1c-1.3 0-1.6-.4-1.9-1.1-.6.6-1.3 1.1-2.3 1.1-1.4 0-2.3-.9-2.3-2.1 0-2.1 2.5-2.6 4.4-2.6 0-1.4-.6-1.7-1.6-1.7-.6 0-1.2.1-1.9.7l-.2-1.1c.6-.5 1.5-.8 2.5-.8 1.9 0 2.6.9 2.6 3.5v1.5c0 1 .1 1.5.8 1.5h.1l-.1 1.1m-2.2-3.8c-2.1.1-3 .5-3 1.6 0 .8.5 1.1 1.1 1.1.7 0 1.4-.4 1.9-1v-1.7m8.7 3.7v-4c0-1.6-.5-2.3-1.9-2.3-.8 0-1.6.3-2 1v5.3h-1.3v-7.4h1l.2.8c.8-.8 1.6-.9 2.4-.9 2.1 0 3 1.3 3 3.5v4h-1.4m2.7-.5l.2-1.3c.3.3 1.2.8 2.3.8.9 0 1.5-.3 1.5-.9 0-.8-.9-1-1.5-1.2-1-.3-2.3-.6-2.3-2.1 0-1.1.8-2.2 2.8-2.2 1 0 1.5.3 2 .5l-.2 1.2c-.4-.4-1-.6-1.8-.6-.8 0-1.4.3-1.4 1 0 .7.6.9 1.7 1.2.7.2 2.1.7 2.1 2.2 0 1-.6 2.2-2.8 2.2-1.4-.2-2.3-.6-2.6-.8m9.5 0l.2-1.3c.3.3 1.2.8 2.3.8.9 0 1.5-.3 1.5-.9 0-.8-.9-1-1.5-1.2-1-.3-2.3-.6-2.3-2.1 0-1.1.8-2.2 2.8-2.2 1 0 1.5.3 2 .5l-.2 1.2c-.4-.4-1-.6-1.8-.6-.8 0-1.4.3-1.4 1 0 .7.6.9 1.7 1.2.7.2 2.1.7 2.1 2.2 0 1-.6 2.2-2.8 2.2-1.3-.2-2.2-.6-2.6-.8m6.4 0l.2-1.7c.7.5 1.8 1 3.3 1 1.3 0 2.5-.4 2.5-1.6 0-1.2-1.2-1.6-2.7-2.1-1.7-.6-3.4-1.1-3.4-2.9 0-1.3.9-3 3.8-3 1.4 0 2.7.4 3.3.7l-.2 1.5c-1-.5-2-.9-3-.9-1.1 0-2.4.5-2.4 1.5 0 1 1 1.4 2.3 1.8 1.8.6 3.9 1.1 3.9 3.4 0 1.1-.5 2.9-4.1 2.9-1.6.1-2.8-.2-3.5-.6m10.2-.4v4.6h-1.3v-11h1l.2 1c.6-.8 1.3-1.2 2.5-1.2 2.1 0 3.3 1.8 3.3 3.8 0 2.1-1.1 3.8-3.3 3.8-.8 0-1.9-.3-2.4-1m-.1-2.8c0 1.8 1.2 2.6 2.2 2.6 1.3 0 2.1-1.2 2.1-2.6 0-1.5-.8-2.6-2.1-2.6-1 0-2.2.8-2.2 2.6m13 3.8h-.1c-1.3 0-1.6-.4-1.9-1.1-.6.6-1.3 1.1-2.3 1.1-1.4 0-2.3-.9-2.3-2.1 0-2.1 2.5-2.6 4.4-2.6 0-1.4-.6-1.7-1.6-1.7-.6 0-1.2.1-1.9.7l-.2-1.1c.6-.5 1.5-.8 2.5-.8 1.9 0 2.6.9 2.6 3.5v1.5c0 1 .1 1.5.8 1.5h.1l-.1 1.1m-2.1-3.8c-2.1.1-3 .5-3 1.6 0 .8.5 1.1 1.1 1.1.7 0 1.4-.4 1.9-1v-1.7m3 0c0-2.1 1.2-3.8 3.6-3.8 1.1 0 1.8.2 2.3.4l-.2 1.2c-.6-.3-1.2-.5-1.9-.5-1.6 0-2.4 1-2.4 2.6 0 1.6.8 2.7 2.4 2.7.7 0 1.3-.2 1.9-.5l.2 1.1c-.4.3-1 .6-2.2.6-2.5 0-3.7-1.7-3.7-3.8m8 0c.2 2 1.4 2.6 2.8 2.6.7 0 1.5-.1 2.1-.4l.2 1.1c-.6.3-1.4.6-2.5.6-2.6 0-4-1.8-4-3.9 0-2.1 1.3-3.8 3.6-3.8 1.8 0 3.2 1.1 3.2 3.1 0 .2 0 .5-.1.7h-5.3m.1-.9h3.9c0-1-.6-1.7-1.8-1.7-1.2 0-1.8.6-2.1 1.7m-103.7-91.9c-1.1-1.6-1.7-3.5-1.7-6.6s.7-5 1.7-6.6h1.2c-1 1.7-1.8 3.8-1.8 6.6 0 2.9.8 5 1.8 6.6h-1.2m2.9-5.7c.2 2 1.4 2.6 2.8 2.6.7 0 1.5-.1 2.1-.4l.2 1.1c-.6.3-1.4.6-2.5.6-2.6 0-4-1.8-4-3.9 0-2.1 1.3-3.8 3.6-3.8 1.8 0 3.2 1.1 3.2 3.1 0 .2 0 .5-.1.7h-5.3m.1-.9h3.9c0-1-.6-1.7-1.8-1.7-1.2 0-1.8.6-2.1 1.7m11.9 4.6v-4c0-1.6-.5-2.3-1.9-2.3-.8 0-1.6.3-2 1v5.3h-1.3v-7.3h1l.2.8c.8-.8 1.6-.9 2.4-.9 2.1 0 3 1.3 3 3.5v4h-1.4zm16.5 0v-4.3c0-1.4-.5-2-1.7-2-1.7 0-1.9 1.2-1.9 2v4.3h-1.4v-4c0-1.8-.7-2.3-1.7-2.3-.8 0-1.6.3-2 1v5.3h-1.3v-7.3h1l.2.8c.8-.8 1.4-.9 2.2-.9.9 0 1.8.2 2.5 1.5.5-.9 1.3-1.5 2.7-1.5 1.8 0 2.8 1 2.8 3.2v4.3h-1.4zm4.1-3.7c.2 2 1.4 2.6 2.8 2.6.7 0 1.5-.1 2.1-.4l.2 1.1c-.6.3-1.4.6-2.5.6-2.6 0-4-1.8-4-3.9 0-2.1 1.3-3.8 3.6-3.8 1.8 0 3.2 1.1 3.2 3.1 0 .2 0 .5-.1.7h-5.3m2-6.6l-2.2 1.2v-.5l2.2-1.6 2.2 1.6v.5l-2.2-1.2m-1.9 5.7h3.9c0-1-.6-1.7-1.8-1.7-1.2 0-1.8.6-2.1 1.7m16.7 4.6v-4.3c0-1.4-.5-2-1.7-2-1.7 0-1.9 1.2-1.9 2v4.3h-1.4v-4c0-1.8-.7-2.3-1.7-2.3-.8 0-1.6.3-2 1v5.3h-1.4v-7.3h1l.2.8c.8-.8 1.4-.9 2.2-.9.9 0 1.8.2 2.5 1.5.5-.9 1.3-1.5 2.7-1.5 1.8 0 2.8 1 2.8 3.2v4.3h-1.3zm4-3.7c.2 2 1.4 2.6 2.8 2.6.7 0 1.5-.1 2.1-.4l.2 1.1c-.6.3-1.4.6-2.5.6-2.6 0-4-1.8-4-3.9 0-2.1 1.3-3.8 3.6-3.8 1.8 0 3.2 1.1 3.2 3.1 0 .2 0 .5-.1.7h-5.3m.1-.9h3.9c0-1-.6-1.7-1.8-1.7-1.2 0-1.8.6-2.1 1.7m13.8 4.8h-1.2c-1.4 0-1.9-.9-1.9-1.8v-4.7h-1.3l.1-1h1.1v-1.8l1.3-.1v2h1.9v1h-1.9v3.9c0 1.4.1 1.5 1.5 1.5h.3l.1 1m2.2-3.9c.2 2 1.4 2.6 2.8 2.6.7 0 1.5-.1 2.1-.4l.2 1.1c-.6.3-1.4.6-2.5.6-2.6 0-4-1.8-4-3.9 0-2.1 1.3-3.8 3.6-3.8 1.8 0 3.2 1.1 3.2 3.1 0 .2 0 .5-.1.7h-5.3m.1-.9h3.9c0-1-.6-1.7-1.8-1.7-1.2 0-1.8.6-2.1 1.7m16.7 4.6v-4.3c0-1.4-.5-2-1.7-2-1.7 0-1.9 1.2-1.9 2v4.3h-1.4v-4c0-1.8-.7-2.3-1.7-2.3-.8 0-1.6.3-2 1v5.3h-1.3v-7.3h1l.2.8c.8-.8 1.4-.9 2.2-.9.9 0 1.8.2 2.5 1.5.5-.9 1.3-1.5 2.7-1.5 1.8 0 2.8 1 2.8 3.2v4.3h-1.4zm4.4-.9v4.6h-1.3v-11h1l.2 1c.6-.8 1.3-1.2 2.5-1.2 2.1 0 3.3 1.8 3.3 3.8 0 2.1-1.1 3.8-3.3 3.8-.7.1-1.8-.3-2.4-1m-.1-2.8c0 1.8 1.2 2.6 2.2 2.6 1.3 0 2.1-1.2 2.1-2.6 0-1.5-.8-2.6-2.1-2.6-1 0-2.2.9-2.2 2.6m6.7 3.2l.2-1.3c.3.3 1.2.8 2.3.8.9 0 1.5-.3 1.5-.9 0-.8-.9-1-1.5-1.2-1-.3-2.3-.6-2.3-2.1 0-1.1.8-2.2 2.8-2.2 1 0 1.5.3 2 .5l-.2 1.2c-.4-.4-1-.6-1.8-.6-.8 0-1.4.3-1.4 1 0 .7.6.9 1.7 1.2.7.2 2.1.7 2.1 2.2 0 1-.6 2.2-2.8 2.2-1.4-.1-2.3-.5-2.6-.8m5.7 2.5c1-1.7 1.8-3.8 1.8-6.6 0-2.9-.8-5-1.8-6.6h1.2c1.1 1.6 1.7 3.5 1.7 6.6s-.7 5-1.7 6.6h-1.2m-150.4 10.8c0-3.3 2.2-5.5 5.2-5.5s5.2 2.1 5.2 5.5-2.2 5.5-5.2 5.5-5.2-2.2-5.2-5.5m1.6 0c0 2.3 1.2 4.2 3.6 4.2s3.6-1.8 3.6-4.2c0-2.3-1.2-4.2-3.6-4.2s-3.6 1.8-3.6 4.2m15 5.2l-.2-.8c-.5.6-1.1 1-2 1-1.7 0-2.7-1-2.7-3.2v-4.3h1.3v3.9c0 1.6.5 2.4 1.7 2.4.7 0 1.3-.3 1.7-.8v-5.5h1.3v7.3h-1.1m6.6 0h-1.5l-2.8-7.3h1.5l2.1 5.9 2-5.9h1.5l-2.8 7.3m7.4-6.1h-.5c-.6 0-1.4.5-1.7.9v5.2h-1.4v-7.3h1.1l.2 1.2c.9-1 1.6-1.5 2.5-1.5h.1l-.3 1.5m1.3-2.9v-1.5h1.3v1.5h-1.3m0 9v-7.3h1.3v7.3h-1.3m6.7-6.1h-.5c-.6 0-1.4.5-1.7.9v5.2h-1.4v-7.3h1.1l.2 1.2c.9-1 1.6-1.5 2.5-1.5h.1l-.3 1.5m5.5 7.4h-1.5l5.7-11.8h1.5l-5.7 11.8m12.2-10.5v3.1h3.8v1.3h-3.8v4.8h-1.4v-10.5h6.4v1.3h-5m6.4 5.5c.2 2 1.4 2.6 2.8 2.6.7 0 1.5-.1 2.1-.4l.2 1.1c-.6.3-1.4.6-2.5.6-2.6 0-4-1.8-4-3.9 0-2.1 1.3-3.8 3.6-3.8 1.8 0 3.2 1.1 3.2 3.1 0 .2 0 .5-.1.7h-5.3m.1-.9h3.9c0-1-.6-1.7-1.8-1.7-1.2 0-1.8.6-2.1 1.7m10.2-1.5h-.5c-.6 0-1.4.5-1.7.9v5.2h-1.4v-7.3h1.1l.2 1.2c.9-1 1.6-1.5 2.5-1.5h.1l-.3 1.5m11.3 6.1v-4.3c0-1.4-.5-2-1.7-2-1.7 0-1.9 1.2-1.9 2v4.3h-1.4v-4c0-1.8-.7-2.3-1.7-2.3-.8 0-1.6.3-2 1v5.3h-1.3v-7.3h1l.2.8c.8-.8 1.4-.9 2.2-.9.9 0 1.8.2 2.5 1.5.5-.9 1.3-1.5 2.7-1.5 1.8 0 2.8 1 2.8 3.2v4.3h-1.4zm4-3.7c.2 2 1.4 2.6 2.8 2.6.7 0 1.5-.1 2.1-.4l.2 1.1c-.6.3-1.4.6-2.5.6-2.6 0-4-1.8-4-3.9 0-2.1 1.3-3.8 3.6-3.8 1.8 0 3.2 1.1 3.2 3.1 0 .2 0 .5-.1.7h-5.3m.2-.9h3.9c0-1-.6-1.7-1.8-1.7-1.3 0-1.9.6-2.1 1.7m10.2-1.5h-.5c-.6 0-1.4.5-1.7.9v5.2h-1.4v-7.3h1.1l.2 1.2c.9-1 1.6-1.5 2.5-1.5h.1l-.3 1.5m6.9 6.3h-.4c-1.4 0-1.9-.9-1.9-1.8v-9.6h1.3v8.8c0 1.3.2 1.5 1.2 1.5l-.2 1.1m2.1-3.9c.2 2 1.4 2.6 2.8 2.6.7 0 1.5-.1 2.1-.4l.2 1.1c-.6.3-1.4.6-2.5.6-2.6 0-4-1.8-4-3.9 0-2.1 1.3-3.8 3.6-3.8 1.8 0 3.2 1.1 3.2 3.1 0 .2 0 .5-.1.7h-5.3m.1-.9h3.9c0-1-.6-1.7-1.8-1.7-1.2 0-1.8.6-2.1 1.7m20 4.6v-4.3c0-1.4-.5-2-1.7-2-1.7 0-1.9 1.2-1.9 2v4.3h-1.4v-4c0-1.8-.7-2.3-1.7-2.3-.8 0-1.6.3-2 1v5.3h-1.3v-7.3h1l.2.8c.8-.8 1.4-.9 2.2-.9.9 0 1.8.2 2.5 1.5.5-.9 1.3-1.5 2.7-1.5 1.8 0 2.8 1 2.8 3.2v4.3h-1.4zm4.1-3.7c.2 2 1.4 2.6 2.8 2.6.7 0 1.5-.1 2.1-.4l.2 1.1c-.6.3-1.4.6-2.5.6-2.6 0-4-1.8-4-3.9 0-2.1 1.3-3.8 3.6-3.8 1.8 0 3.2 1.1 3.2 3.1 0 .2 0 .5-.1.7h-5.3m.1-.9h3.9c0-1-.6-1.7-1.8-1.7-1.2 0-1.8.6-2.1 1.7m11.9 4.6v-4c0-1.6-.5-2.3-1.9-2.3-.8 0-1.6.3-2 1v5.3h-1.3v-7.3h1l.2.8c.8-.8 1.6-.9 2.4-.9 2.1 0 3 1.3 3 3.5v4h-1.4zm7.9 0l-.2-.8c-.5.6-1.1 1-2 1-1.7 0-2.7-1-2.7-3.2v-4.3h1.3v3.9c0 1.6.5 2.4 1.7 2.4.7 0 1.3-.3 1.7-.8v-5.5h1.3v7.3h-1.1" fill="#fff"/><path d="m395.6 148.8h-2.5c-2.1 0-4-.8-5.5-2.1-1.5-1.4-2.3-3.3-2.3-5.3 0-4.1 3.5-7.4 7.8-7.4h2.5c4.3 0 7.8 3.3 7.8 7.4 0 4.1-3.5 7.4-7.8 7.4m-2.4-12.8c-3.2 0-5.8 2.4-5.8 5.4 0 1.4.6 2.8 1.7 3.8 1.1 1 2.6 1.6 4.1 1.6h2.5v1-1c3.2 0 5.8-2.4 5.8-5.4 0-3-2.6-5.4-5.8-5.4h-2.5m61.2-9.3c0 0 0 0 0 0-3.3 0-6.3-1.3-8.6-3.6-2.3-2.3-3.6-5.4-3.6-8.7 0-6.8 5.5-12.3 12.2-12.3 3.3 0 6.3 1.3 8.6 3.6 2.3 2.3 3.6 5.4 3.6 8.7 0 6.8-5.5 12.3-12.2 12.3m0-22.5c-5.6 0-10.2 4.6-10.2 10.3 0 2.7 1.1 5.3 3 7.3 1.9 1.9 4.5 3 7.2 3 5.6 0 10.2-4.6 10.2-10.3 0-2.7-1.1-5.3-3-7.3-1.9-2-4.5-3-7.2-3m.2 73.1c-6.7 0-12.2-5.5-12.2-12.3 0-6.8 5.5-12.3 12.2-12.3 6.7 0 12.2 5.5 12.2 12.3 0 3.3-1.3 6.4-3.6 8.7-2.3 2.4-5.4 3.6-8.6 3.6m0-22.5c-5.6 0-10.2 4.6-10.2 10.3 0 5.7 4.6 10.3 10.2 10.3v1-1c2.7 0 5.3-1.1 7.2-3 1.9-1.9 3-4.5 3-7.3-.1-5.7-4.6-10.3-10.2-10.3m24.9-2.9c-3.3 0-6.3-1.3-8.6-3.6-2.3-2.3-3.6-5.4-3.6-8.7 0-6.8 5.5-12.3 12.2-12.3 6.7 0 12.2 5.5 12.2 12.3 0 3.3-1.3 6.4-3.6 8.7-2.2 2.3-5.3 3.6-8.6 3.6m0-22.5c-5.6 0-10.2 4.6-10.2 10.3 0 2.7 1.1 5.3 3 7.3 1.9 1.9 4.5 3 7.2 3v1-1c2.7 0 5.3-1.1 7.2-3 1.9-1.9 3-4.5 3-7.3 0-5.7-4.5-10.3-10.2-10.3m-212.7-55.6c0-.6.4-1 1-1h13.8c.6 0 1 .4 1 1v6.2h2v-6.2c0-1.7-1.3-3-3-3h-13.8c-1.7 0-3 1.3-3 3v7.2h2v-7.2m187.8 0c0-1.7-1.3-3-3-3h-13.8c-1.7 0-3 1.3-3 3v6.2h2v-6.2c0-.6.5-1 1-1h13.8c.6 0 1 .4 1 1v7.1h2v-7.1m2.6 96.5l-.9-2.5h-3.5l-.9 2.5h-2l3.7-10.5h1.8l3.7 10.5h-1.9m-2.7-7.4l-1.1 3.1h2.2l-1.1-3.1m21.6-18v-10.5h2.8c2.4 0 4 .4 4 2.7 0 .9-.3 1.7-.9 2.2 1.2.5 1.8 1.2 1.8 2.5 0 2.4-2 3.1-3.8 3.1h-3.9m1.9-8.9v2.6h1.9c.5 0 1.3-.2 1.3-1.2 0-1.1-.6-1.4-1.5-1.4h-1.7m0 4.1v3.1h1.9c1.2 0 2-.4 2-1.6 0-1.2-.8-1.6-1.9-1.6h-2zm-61.8-60.4l-2.2-3.9h-1.9v3.9h-1.9v-10.5h3.8c2 0 3.6.8 3.6 3 0 1.6-.8 2.4-1.8 3.1l2.4 4.4h-2m-4.1-8.9v3.2h1.4c1.7 0 2.1-.7 2.1-1.6 0-1-.4-1.6-2-1.6h-1.5m11.3.3v8.6h-1.9v-8.6h-3v-1.9h7.9v1.9h-3m-126.1 8.6v-10.5h1.9v8.6h4.3v1.9h-6.2m10.6-8.6v8.6h-1.9v-8.6h-3v-1.9h7.9v1.9h-3m147.5 43.9v4.6h-1.9v-4.6l-3.6-5.8h2l2.5 4.1 2.6-4.1h2l-3.6 5.8m-63.5 24l4.6 2.4-4.6 2.4v-4.8m-1.1-1.7v8.3l7.9-4.1-7.9-4.2z" fill="#ee524b"/><path d="m592.7 257.7l-126.9-92.6m126.9 36.5l-101.9-62m-25.2-25.2l127.1 6.3m-206.3 20.7l-204-10.1m255.4-59.5l-39-38.8h-130.3-88.2m94.4 38.8l-15.2-38.8" fill="none" stroke="#ee524b"/></svg>