<svg version="1.1" id="entry" xmlns="http://www.w3.org/2000/svg" xmlns:xlink="http://www.w3.org/1999/xlink" x="0px" y="0px" width="2250px" height="1600px" viewBox="0 0 2250 1600" xml:space="preserve">

	<style type="text/css">
		.st0{clip-path:url(#mask_1_);}
		.st1{fill:none;stroke:#474775;stroke-miterlimit:10;}
	</style>

	<defs>
		<rect id="mask" width="2250" height="1600"/>
	</defs>
	<clipPath id="mask_1_">
		<use xlink:href="#mask"  style="overflow:visible;"/>
	</clipPath>

	<g id="hexa" class="st0">

		<polygon class="st1" points="2375,1521.7 1125,2243.4 -125,1521.7 -125,78.3 1125,-643.4 2375,78.3 " />

		<polygon class="st1" points="2250,1449.5 1125,2099 0,1449.5 0,150.5 1125,-499 2250,150.5">
			<animate
				attributeName="points"
				fill="freeze"
				begin= "0"
				dur="0.5s"
				to="2375,1521.7 1125,2243.4 -125,1521.7 -125,78.3 1125,-643.4 2375,78.3"
				repeatCount="indefinite"
			/>
		</polygon>

		<polygon class="st1" points="2137.5,1384.6 1125,1969.1 112.5,1384.6 112.5,215.4 1125,-369.1 2137.5,215.4">
			<animate
				attributeName="points"
				fill="freeze"
				begin= "0"
				dur="0.5s"
				to="2250,1449.5 1125,2099 0,1449.5 0,150.5 1125,-499 2250,150.5"
				repeatCount="indefinite"
			/>
		</polygon>

		<polygon class="st1" points="2036.3,1326.1 1125,1852.2 213.8,1326.1 213.8,273.9 1125,-252.2 2036.3,273.9">
			<animate
				attributeName="points"
				fill="freeze"
				begin= "0"
				dur="0.5s"
				to="2137.5,1384.6 1125,1969.1 112.5,1384.6 112.5,215.4 1125,-369.1 2137.5,215.4"
				repeatCount="indefinite"
			/>
		</polygon>

		<polygon class="st1" points="1945.1,1273.5 1125,1747 304.9,1273.5 304.9,326.5 1125,-147 1945.1,326.5">
			<animate
				attributeName="points"
				fill="freeze"
				begin= "0"
				dur="0.5s"
				to="2036.3,1326.1 1125,1852.2 213.8,1326.1 213.8,273.9 1125,-252.2 2036.3,273.9"
				repeatCount="indefinite"
			/>
		</polygon>

		<polygon class="st1" points="1863.1,1226.1 1125,1652.3 386.9,1226.1 386.9,373.9 1125,-52.3 1863.1,373.9">
			<animate
				attributeName="points"
				fill="freeze"
				begin= "0"
				dur="0.5s"
				to="1945.1,1273.5 1125,1747 304.9,1273.5 304.9,326.5 1125,-147 1945.1,326.5"
				repeatCount="indefinite"
			/>
		</polygon>

		<polygon class="st1" points="1789.3,1183.5 1125,1567.1 460.7,1183.5 460.7,416.5 1125,32.9 1789.3,416.5">
			<animate
				attributeName="points"
				fill="freeze"
				begin= "0"
				dur="0.5s"
				to="1863.1,1226.1 1125,1652.3 386.9,1226.1 386.9,373.9 1125,-52.3 1863.1,373.9"
				repeatCount="indefinite"
			/>
		</polygon>

		<polygon class="st1" points="1722.9,1145.2 1125,1490.4 527.1,1145.2 527.1,454.8 1125,109.6 1722.9,454.8">
			<animate
				attributeName="points"
				fill="freeze"
				begin= "0"
				dur="0.5s"
				to="1789.3,1183.5 1125,1567.1 460.7,1183.5 460.7,416.5 1125,32.9 1789.3,416.5"
				repeatCount="indefinite"
			/>
		</polygon>

		<polygon class="st1" points="1663.1,1110.7 1125,1421.3 586.9,1110.7 586.9,489.3 1125,178.7 1663.1,489.3">
			<animate
				attributeName="points"
				fill="freeze"
				begin= "0"
				dur="0.5s"
				to="1722.9,1145.2 1125,1490.4 527.1,1145.2 527.1,454.8 1125,109.6 1722.9,454.8"
				repeatCount="indefinite"
			/>
		</polygon>

		<polygon class="st1" points="1609.3,1079.6 1125,1359.2 640.7,1079.6 640.7,520.4 1125,240.8 1609.3,520.4">
			<animate
				attributeName="points"
				fill="freeze"
				begin= "0"
				dur="0.5s"
				to="1663.1,1110.7 1125,1421.3 586.9,1110.7 586.9,489.3 1125,178.7 1663.1,489.3"
				repeatCount="indefinite"
			/>
		</polygon>

		<polygon class="st1" points="1560.8,1051.6 1125,1303.3 689.2,1051.6 689.2,548.4 1125,296.7 1560.8,548.4">
			<animate
				attributeName="points"
				fill="freeze"
				begin= "0"
				dur="0.5s"
				to="1609.3,1079.6 1125,1359.2 640.7,1079.6 640.7,520.4 1125,240.8 1609.3,520.4"
				repeatCount="indefinite"
			/>
		</polygon>

		<polygon class="st1" points="1517.3,1026.5 1125,1252.9 732.7,1026.5 732.7,573.5 1125,347.1 1517.3,573.5">
			<animate
				attributeName="points"
				fill="freeze"
				begin= "0"
				dur="0.5s"
				to="1560.8,1051.6 1125,1303.3 689.2,1051.6 689.2,548.4 1125,296.7 1560.8,548.4"
				repeatCount="indefinite"
			/>
		</polygon>

		<polygon class="st1" points="1478,1003.8 1125,1207.7 772,1003.8 772,596.2 1125,392.3 1478,596.2">
			<animate
				attributeName="points"
				fill="freeze"
				begin= "0"
				dur="0.5s"
				to="1517.3,1026.5 1125,1252.9 732.7,1026.5 732.7,573.5 1125,347.1 1517.3,573.5"
				repeatCount="indefinite"
			/>
		</polygon>

		<polygon class="st1" points="1442.7,983.4 1125,1166.9 807.3,983.4 807.3,616.6 1125,433.1 1442.7,616.6">
			<animate
				attributeName="points"
				fill="freeze"
				begin= "0"
				dur="0.5s"
				to="1478,1003.8 1125,1207.7 772,1003.8 772,596.2 1125,392.3 1478,596.2"
				repeatCount="indefinite"
			/>
		</polygon>

		<polygon class="st1" points="1411,965.1 1125,1130.2 839,965.1 839,634.9 1125,469.8 1411,634.9">
			<animate
				attributeName="points"
				fill="freeze"
				begin= "0"
				dur="0.5s"
				to="1442.7,983.4 1125,1166.9 807.3,983.4 807.3,616.6 1125,433.1 1442.7,616.6"
				repeatCount="indefinite"
			/>
		</polygon>

		<polygon class="st1" points="1382.4,948.6 1125,1097.2 867.6,948.6 867.6,651.4 1125,502.8 1382.4,651.4">
			<animate
				attributeName="points"
				fill="freeze"
				begin= "0"
				dur="0.5s"
				to="1411,965.1 1125,1130.2 839,965.1 839,634.9 1125,469.8 1411,634.9"
				repeatCount="indefinite"
			/>
		</polygon>

		<polygon class="st1" points="1356.6,933.7 1125,1067.5 893.4,933.7 893.4,666.3 1125,532.5 1356.6,666.3">
			<animate
				attributeName="points"
				fill="freeze"
				begin= "0"
				dur="0.5s"
				to="1382.4,948.6 1125,1097.2 867.6,948.6 867.6,651.4 1125,502.8 1382.4,651.4"
				repeatCount="indefinite"
			/>
		</polygon>

		<polygon class="st1" points="1333.5,920.4 1125,1040.7 916.5,920.4 916.5,679.6 1125,559.3 1333.5,679.6">
			<animate
				attributeName="points"
				fill="freeze"
				begin= "0"
				dur="0.5s"
				to="1356.6,933.7 1125,1067.5 893.4,933.7 893.4,666.3 1125,532.5 1356.6,666.3"
				repeatCount="indefinite"
			/>
		</polygon>

		<polygon class="st1" points="1312.6,908.3 1125,1016.6 937.4,908.3 937.4,691.7 1125,583.4 1312.6,691.7">
			<animate
				attributeName="points"
				fill="freeze"
				begin= "0"
				dur="0.5s"
				to="1333.5,920.4 1125,1040.7 916.5,920.4 916.5,679.6 1125,559.3 1333.5,679.6"
				repeatCount="indefinite"
			/>
		</polygon>

		<polygon class="st1" points="1293.9,897.5 1125,995 956.1,897.5 956.1,702.5 1125,605 1293.9,702.5">
			<animate
				attributeName="points"
				fill="freeze"
				begin= "0"
				dur="0.5s"
				to="1312.6,908.3 1125,1016.6 937.4,908.3 937.4,691.7 1125,583.4 1312.6,691.7"
				repeatCount="indefinite"
			/>
		</polygon>

		<polygon class="st1" points="1277,887.7 1125,975.5 973,887.7 973,712.3 1125,624.5 1277,712.3">
			<animate
				attributeName="points"
				fill="freeze"
				begin= "0"
				dur="0.5s"
				to="1293.9,897.5 1125,995 956.1,897.5 956.1,702.5 1125,605 1293.9,702.5"
				repeatCount="indefinite"
			/>
		</polygon>

		<polygon class="st1" points="1261.8,879 1125,957.9 988.2,879 988.2,721 1125,642.1 1261.8,721">
			<animate
				attributeName="points"
				fill="freeze"
				begin= "0"
				dur="0.5s"
				to="1277,887.7 1125,975.5 973,887.7 973,712.3 1125,624.5 1277,712.3"
				repeatCount="indefinite"
			/>
		</polygon>

		<polygon class="st1" points="1248.1,871.1 1125,942.1 1001.9,871.1 1001.9,728.9 1125,657.9 1248.1,728.9 ">
			<animate
				attributeName="points"
				fill="freeze"
				begin= "0"
				dur="0.5s"
				to="1261.8,879 1125,957.9 988.2,879 988.2,721 1125,642.1 1261.8,721"
				repeatCount="indefinite"
			/>
		</polygon>

		<polygon class="st1" points="1235.8,864 1125,927.9 1014.2,864 1014.2,736 1125,672.1 1235.8,736 ">
			<animate
				attributeName="points"
				fill="freeze"
				begin= "0"
				dur="0.5s"
				to="1248.1,871.1 1125,942.1 1001.9,871.1 1001.9,728.9 1125,657.9 1248.1,728.9"
				repeatCount="indefinite"
			/>
		</polygon>

		<polygon class="st1" points="1224.7,857.6 1125,915.1 1025.3,857.6 1025.3,742.4 1125,684.9 1224.7,742.4">
			<animate
				attributeName="points"
				fill="freeze"
				begin= "0"
				dur="0.5s"
				to="1235.8,864 1125,927.9 1014.2,864 1014.2,736 1125,672.1 1235.8,736"
				repeatCount="indefinite"
			/>
		</polygon>

		<polygon class="st1" points="1214.7,851.8 1125,903.6 1035.3,851.8 1035.3,748.2 1125,696.4 1214.7,748.2">
			<animate
				attributeName="points"
				fill="freeze"
				begin= "0"
				dur="0.5s"
				to="1224.7,857.6 1125,915.1 1025.3,857.6 1025.3,742.4 1125,684.9 1224.7,742.4"
				repeatCount="indefinite"
			/>
		</polygon>

		<polygon class="st1" points="1205.8,846.6 1125,893.3 1044.2,846.6 1044.2,753.4 1125,706.7 1205.8,753.4">
			<animate
				attributeName="points"
				fill="freeze"
				begin= "0"
				dur="0.5s"
				to="1214.7,851.8 1125,903.6 1035.3,851.8 1035.3,748.2 1125,696.4 1214.7,748.2"
				repeatCount="indefinite"
			/>
		</polygon>

		<polygon class="st1" points="1197.7,842 1125,883.9 1052.3,842 1052.3,758 1125,716.1 1197.7,758">
			<animate
				attributeName="points"
				fill="freeze"
				begin= "0"
				dur="0.5s"
				to="1205.8,846.6 1125,893.3 1044.2,846.6 1044.2,753.4 1125,706.7 1205.8,753.4"
				repeatCount="indefinite"
			/>
		</polygon>

		<polygon class="st1" points="1190.4,837.8 1125,875.5 1059.6,837.8 1059.6,762.2 1125,724.5 1190.4,762.2">
			<animate
				attributeName="points"
				fill="freeze"
				begin= "0"
				dur="0.5s"
				to="1197.7,842 1125,883.9 1052.3,842 1052.3,758 1125,716.1 1197.7,758"
				repeatCount="indefinite"
			/>
		</polygon>

		<polygon class="st1" points="1183.9,834 1125,868 1066.1,834 1066.1,766 1125,732 1183.9,766">
			<animate
				attributeName="points"
				fill="freeze"
				begin= "0"
				dur="0.5s"
				to="1190.4,837.8 1125,875.5 1059.6,837.8 1059.6,762.2 1125,724.5 1190.4,762.2"
				repeatCount="indefinite"
			/>
		</polygon>

		<polygon class="st1" points="1178,830.6 1125,861.2 1072,830.6 1072,769.4 1125,738.8 1178,769.4">
			<animate
				attributeName="points"
				fill="freeze"
				begin= "0"
				dur="0.5s"
				to="1183.9,834 1125,868 1066.1,834 1066.1,766 1125,732 1183.9,766"
				repeatCount="indefinite"
			/>
		</polygon>

		<polygon class="st1" points="1172.7,827.5 1125,855.1 1077.3,827.5 1077.3,772.5 1125,744.9 1172.7,772.5">
			<animate
				attributeName="points"
				fill="freeze"
				begin= "0"
				dur="0.5s"
				to="1178,830.6 1125,861.2 1072,830.6 1072,769.4 1125,738.8 1178,769.4"
				repeatCount="indefinite"
			/>
		</polygon>

		<polygon class="st1" points="1167.9,824.8 1125,849.6 1082.1,824.8 1082.1,775.2 1125,750.4 1167.9,775.2">
			<animate
				attributeName="points"
				fill="freeze"
				begin= "0"
				dur="0.5s"
				to="1172.7,827.5 1125,855.1 1077.3,827.5 1077.3,772.5 1125,744.9 1172.7,772.5"
				repeatCount="indefinite"
			/>
		</polygon>

		<polygon class="st1" points="1163.6,822.3 1125,844.6 1086.4,822.3 1086.4,777.7 1125,755.4 1163.6,777.7">
			<animate
				attributeName="points"
				fill="freeze"
				begin= "0"
				dur="0.5s"
				to="1167.9,824.8 1125,849.6 1082.1,824.8 1082.1,775.2 1125,750.4 1167.9,775.2"
				repeatCount="indefinite"
			/>
		</polygon>

		<polygon class="st1" points="1159.8,820.1 1125,840.1 1090.2,820.1 1090.2,779.9 1125,759.9 1159.8,779.9">
			<animate
				attributeName="points"
				fill="freeze"
				begin= "0"
				dur="0.5s"
				to="1163.6,822.3 1125,844.6 1086.4,822.3 1086.4,777.7 1125,755.4 1163.6,777.7"
				repeatCount="indefinite"
			/>
		</polygon>

		<polygon class="st1" points="1156.3,818.1 1125,836.1 1093.7,818.1 1093.7,781.9 1125,763.9 1156.3,781.9">
			<animate
				attributeName="points"
				fill="freeze"
				begin= "0"
				dur="0.5s"
				to="1159.8,820.1 1125,840.1 1090.2,820.1 1090.2,779.9 1125,759.9 1159.8,779.9"
				repeatCount="indefinite"
			/>
		</polygon>

		<polygon class="st1" points="1153.2,816.3 1125,832.5 1096.8,816.3 1096.8,783.7 1125,767.5 1153.2,783.7">
			<animate
				attributeName="points"
				fill="freeze"
				begin= "0"
				dur="0.5s"
				to="1156.3,818.1 1125,836.1 1093.7,818.1 1093.7,781.9 1125,763.9 1156.3,781.9"
				repeatCount="indefinite"
			/>
		</polygon>

		<polygon class="st1" points="1150.3,814.6 1125,829.3 1099.7,814.6 1099.7,785.4 1125,770.7 1150.3,785.4">
			<animate
				attributeName="points"
				fill="freeze"
				begin= "0"
				dur="0.5s"
				to="1153.2,816.3 1125,832.5 1096.8,816.3 1096.8,783.7 1125,767.5 1153.2,783.7"
				repeatCount="indefinite"
			/>
		</polygon>

		<polygon class="st1" points="1147.8,813.2 1125,826.3 1102.2,813.2 1102.2,786.8 1125,773.7 1147.8,786.8">
			<animate
				attributeName="points"
				fill="freeze"
				begin= "0"
				dur="0.5s"
				to="1150.3,814.6 1125,829.3 1099.7,814.6 1099.7,785.4 1125,770.7 1150.3,785.4"
				repeatCount="indefinite"
			/>
		</polygon>

		<polygon class="st1" points="1145.5,811.9 1125,823.7 1104.5,811.9 1104.5,788.1 1125,776.3 1145.5,788.1">
			<animate
				attributeName="points"
				fill="freeze"
				begin= "0"
				dur="0.5s"
				to="1147.8,813.2 1125,826.3 1102.2,813.2 1102.2,786.8 1125,773.7 1147.8,786.8"
				repeatCount="indefinite"
			/>
		</polygon>

		<polygon class="st1" points="1143.5,810.7 1125,821.3 1106.5,810.7 1106.5,789.3 1125,778.7 1143.5,789.3">
			<animate
				attributeName="points"
				fill="freeze"
				begin= "0"
				dur="0.5s"
				to="1145.5,811.9 1125,823.7 1104.5,811.9 1104.5,788.1 1125,776.3 1145.5,788.1"
				repeatCount="indefinite"
			/>
		</polygon>

		<polygon class="st1" points="1141.6,809.6 1125,819.2 1108.4,809.6 1108.4,790.4 1125,780.8 1141.6,790.4">
			<animate
				attributeName="points"
				fill="freeze"
				begin= "0"
				dur="0.5s"
				to="1143.5,810.7 1125,821.3 1106.5,810.7 1106.5,789.3 1125,778.7 1143.5,789.3"
				repeatCount="indefinite"
			/>
		</polygon>

		<polygon class="st1" points="1140,808.6 1125,817.3 1110,808.6 1110,791.4 1125,782.7 1140,791.4">
			<animate
				attributeName="points"
				fill="freeze"
				begin= "0"
				dur="0.5s"
				to="1141.6,809.6 1125,819.2 1108.4,809.6 1108.4,790.4 1125,780.8 1141.6,790.4"
				repeatCount="indefinite"
			/>
		</polygon>

		<polygon class="st1" points="1138.5,807.8 1125,815.6 1111.5,807.8 1111.5,792.2 1125,784.4 1138.5,792.2">
			<animate
				attributeName="points"
				fill="freeze"
				begin= "0"
				dur="0.5s"
				to="1140,808.6 1125,817.3 1110,808.6 1110,791.4 1125,782.7 1140,791.4"
				repeatCount="indefinite"
			/>
		</polygon>

		<polygon class="st1" points="1137.1,807 1125,814 1112.9,807 1112.9,793 1125,786 1137.1,793">
			<animate
				attributeName="points"
				fill="freeze"
				begin= "0"
				dur="0.5s"
				to="1138.5,807.8 1125,815.6 1111.5,807.8 1111.5,792.2 1125,784.4 1138.5,792.2"
				repeatCount="indefinite"
			/>
		</polygon>

		<polygon class="st1" points="1135.9,806.3 1125,812.6 1114.1,806.3 1114.1,793.7 1125,787.4 1135.9,793.7">
			<animate
				attributeName="points"
				fill="freeze"
				begin= "0"
				dur="0.5s"
				to="1137.1,807 1125,814 1112.9,807 1112.9,793 1125,786 1137.1,793"
				repeatCount="indefinite"
			/>
		</polygon>

		<polygon class="st1" points="1134.8,805.7 1125,811.3 1115.2,805.7 1115.2,794.3 1125,788.7 1134.8,794.3">
			<animate
				attributeName="points"
				fill="freeze"
				begin= "0"
				dur="0.5s"
				to="1135.9,806.3 1125,812.6 1114.1,806.3 1114.1,793.7 1125,787.4 1135.9,793.7"
				repeatCount="indefinite"
			/>
		</polygon>

		<polygon class="st1" points="1133.8,805.1 1125,810.2 1116.2,805.1 1116.2,794.9 1125,789.8 1133.8,794.9">
			<animate
				attributeName="points"
				fill="freeze"
				begin= "0"
				dur="0.5s"
				to="1134.8,805.7 1125,811.3 1115.2,805.7 1115.2,794.3 1125,788.7 1134.8,794.3"
				repeatCount="indefinite"
			/>
		</polygon>

		<polygon class="st1" points="1133,804.6 1125,809.2 1117,804.6 1117,795.4 1125,790.8 1133,795.4">
			<animate
				attributeName="points"
				fill="freeze"
				begin= "0"
				dur="0.5s"
				to="1133.8,805.1 1125,810.2 1116.2,805.1 1116.2,794.9 1125,789.8 1133.8,794.9"
				repeatCount="indefinite"
			/>
		</polygon>

		<polygon class="st1" points="1132.2,804.1 1125,808.3 1117.8,804.1 1117.8,795.9 1125,791.7 1132.2,795.9">
			<animate
				attributeName="points"
				fill="freeze"
				begin= "0"
				dur="0.5s"
				to="1133,804.6 1125,809.2 1117,804.6 1117,795.4 1125,790.8 1133,795.4"
				repeatCount="indefinite"
			/>
		</polygon>

		<polygon class="st1" points="1131.4,803.7 1125,807.4 1118.6,803.7 1118.6,796.3 1125,792.6 1131.4,796.3">
			<animate
				attributeName="points"
				fill="freeze"
				begin= "0"
				dur="0.5s"
				to="1132.2,804.1 1125,808.3 1117.8,804.1 1117.8,795.9 1125,791.7 1132.2,795.9"
				repeatCount="indefinite"
			/>
		</polygon>

		<polygon class="st1" points="1130.8,803.3 1125,806.7 1119.2,803.3 1119.2,796.7 1125,793.3 1130.8,796.7">
			<animate
				attributeName="points"
				fill="freeze"
				begin= "0"
				dur="0.5s"
				to="1131.4,803.7 1125,807.4 1118.6,803.7 1118.6,796.3 1125,792.6 1131.4,796.3"
				repeatCount="indefinite"
			/>
		</polygon>

		<polygon class="st1" points="1130.2,803 1125,806 1119.8,803 1119.8,797 1125,794 1130.2,797">
			<animate
				attributeName="points"
				fill="freeze"
				begin= "0"
				dur="0.5s"
				to="1130.8,803.3 1125,806.7 1119.2,803.3 1119.2,796.7 1125,793.3 1130.8,796.7"
				repeatCount="indefinite"
			/>
		</polygon>

		<polygon class="st1" points="1129.7,802.7 1125,805.4 1120.3,802.7 1120.3,797.3 1125,794.6 1129.7,797.3">
			<animate
				attributeName="points"
				fill="freeze"
				begin= "0"
				dur="0.5s"
				to="1130.2,803 1125,806 1119.8,803 1119.8,797 1125,794 1130.2,797"
				repeatCount="indefinite"
			/>
		</polygon>

		<polygon class="st1" points="1129.2,802.4 1125,804.9 1120.8,802.4 1120.8,797.6 1125,795.1 1129.2,797.6">
			<animate
				attributeName="points"
				fill="freeze"
				begin= "0"
				dur="0.5s"
				to="1129.7,802.7 1125,805.4 1120.3,802.7 1120.3,797.3 1125,794.6 1129.7,797.3"
				repeatCount="indefinite"
			/>
		</polygon>

		<polygon class="st1" points="1128.8,802.2 1125,804.4 1121.2,802.2 1121.2,797.8 1125,795.6 1128.8,797.8">
			<animate
				attributeName="points"
				fill="freeze"
				begin= "0"
				dur="0.5s"
				to="1129.2,802.4 1125,804.9 1120.8,802.4 1120.8,797.6 1125,795.1 1129.2,797.6"
				repeatCount="indefinite"
			/>
		</polygon>

		<polygon class="st1" points="1128.4,802 1125,804 1121.6,802 1121.6,798 1125,796 1128.4,798">
			<animate
				attributeName="points"
				fill="freeze"
				begin= "0"
				dur="0.5s"
				to="1128.8,802.2 1125,804.4 1121.2,802.2 1121.2,797.8 1125,795.6 1128.8,797.8"
				repeatCount="indefinite"
			/>
		</polygon>

		<polygon class="st1" points="1128.1,801.8 1125,803.6 1121.9,801.8 1121.9,798.2 1125,796.4 1128.1,798.2">
			<animate
				attributeName="points"
				fill="freeze"
				begin= "0"
				dur="0.5s"
				to="1128.4,802 1125,804 1121.6,802 1121.6,798 1125,796 1128.4,798"
				repeatCount="indefinite"
			/>
		</polygon>

		<polygon class="st1" points="1127.8,801.6 1125,803.2 1122.2,801.6 1122.2,798.4 1125,796.8 1127.8,798.4">
			<animate
				attributeName="points"
				fill="freeze"
				begin= "0"
				dur="0.5s"
				to="1128.1,801.8 1125,803.6 1121.9,801.8 1121.9,798.2 1125,796.4 1128.1,798.2"
				repeatCount="indefinite"
			/>
		</polygon>

		<polygon class="st1" points="1127.5,801.4 1125,802.9 1122.5,801.4 1122.5,798.6 1125,797.1 1127.5,798.6">
			<animate
				attributeName="points"
				fill="freeze"
				begin= "0"
				dur="0.5s"
				to="1127.8,801.6 1125,803.2 1122.2,801.6 1122.2,798.4 1125,796.8 1127.8,798.4"
				repeatCount="indefinite"
			/>
		</polygon>

		<polygon class="st1" points="1127.2,801.3 1125,802.6 1122.8,801.3 1122.8,798.7 1125,797.4 1127.2,798.7">
			<animate
				attributeName="points"
				fill="freeze"
				begin= "0"
				dur="0.5s"
				to="1127.5,801.4 1125,802.9 1122.5,801.4 1122.5,798.6 1125,797.1 1127.5,798.6"
				repeatCount="indefinite"
			/>
		</polygon>

		<polygon class="st1" points="1127,801.2 1125,802.3 1123,801.2 1123,798.8 1125,797.7 1127,798.8">
			<animate
				attributeName="points"
				fill="freeze"
				begin= "0"
				dur="0.5s"
				to="1127.2,801.3 1125,802.6 1122.8,801.3 1122.8,798.7 1125,797.4 1127.2,798.7"
				repeatCount="indefinite"
			/>
		</polygon>

		<polygon class="st1" points="1126.8,801.1 1125,802.1 1123.2,801.1 1123.2,798.9 1125,797.9 1126.8,798.9">
			<animate
				attributeName="points"
				fill="freeze"
				begin= "0"
				dur="0.5s"
				to="1127,801.2 1125,802.3 1123,801.2 1123,798.8 1125,797.7 1127,798.8"
				repeatCount="indefinite"
			/>
		</polygon>

		<polygon class="st1" points="1126.6,800.9 1125,801.9 1123.4,800.9 1123.4,799.1 1125,798.1 1126.6,799.1">
			<animate
				attributeName="points"
				fill="freeze"
				begin= "0"
				dur="0.5s"
				to="1126.8,801.1 1125,802.1 1123.2,801.1 1123.2,798.9 1125,797.9 1126.8,798.9"
				repeatCount="indefinite"
			/>
		</polygon>

		<polygon class="st1" points="1126.5,800.9 1125,801.7 1123.5,800.9 1123.5,799.1 1125,798.3 1126.5,799.1">
			<animate
				attributeName="points"
				fill="freeze"
				begin= "0"
				dur="0.5s"
				to="1126.6,800.9 1125,801.9 1123.4,800.9 1123.4,799.1 1125,798.1 1126.6,799.1"
				repeatCount="indefinite"
			/>
		</polygon>

		<polygon class="st1" points="1126.3,800.8 1125,801.5 1123.7,800.8 1123.7,799.2 1125,798.5 1126.3,799.2">
			<animate
				attributeName="points"
				fill="freeze"
				begin= "0"
				dur="0.5s"
				to="1126.5,800.9 1125,801.7 1123.5,800.9 1123.5,799.1 1125,798.3 1126.5,799.1"
				repeatCount="indefinite"
			/>
		</polygon>

		<polygon class="st1" points="1126.2,800.7 1125,801.4 1123.8,800.7 1123.8,799.3 1125,798.6 1126.2,799.3">
			<animate
				attributeName="points"
				fill="freeze"
				begin= "0"
				dur="0.5s"
				to="1126.3,800.8 1125,801.5 1123.7,800.8 1123.7,799.2 1125,798.5 1126.3,799.2"
				repeatCount="indefinite"
			/>
		</polygon>

	</g>

</svg>