<svg version="1.1" xmlns="http://www.w3.org/2000/svg" viewBox="0 0 260 160"><path d="m20.7 2c.9 0 1.9.1 2.9.3 0 0 .5.9.9 1.1.4.2 3.3 1.5 4 2.1.7.5 3.5 1.4 3.5 1.4s3.5.7 8.4.7c2.4 0 5.2-.2 8-.7 0 0 1.9-.4 3.7-1.3 1.8-.9 3.8-1.6 4-1.9.2-.2 1.1-1.4 1.1-1.4s1.1-.3 2.9-.3c2.4 0 5.9.6 9.5 3.4 0 0 .5 1.7.4 1.7.2.1 2.2 1.6 6.8 19.9 4.8 19.1 0 26.2-1.7 27-.6.3-1.6.6-3 .6-2.5 0-6.4-1.2-11.9-6.4-8.6-8.1-16.4-6.8-19.8-7-.5 0-1.1-.1-1.7-.1-4.1 0-11.4.9-17.6 6.4-7.2 6.5-8.4 6.9-13.7 7 0 0-.1 0-.1 0-5.3 0-5.9-8.9-4.6-20.7 0 0 2.7-17.2 8.2-27 0 0 .3-1.3.3-1.6 0 0 4.1-3.2 9.5-3.2m19.6 19.8c2.8 0 5-2.3 5-5 0-2.8-2.2-5-5-5-2.8 0-5 2.3-5 5 0 2.8 2.3 5 5 5m-19.6-21.3c-5.4 0-10.5 3.1-11 4.4 0 .2-.2.7-.3 1.5-5.5 10-8.2 26.6-8.3 27.3-1.2 11.1-.5 17.6 2.1 20.6 1 1.2 2.4 1.8 4 1.8h.1c5.9-.1 7.4-.9 14.7-7.4 5.6-5 12.1-6.1 16.6-6.1.6 0 1.1 0 1.6.1.5 0 1.1 0 1.7 0 3.8 0 10.2 0 17.2 6.6 4.8 4.5 9.2 6.8 13 6.8 1.6 0 2.8-.4 3.6-.8 2.3-1 7.7-8.4 2.5-28.7-2-7.9-4.7-17.4-6.8-20.2-.1-.3-.2-.8-.4-1.4l-.1-.5-.4-.3c-3.9-3-7.8-3.7-10.4-3.7-1.9 0-3.2.3-3.3.4l-.4.1-.3.4c0 0-.6.8-1 1.2-.2.1-.6.3-.9.4-.8.3-1.8.8-2.8 1.3-1.6.8-3.3 1.2-3.3 1.2-2.4.5-5 .7-7.7.7-4.3 0-7.6-.6-8-.7-1.3-.4-2.7-.9-3-1.1-.6-.4-1.9-1.1-3.8-2-.1-.1-.2-.1-.3-.1-.1-.1-.3-.4-.4-.6l-.3-.7-.6-.1c-1.1-.3-2.2-.4-3.3-.4zm19.6 21.3v-1.5c-1.9 0-3.5-1.6-3.5-3.5 0-2 1.6-3.5 3.5-3.5.9 0 1.8.4 2.5 1 .7.7 1 1.6 1 2.5 0 2-1.6 3.5-3.5 3.5v1.5" fill="#ee524b"/><path d="m258.5 105.9v52.6h-139.2v-52.6h139.2m-17.8 18h1.5 12.4 1.5v-1.5-12.4-1.5h-1.5-12.4-1.5v1.5 12.4 1.5m-17 0h1.5 12.4 1.5v-1.5-12.4-1.5h-1.5-12.4-1.5v1.5 12.4 1.5m-17 0h1.5 12.4 1.5v-1.5-12.4-1.5h-1.5-12.4-1.5v1.5 12.4 1.5m-17 0h1.5 12.4 1.5v-1.5-12.4-1.5h-1.5-12.4-1.5v1.5 12.4 1.5m-17 0h1.5 12.4 1.5v-1.5-12.4-1.5h-1.5-12.4-1.5v1.5 12.4 1.5m-17.1 0h1.5 12.4 1.5v-1.5-12.4-1.5h-1.5-12.4-1.5v1.5 12.4 1.5m-17 0h1.5 12.4 1.5v-1.5-12.4-1.5h-1.5-12.4-1.5v1.5 12.4 1.5m-17 0h1.5 12.4 1.5v-1.5-12.4-1.5h-1.5-12.4-1.5v1.5 12.4 1.5m119.1 17h1.5 12.4 1.5v-1.5-12.4-1.5h-1.5-12.4-1.5v1.5 12.4 1.5m-17 0h1.5 12.4 1.5v-1.5-12.4-1.5h-1.5-12.4-1.5v1.5 12.4 1.5m-17 0h1.5 12.4 1.5v-1.5-12.4-1.5h-1.5-12.4-1.5v1.5 12.4 1.5m-17 0h1.5 12.4 1.5v-1.5-12.4-1.5h-1.5-12.4-1.5v1.5 12.4 1.5m-17 0h1.5 12.4 1.5v-1.5-12.4-1.5h-1.5-12.4-1.5v1.5 12.4 1.5m-17.1 0h1.5 12.4 1.5v-1.5-12.4-1.5h-1.5-12.4-1.5v1.5 12.4 1.5m-17 0h1.5 12.4 1.5v-1.5-12.4-1.5h-1.5-12.4-1.5v1.5 12.4 1.5m-17 0h1.5 12.4 1.5v-1.5-12.4-1.5h-1.5-12.4-1.5v1.5 12.4 1.5m102.1 15.1h1.5 29.5 1.5v-1.5-10.8-1.5h-1.5-29.5-1.5v1.5 10.8 1.5m-68 0h1.5 63.5 1.5v-1.5-10.8-1.5h-1.5-63.5-1.5v1.5 10.8 1.5m-34.1 0h1.5 29.5 1.5v-1.5-10.8-1.5h-1.5-29.5-1.5v1.5 10.8 1.5m138.4-51.6h-142.2v55.6h142.2v-55.6zm-17.8 18v-12.4h12.4v12.4h-12.4m-17 0v-12.4h12.4v12.4h-12.4m-17 0v-12.4h12.4v12.4h-12.4m-17 0v-12.4h12.4v12.4h-12.4m-17 0v-12.4h12.4v12.4h-12.4m-17.1 0v-12.4h12.4v12.4h-12.4m-17 0v-12.4h12.4v12.4h-12.4m-17 0v-12.4h12.4v12.4h-12.4m119.1 17v-12.4h12.4v12.4h-12.4m-17 0v-12.4h12.4v12.4h-12.4m-17 0v-12.4h12.4v12.4h-12.4m-17 0v-12.4h12.4v12.4h-12.4m-17 0v-12.4h12.4v12.4h-12.4m-17.1 0v-12.4h12.4v12.4h-12.4m-17 0v-12.4h12.4v12.4h-12.4m-17 0v-12.4h12.4v12.4h-12.4m102.1 15.1v-10.8h29.5v10.8h-29.5m-68 0v-10.8h63.5v10.8h-63.5m-34.1 0v-10.8h29.5v10.8h-29.5" fill="#6cc"/><path d="m78.8 103.8l47.5-47.5" fill="none" stroke="#336" stroke-width="1.5" stroke-miterlimit="10"/></svg>