<svg version="1.1" xmlns="http://www.w3.org/2000/svg" viewBox="0 0 260 160"><path d="M180 100.8h-20.8V60M159.3 55V.8h100v100H185" fill="none" stroke="#6cc" stroke-width="1.5" stroke-miterlimit="10"/><path d="M80 100.8V60h20.8M105.8 60H180v99.3H80V105" fill="none" stroke="#336" stroke-width="1.5" stroke-miterlimit="10"/><path d="M100.8 100.8H.8V.8h100V100.8z" fill="none" stroke="#ee524b" stroke-width="1.5" stroke-miterlimit="10"/><path d="M39.9 20.8l4.6 7.9M35.4 23.4l4.5 7.8M52.5 51V38.5L30.9 26v14.6M57.1 48.4V35.9L35.4 23.4v5.2M61.6 45.8V33.3L39.9 20.8V26M30.9 38.5l-1.8 1v25L50.8 77l21.7-12.5v-25L39.9 20.8v2.1M29.1 39.5l5.3 3.1v6.6l11.1 6.4V49l5.3 3.1 18.2-10.5M61.6 33.3L41.7 44.7 30.9 26" fill="none" stroke="#ff5149" stroke-width="2" clip-path="url(#)" stroke-miterlimit="10"/><path d="m124.2 110.3l4.3.5-9.1 9.3m-2.3-14.9c4.3-1 9.8 5.5-7.5 7.9-.1.1-.3.4-.4.5 2 1.2 5.5 3.2 5.5 3.2m24.6-7.6l-21.7-12.5m39.9 2.1v25m-3.6 2.1v-25m-3.7 27.1v-25m-3.6 2.1v25m-3.7-22.9v25m18.1-35.5l-21.7 12.5-18.1 18.3-21.7-12.5 18.1-18.3 21.7-12.5 21.7 12.5v25l-21.7 12.5-12.2-7.1m12.2-17.9v25" fill="none" stroke="#303068" stroke-width="2" stroke-miterlimit="10"/><path d="m201.4 33.6v4.6h22.1m-11.5 26.5l2.4 2.3 12.9-22.5m-37 12.5l2.7 3.1 12.8-7.4m3.5 23v-25m-21.7-12.5l21.7 12.5 18.2-10.5m-18.2-14.5l21.7 12.5v25l-21.7 12.5-21.7-12.5v-25l21.7-12.5z" fill="none" stroke="#0cc" stroke-width="2" stroke-miterlimit="10"/></svg>