<svg version="1.1" xmlns="http://www.w3.org/2000/svg" viewBox="0 0 260 160"><path d="m129.9 1.8c43.3 0 78.5 35.2 78.5 78.5s-35.2 78.5-78.5 78.5-78.5-35.2-78.5-78.5 35.2-78.5 78.5-78.5m0-1.5c-44.2 0-80 35.8-80 80s35.8 80 80 80 80-35.8 80-80-35.8-80-80-80z" fill="#6cc"/><path d="m129.9 11.3c38 0 69 31 69 69s-31 69-69 69-69-31-69-69 31-69 69-69m0-1c-38.7 0-70 31.3-70 70s31.3 70 70 70c38.7 0 70-31.3 70-70s-31.3-70-70-70z" fill="#6cc"/><path d="m166.5 82.5v11.1c0 20.1-16.4 36.4-36.5 36.4s-36.5-16.3-36.5-36.4v-11.1m16 10.4c0 11.6 9.2 20.7 20.7 20.7s20.7-9.1 20.7-20.7c-11.5 0-31.7 0-41.4 0zm11.8-61.2c-18.9 2.6-28.5 13.7-28.5 27 0 2.2 0 4.5 0 6.9.9 0 1 0 3 0 0-9.5 3.4-13.8 7-13.8 5.2 0 10.3 3.8 18.2 5.7m18.2 0c8.2-1.9 13.4-5.7 18.7-5.7 3.6 0 6.9 4.2 6.9 13.8.9 0 1.7 0 2.7 0 0-2.3 0-4.7 0-6.9 0-13.5-9.6-24.6-29-27.1" fill="none" stroke="#336" stroke-width="1.5" stroke-miterlimit="10"/><path d="m91.6 81.4v-14.7c0-.6.6-1.2 1.2-1.2h4.5v17h-4.5c-.6 0-1.2-.5-1.2-1.1zm76.8 0v-14.7c0-.6-.6-1.2-1.2-1.2h-4.5v17h4.5c.6 0 1.2-.5 1.2-1.1zm-31.1-51.3h-14.7c-.6 0-1.2.5-1.2 1.1v26.3h17v-26.3c-.1-.6-.5-1.1-1.1-1.1zm25.4 29.4c0-1.1-.9-2.1-2.1-2.1h-61.3c-1.1 0-2.1.9-2.1 2.1v28c0 1.1.9 2.1 2.1 2.1h61.3c1.1 0 2.1-.9 2.1-2.1v-28zm-62 27.3l9.6-15.5c.7-1.1.6-2.6-.3-3.6l-6.4-7.3m51.5 0l-6.4 7.3c-.9 1-1 2.5-.3 3.6l9.6 15.5m-28.1-18.5c-5.5 0-9.4 5.4-9.4 5.4s4.2 5.4 9.4 5.4 9.4-5.4 9.4-5.4-3.9-5.4-9.4-5.4zm0 2.6c-1.5 0-2.7 1.2-2.7 2.7s1.2 2.7 2.7 2.7 2.7-1.2 2.7-2.7-1.2-2.7-2.7-2.7z" fill="none" stroke="#ee524b" stroke-width="1.5" stroke-miterlimit="10"/></svg>