<svg version="1.1" xmlns="http://www.w3.org/2000/svg" viewBox="0 0 242 222"><path d="m221.4 106.7l3.8 1.6c-.6 2.1-1 4-1.3 5.8-.3 1.8-.4 3.4-.4 4.9 0 1.5.1 2.8.3 3.9s.4 2.3.8 3.4c2.2-.9 4.2-2.2 6.2-3.9-1-1.2-1.6-2.6-1.8-4.3-.2-1.6.1-3.3.8-5 .7-1.7 1.8-3 3.2-3.7 1.4-.7 2.9-.7 4.6-.1 1.6.7 2.7 1.7 3.1 3 .5 1.3.3 2.8-.4 4.6-.6 1.4-1.4 2.6-2.4 3.6-.1 0-.2 0-.3-.1-.1 0-.3-.1-.6-.2-.3-.1-.6-.3-.8-.4-.2-.2-.5-.4-.7-.7-.2-.3-.4-.6-.4-1 .7-.8 1.2-1.6 1.5-2.3.3-.8.4-1.4.4-2-.1-.5-.4-.9-.8-1.1-.5-.2-1-.1-1.4.2-.5.3-.9.9-1.2 1.7-.7 1.7-.8 3.2-.2 4.6.5 1.4 1.6 2.4 3 3 .6.2 1.1.4 1.7.5l-1.1 2.7c-1-.2-1.9-.4-2.8-.8-1.1 1-2.4 1.9-3.8 2.7-1.4.8-2.6 1.5-3.7 1.9-1 .4-1.8.7-2.3.7-.9.1-1.6-.2-2.2-1-.2-.3-.4-.6-.6-.9-.2-.4-.4-.9-.7-1.6-.3-.7-.5-1.5-.7-2.3-.2-.8-.3-1.9-.4-3.1-.1-1.2-.1-2.5-.1-3.9.1-1.4.2-3 .5-4.8.2-1.7.6-3.6 1.2-5.6z" fill="none" stroke="#007c94"/><path d="m210 60.9l-2.1-1.1c.1-.7.1-1.3 0-1.9-.1-.6-.4-1.2-.8-1.7-.4-.5-.9-1-1.6-1.5l1.1-2.1 3.8 1.9 1.8-3.5 2.3 1.2-1.8 3.5 3.8 2c.9.5 1.5.7 1.7.7.3 0 .6 0 .8-.2.4-.2.7-.6.9-1 .4-.8.5-1.6.4-2.6l2.4 1.2c0 .8-.1 1.5-.3 2.1-.1.6-.4 1.2-.7 1.8-.3.7-.7 1.2-1.2 1.7-.4.4-.9.7-1.4 1-.5.2-1 .3-1.4.2-.4 0-1-.2-1.7-.6l-5.3-2.7-.7 1.6z" fill="none" stroke="#505b6f"/><path d="m31.1 203.5c.2-.5.5-1.1.8-1.9.4-.8.6-1.4.9-1.9.2-.5.5-1 .9-1.7.4-.7.7-1.3 1.1-1.7.4-.6.9-.9 1.6-1.2.6-.2 1.3-.2 1.9 0 2 .6 4.9 1.8 8.7 3.5 3.8 1.7 6.6 3 8.4 4.1.6.3 1 .8 1.3 1.4.3.6.3 1.3.2 2-.1.6-.3 1.3-.6 2-.2.7-.5 1.3-.7 1.8-.2.5-.5 1.1-.8 1.9-.4.8-.6 1.4-.9 1.9-.2.5-.5 1-.9 1.7-.4.7-.7 1.3-1.1 1.7-.4.6-.9 1-1.6 1.2-.6.2-1.3.2-1.9 0-2-.6-4.9-1.8-8.7-3.5-3.8-1.7-6.6-3-8.4-4.1-.6-.3-1-.8-1.3-1.4-.3-.6-.3-1.3-.2-2 .1-.6.3-1.3.6-2 .2-.7.5-1.3.7-1.8zm7.1 5.8c-.1.3-.1.6.1.9.1.1.2.2.3.3.2.1.3.1.5.1l8.3-1.2c.3 0 .5-.2.7-.5.1-.3.1-.6-.1-.9l-4.7-6.9c-.2-.3-.5-.4-.8-.4-.3 0-.6.2-.7.5l-3.6 8.1z" fill="none" stroke="#c33b23"/><path d="m2.2 71.5l11.3-5.4c.5-.3 1.1-.3 1.6-.1.6.2 1 .6 1.2 1.1l5.4 11.3c.3.5.3 1.1.1 1.6-.2.6-.6 1-1.1 1.2l-11.2 5.4c-.5.3-1.1.3-1.6.1-.6-.2-1-.6-1.2-1.1l-5.5-11.2c-.3-.5-.3-1.1-.1-1.6.2-.6.6-1.1 1.1-1.3zm1.2 1.5c-.2.1-.3.2-.3.4-.1.2 0 .3 0 .5l5.1 10.5c.1.2.2.3.4.3.2.1.3.1.5 0l6.4-3.1-.6-1.3c-.4.3-.8.6-1.2.8-.8.4-1.7.6-2.6.5-.9-.1-1.7-.4-2.5-.9-.8-.5-1.3-1.2-1.7-2.1-.6-1.3-.7-2.6-.3-4 .4-1.3 1.3-2.3 2.6-2.9.4-.2.9-.4 1.4-.4l-.7-1.4-6.5 3.1zm9.2.2c-.9-.3-1.7-.3-2.5.1-.8.4-1.4 1-1.7 1.9-.3.9-.2 1.7.2 2.6.4.8 1 1.4 1.9 1.7.9.3 1.7.3 2.5-.1.8-.4 1.4-1 1.7-1.9.3-.9.2-1.7-.2-2.6-.4-.8-1.1-1.4-1.9-1.7zm3.8 4.2c-.2.1-.3.2-.4.4-.1.2-.1.4 0 .6l.8 1.7c.1.2.2.3.4.4.2.1.4.1.6 0l1.6-.8c.2-.1.3-.2.4-.4.1-.2.1-.4 0-.6l-.8-1.7c-.1-.2-.2-.3-.4-.4-.2-.1-.4-.1-.6 0l-1.6.8z" fill="none" stroke="#507699"/><path d="m195.6 194.7c.5.2 1 .6 1.3 1.1.3.5.6 1 .7 1.7.2 1.1 0 2.6-.6 4.5.4-.1.7-.2.9-.2.3 0 .5 0 .8.1.2.1.5.3.8.6.1-.3.2-.6.2-.7.4-1 1.1-1.7 2-2.2.9-.4 1.9-.4 2.9-.1.6.2 1 .6 1.5 1 .4.4.7 1 .9 1.5.2.7.3 1.4.3 2.2-.1.8-.2 1.6-.5 2.3l-1.7 4.3-.3-1.8.5-1.3c-.6.3-1.2.5-1.8.6-.6.1-1.2 0-1.8-.3-.5-.2-.9-.4-1.2-.8-.3-.3-.6-.6-.7-1-.1-.3-.3-.7-.4-1-.1-.3-.2-.6-.4-.9-.2-.3-.3-.4-.6-.5-.2-.1-.5-.1-.8 0-.3.1-.7.3-1 .5-.3.2-.7.4-1.1.6-.4.2-.8.3-1.4.4-.5 0-1 0-1.6-.2-.6-.2-1.1-.6-1.6-1.2-.6-.8-1-1.8-1-2.9 0-1.1.2-2.2.6-3.3.4-.9.8-1.7 1.4-2.3.6-.7 1.3-1.1 2.1-1.2.6.2 1.1.3 1.6.5zm-.3 2c-.5-.2-.9-.2-1.4-.1-.5.1-.9.3-1.2.6-.4.3-.7.6-.9 1-.3.4-.5.8-.7 1.2-.2.4-.3.8-.3 1.2-.1.4-.1.8 0 1.2.1.4.2.7.5 1 .2.3.6.6 1 .7.2.1.3.1.5.1.2 0 .3 0 .5 0 .1 0 .3 0 .5-.1.2-.1.4-.1.5-.2.1 0 .3-.1.5-.3.2-.1.4-.2.4-.3.1 0 .2-.1.5-.3.3-.2.4-.3.4-.3.1-.1.1-.3.2-.5.1-.4.3-.7.3-1.1.1-.4.1-.8.2-1.2 0-.4 0-.8-.1-1.2-.1-.4-.2-.7-.5-1-.2 0-.5-.2-.9-.4zm9.7 5.1c-.3-.1-.7-.2-1-.3-.4-.1-.8-.1-1.2-.1-.4 0-.8.1-1.1.2-.4.1-.7.3-1 .5-.3.2-.5.5-.7.9-.1.3-.1.5-.1.9 0 .3.1.6.2.8.2.5.7.9 1.4 1.2.4.2.8.3 1.3.3s1 .1 1.5 0c.5 0 1-.2 1.4-.4.4-.3.7-.6.9-1 .1-.3.2-.6.1-.9 0-.3-.1-.6-.3-.9-.2-.6-.7-.9-1.4-1.2zm-8 5.8l1.1.4-.8 2.2 2.2.9-.4 1.1-2.2-.9-.9 2.2-1.1-.4.9-2.2-2.2-.9.4-1.1 2.2.9.8-2.2z" fill="none" stroke="#d6693f"/><path d="m35.9 28.8l-5.5-2.5 2.1-4.8-4.1-1.8c-2.3-1-3.8-2.5-4.5-4.4-.7-1.9-.6-3.9.4-6 .8-1.8 1.5-3.2 2.1-4.1l4.9 2.2-1.3 2.9c-.5 1.1-.6 1.9-.3 2.5.3.6.9 1.1 1.8 1.5l3.5 1.6 2.5-5.5 5.2 3.2-2.1 4.7 14.1 6.4-2.6 5.7-14.1-6.4-2.1 4.8z" fill="none" stroke="#51648b"/><path d="m179 23.7c.4.2.8.3 1.3.4 2.5.7 4.9.6 7.3-.4-1.2-.4-2.1-1-2.8-2-.7-1-1.1-2-1.1-3.2.3.2.7.3 1 .4.5.1 1 .2 1.5.2-1.2-.6-2-1.5-2.6-2.7-.5-1.2-.6-2.5-.2-3.8v-.1c.6.6 1.4 1.1 2.2 1.4-.6-.7-1-1.5-1.2-2.4-.2-.9-.2-1.8.1-2.7.3-1 .8-1.8 1.5-2.5.9 2 2.1 3.8 3.8 5.4s3.5 2.7 5.7 3.4c0-.4.1-.9.2-1.3.4-1.5 1.3-2.6 2.7-3.3 1.3-.7 2.8-.9 4.2-.5 1.6.4 2.7 1.4 3.4 2.8 1.3.1 2.5 0 3.8-.3-.8 1.2-1.8 1.9-3.2 2.3 1.1.2 2.2.2 3.3.1-1.1.9-2.2 1.5-3.5 2 0 .2-.1.4-.2.7-.4 1.4-1 2.8-1.9 4.1-.8 1.3-1.9 2.5-3.1 3.6-1.2 1.1-2.6 1.9-4.1 2.6-1.5.7-3.1 1.1-5 1.2-1.8.1-3.7-.1-5.6-.6-2.9-.9-5.4-2.5-7.5-4.8z" fill="none" stroke="#5c96ca"/><path d="m157.8 116.3v11.2c0 20.2-16.5 36.7-36.7 36.7s-36.7-16.4-36.7-36.7v-11.2m16 10.5c0 11.7 9.3 20.8 20.8 20.8s20.8-9.1 20.8-20.8c-11.4 0-31.8 0-41.6 0zm11.9-61.7c-19.1 2.6-28.7 13.8-28.7 27.2 0 2.2 0 4.6 0 6.9.9 0 1 0 3 0 0-9.6 3.4-13.9 7.1-13.9 5.2 0 10.4 3.8 18.4 5.8m18.3 0c8.2-1.9 13.5-5.8 18.8-5.8 3.7 0 6.9 4.3 6.9 13.9.9 0 1.7 0 2.7 0 0-2.3 0-4.7 0-6.9 0-13.6-9.7-24.8-29.2-27.3" fill="none" stroke="#336" stroke-miterlimit="10"/><path d="m82.4 115.2v-14.8c0-.6.6-1.2 1.2-1.2h4.5v17.1h-4.5c-.6 0-1.2-.5-1.2-1.1zm77.4 0v-14.8c0-.6-.6-1.2-1.2-1.2h-4.5v17.1h4.5c.6 0 1.2-.5 1.2-1.1zm-31.4-51.7h-14.8c-.6 0-1.2.5-1.2 1.1v26.5h17.1v-26.5c0-.6-.5-1.1-1.1-1.1zm25.7 29.7c0-1.2-.9-2.1-2.1-2.1h-61.8c-1.2 0-2.1.9-2.1 2.1v28.2c0 1.2.9 2.1 2.1 2.1h61.8c1.2 0 2.1-.9 2.1-2.1v-28.2zm-62.5 27.5l9.7-15.7c.7-1.1.6-2.6-.3-3.6l-6.4-7.4m51.7.1l-6.4 7.4c-.9 1-1 2.5-.3 3.6l9.7 15.7m-28.3-18.8c-5.6 0-9.5 5.4-9.5 5.4s4.3 5.4 9.5 5.4 9.5-5.4 9.5-5.4-3.9-5.4-9.5-5.4zm0 2.7c-1.5 0-2.7 1.2-2.7 2.7s1.2 2.7 2.7 2.7 2.7-1.2 2.7-2.7-1.2-2.7-2.7-2.7z" fill="none" stroke="#ee524b" stroke-miterlimit="10"/><path d="m211 111c0 49.7-40.3 90-90 90s-90-40.3-90-90 40.3-90 90-90 90 40.3 90 90zm-9.6 0c0 44.4-36 80.4-80.4 80.4s-80.4-36-80.4-80.4 36-80.4 80.4-80.4 80.4 36 80.4 80.4z" fill="none" stroke="#85d6d6" stroke-miterlimit="10"/><path d="m60.5 193.6l5.7-5.6m2.2.9l-.1 8m-3-11.2l-8-.1m146.9-116l3.5-2m-3.4-2.6l-1.1 3.9m5 3l-3.9-1.1m-139.5-40.5l3.1 4.6m-6.3.4l5.5 1m2.5-1.7l1-5.5" fill="none" stroke="#85d6d6" stroke-miterlimit="10"/></svg>