<svg version="1.1" xmlns="http://www.w3.org/2000/svg" viewBox="0 0 260 160"><path d="M75.6 80H3V7.4h72.6V80zM257 80H75.6v72.6H257V80z" fill="none" stroke="#336" stroke-width="3.54" stroke-miterlimit="10"/><path d="m43.8 30.2c2.7.1 5.3.4 7.7.8v12c-2.4-.4-5-.6-7.7-.8v-12z" fill="none" stroke="#85d6d6" stroke-width="1.77" stroke-miterlimit="10"/><path d="M21.1 62c4.8 1.3 11.2 2.1 18.1 2.1 1.5 0 3.1 0 4.5-.1v6.8c-1.5.1-3 .1-4.5.1-7 0-13.3-.8-18.1-2.1V62z" fill="none" stroke="#f38681" stroke-width="1.77" stroke-miterlimit="10"/><path d="m34.8 16.6c1.5-.1 3-.1 4.5-.1 3.2 0 6.2.2 9.1.5v6.8c-2.8-.3-5.9-.5-9.1-.5-1.5 0-3.1 0-4.5.1v-6.8z" fill="none" stroke="#f38681" stroke-width="1.77" stroke-miterlimit="10"/><path d="M55.2 36.9c6.9 1.5 11.3 4 11.3 6.8v18.8c0-2.8-4.5-5.3-11.3-6.8V36.9z" fill="none" stroke="#94dbdb" stroke-width="1.77" stroke-miterlimit="10"/><path d="m55.2 50.5c6.9-1.5 11.3-4 11.3-6.8v18.8c0 3.7-7.6 6.8-18.1 7.9v-18.8c2.4-.2 4.7-.6 6.8-1.1z" fill="none" stroke="#6cc" stroke-width="1.77" stroke-miterlimit="10"/><path d="m30.2 17v18.8c-10.6 1.2-18.1 4.3-18.1 7.9v-18.8c0-3.7 7.5-6.8 18.1-7.9z" fill="none" stroke="#f1756f" stroke-width="1.77" stroke-miterlimit="10"/><path d="M12.1 24.9c0 3.7 7.6 6.8 18.1 7.9 2.8.3 5.9.5 9.1.5v18.8c-15 0-27.2-3.8-27.2-8.4V24.9z" fill="none" stroke="#ee524b" stroke-width="1.77" stroke-miterlimit="10"/><path d="m116.2 121.9c0 2-.7 3.6-2.2 4.8-1.5 1.2-3.3 1.8-5.6 1.8-1.5 0-3.1-.3-4.7-.8-1.6-.5-3.1-1.3-4.4-2.4l2.5-3.5c2.1 1.6 4.4 2.4 6.7 2.4.7 0 1.3-.1 1.7-.4.4-.3.6-.7.6-1.1 0-.5-.3-.9-.9-1.3-.6-.4-1.4-.8-2.6-1.1-1.1-.4-2-.7-2.6-.9-.6-.3-1.3-.6-2-1.1-1.5-1-2.3-2.4-2.3-4.2s.8-3.4 2.3-4.6 3.4-1.8 5.8-1.8c2.4 0 4.8.8 7.1 2.4l-2.1 3.8c-1.8-1.2-3.5-1.8-5.2-1.8-1.7 0-2.6.5-2.6 1.4 0 .5.3.9.8 1.2.6.3 1.5.7 2.7 1.1 1.3.4 2.2.7 2.7.9.5.2 1.2.5 1.9 1 1.7.8 2.4 2.2 2.4 4.2m11-14.8c-.6.5-.8 1.1-.8 1.8s.3 1.4 1 1.8c.7.5 2.3 1 4.8 1.6 2.5.6 4.4 1.5 5.8 2.8 1.4 1.2 2.1 3 2.1 5.4 0 2.4-.9 4.3-2.7 5.7-1.8 1.5-4.1 2.2-7 2.2-4.2 0-7.9-1.5-11.2-4.6l3.5-4.3c2.8 2.5 5.5 3.7 7.9 3.7 1.1 0 1.9-.2 2.5-.7.6-.5.9-1.1.9-1.9 0-.8-.3-1.4-1-1.9-.7-.5-1.9-.9-3.9-1.4-3.1-.7-5.3-1.7-6.7-2.8s-2.1-3-2.1-5.5c0-2.5.9-4.4 2.7-5.8 1.8-1.4 4-2 6.7-2 1.8 0 3.5.3 5.3.9 1.8.6 3.3 1.5 4.6 2.6l-3 4.3c-2.3-1.7-4.6-2.6-7.1-2.6-1 0-1.7.3-2.3.7m29 .5c2.4 0 4.5 1 6.3 3 1.8 2 2.8 4.4 2.8 7.4 0 3-.9 5.5-2.8 7.5-1.8 2-4 3-6.5 3-2.5 0-4.5-1-6-3v10h-5.6v-27.5h5.6v2.3c1.8-1.8 3.9-2.7 6.2-2.7m-6.2 10.5c0 1.6.5 3 1.4 4 .9 1 2 1.6 3.3 1.6 1.3 0 2.4-.5 3.4-1.6 1-1 1.5-2.4 1.5-4s-.5-3-1.4-4.1c-1-1.1-2.1-1.7-3.4-1.7-1.3 0-2.5.5-3.4 1.6-.9 1.2-1.4 2.5-1.4 4.2m36.7 10.1h-5.3v-2.4c-1.5 1.8-3.3 2.7-5.4 2.7-2.1 0-3.9-.6-5.4-1.9s-2.2-2.9-2.2-5 .8-3.6 2.3-4.6c1.5-1 3.6-1.5 6.2-1.5h4.2v-.1c0-2.2-1.1-3.2-3.4-3.2-1 0-2 .2-3.1.6-1.1.4-2 .9-2.8 1.4l-2.5-3.6c2.7-1.9 5.7-2.9 9.1-2.9 2.5 0 4.5.6 6 1.8 1.6 1.2 2.3 3.2 2.3 5.8v12.9m-5.7-7.7v-1h-3.5c-2.3 0-3.4.7-3.4 2.1 0 .7.3 1.3.8 1.7.5.4 1.3.6 2.3.6 1 0 1.9-.3 2.7-.9.7-.7 1.1-1.5 1.1-2.5m20.6 3c1.9 0 3.6-.9 5.1-2.8l3.3 3.8c-2.6 2.7-5.4 4.1-8.5 4.1-3 0-5.6-1-7.7-2.9-2.1-1.9-3.1-4.4-3.1-7.5s1.1-5.6 3.2-7.6c2.1-1.9 4.6-2.9 7.5-2.9 1.5 0 2.9.3 4.4.9 1.5.6 2.8 1.5 3.9 2.7l-2.9 3.8c-.7-.8-1.4-1.4-2.4-1.8-.9-.4-1.9-.6-2.8-.6-1.5 0-2.8.5-3.8 1.4-1.1 1-1.6 2.3-1.6 4s.5 3.1 1.6 4c1.1.9 2.3 1.4 3.8 1.4m29.7 1.8c-2.3 2.2-5 3.2-8 3.2-3.1 0-5.6-.9-7.6-2.8-2-1.9-3-4.4-3-7.6 0-3.2 1-5.7 3.1-7.6 2-1.9 4.5-2.8 7.2-2.8s5.1.8 7.1 2.5c1.9 1.7 2.9 4 2.9 6.9v3h-14.7c.2 1.1.8 2 1.7 2.7 1 .7 2.1 1.1 3.3 1.1 2 0 3.6-.7 4.9-2l3.1 3.4m-5.4-12c-.8-.7-1.7-1-2.8-1-1.1 0-2.1.3-3.1 1-.9.7-1.5 1.6-1.6 2.7h8.9c-.2-1.2-.7-2.1-1.4-2.7" fill="#336"/></svg>