<svg version="1.1" xmlns="http://www.w3.org/2000/svg" viewBox="0 0 400 160"><path d="m80.8 95.9l14.8-36.9h14l-23.3 58h-11l-23.3-58h14l14.8 36.9m82.7-17.7c0 9.3-3.7 15.3-11 18l14.7 20.7h-15.9l-12.9-18.5h-9v18.5h-12.9v-57.9h22c9 0 15.4 1.5 19.3 4.6 3.8 3 5.7 7.9 5.7 14.6m-15.6 6.9c1.6-1.4 2.4-3.7 2.4-6.8 0-3.1-.8-5.3-2.5-6.4s-4.6-1.7-8.7-1.7h-9.7v17.2h9.5c4.4-.2 7.4-.9 9-2.3m70.1 31.8l-5.4-12.5h-24.3l-5.4 12.5h-13.8l25-58h12.5l25 58h-13.6m-17.5-40.7l-7.3 16.8h14.5l-7.2-16.8m38-17.2h12.9v58h-12.9v-58m27.2 0h12.9v58h-12.9v-58m68.5 57.9l-5.4-12.5h-24.3l-5.4 12.5h-13.8l25-58h12.5l25 58h-13.6m-17.5-40.7l-7.3 16.8h14.5l-7.2-16.8" fill="#336"/><circle cx="244.9" cy="41" r="18.7" fill="none" stroke="#ee524b" stroke-width="4" stroke-miterlimit="10"/><circle cx="271.9" cy="41" r="18.7" fill="none" stroke="#6cc" stroke-width="4" stroke-miterlimit="10"/></svg>