<svg version="1.1" xmlns="http://www.w3.org/2000/svg" viewBox="0 0 242 222"><path d="m74.9 29.4l1 2.6-6.6 2.6-1-2.6c-.2-.4-.1-.8 0-1.2.2-.4.5-.7.9-.8l3.7-1.5c.4-.1.8-.1 1.2 0 .4.3.7.6.8.9zm1.5 3.7l5.2 13.3-2 4.6-4.6-2-5.2-13.3 6.6-2.6zm-4.6 3.1c0 .1 0 .1 0 .2l3.4 8.6c0 .1.1.1.2.2.1.1.3 0 .4-.1 0-.1 0-.1 0-.2l-3.4-8.6c0-.1-.1-.1-.2-.2-.2-.1-.4-.1-.4.1zm7.5 8.7l-3.7 1.5.6 1.4 1.2.5.6-1.4 1.4.6.5-1.2-.6-1.4zm-4.1 35.6c1.3.9 1.7 2.7.8 4l-17.2 26.5c-.9 1.3-2.7 1.7-4 .8l-24.1-15.6c-1.3-.9-1.7-2.7-.8-4l1.6-2.4-1.8-1.2c-1.7-1.1-2.1-3.3-1.1-5l.8-1.2c1.1-1.7 3.3-2.1 5-1.1l1.8 1.2 4.7-7.2-1.9-1.1c-1.7-1.1-2.1-3.3-1.1-5l.8-1.2c1.1-1.7 3.3-2.1 5-1.1l1.8 1.2 1.6-2.4c.9-1.3 2.7-1.7 4-.8l24.1 15.6zm-42.5 3.3c-.3-.2-.8-.1-1 .2l-.7 1.2c-.2.3-.1.8.2 1l5.4 3.5c.3.2.8.1 1-.2l.8-1.2c.2-.3.1-.8-.2-1l-5.5-3.5zm13.3 11.2l-5.4-3.5-3.5 5.4 5.4 3.5 3.5-5.4zm-3.9-25.7c-.3-.2-.8-.1-1 .2l-.8 1.2c-.2.3-.1.8.2 1l5.4 3.5c.3.2.8.1 1-.2l.8-1.2c.2-.3.1-.8-.2-1l-5.4-3.5zm8.6 18.5l-5.4-3.5-3.9 6 5.4 3.5 3.9-6zm2.6 11.9l-6-3.9-3.5 5.4 6 3.9 3.5-5.4zm2.1-19.1l-5.4-3.6-3.9 6 5.4 3.5 3.9-5.9zm2.6 11.9l-6-3.9-3.9 6 6 3.9 3.9-6zm1.8-18.6l-5.4-3.5-3.5 5.4 5.4 3.5 3.5-5.4zm.1 30.1l-5.4-3.5-3.5 5.4 5.4 3.5 3.5-5.4zm2.8-18.7l-6-3.9-3.9 6 6 3.9 3.9-6zm1.9 11.5l-5.4-3.5-3.9 6 5.4 3.5 3.9-6zm2.4-18.2l-6-3.9-3.5 5.4 6 3.9 3.5-5.4zm2.3 11l-5.4-3.6-3.9 6 5.4 3.5 3.9-5.9zm4.3-6.7l-5.4-3.5-3.5 5.4 5.4 3.5 3.5-5.4zm-25.1 51.5c2.1-1.1 4.7-.2 5.8 1.9l10.7 20.8c1.1 2.1.2 4.7-1.9 5.8l-16.4 8.4c-2.1 1.1-4.7.2-5.8-1.9l-2.8-5.5c-1.1-2.1-.2-4.7 1.9-5.8l.5-.3-5.9-11.5c-1.1-2.1-.2-4.7 1.9-5.8l12-6.1zm148-10.8c-1.6 1-3.8.5-4.8-1.1l-16.7-27.2c-1-1.6-.5-3.8 1.1-4.8l14.7-9c-.3.9-.4 1.9-.5 2.9-.2 4.4-.4 8.7-.7 13.1-.2 2.3-.4 5 .8 7.1 1.2 2 3.8 3.1 5.9 3.9 4 1.7 8.1 3.5 12 5.3.9.4 1.8.7 2.7.9l-14.5 8.9zm13.1-12.4c-3.8-1.7-7.6-3.3-11.3-4.9-1.6-.7-4.5-1.7-5.4-3.2-.9-1.5-.5-4.6-.4-6.3.3-4.1.5-8.2.7-12.3.1-1.9 1-5 2.7-6 1.8-1.1 4-1.1 5.2.9l16.7 27.2c1 1.6.5 3.8-1.1 4.8-2.2 1.1-5 .7-7.1-.2zm-94.6 67c-.3-1.2.5-2.4 1.7-2.6l7.1-1.6c1.2-.3 2.4.5 2.6 1.7l1.6 7.1c.3 1.2-.5 2.4-1.7 2.6l-2.1.5 1 4.3 11.4-2.5-1-4.3-2.1.5c-1.2.3-2.4-.5-2.6-1.7l-1.6-7.1c-.3-1.2.5-2.4 1.7-2.6l7.1-1.6c1.2-.3 2.4.5 2.6 1.7l1.6 7.1c.3 1.2-.5 2.4-1.7 2.6l-2.1.5 1 4.3 11.4-2.5-1-4.3-2.1.5c-1.2.3-2.4-.5-2.6-1.7l-1.6-7.1c-.3-1.2.5-2.4 1.7-2.6l7.1-1.6c1.2-.3 2.4.5 2.6 1.7l1.6 7.1c.3 1.2-.5 2.4-1.7 2.6l-2.1.5 1 4.3c.3 1.6-.7 3.1-2.2 3.5l-11.4 2.5 1 4.3 2.1-.5c1.2-.3 2.4.5 2.6 1.7l1.6 7.1c.3 1.2-.5 2.4-1.7 2.6l-7.1 1.6c-1.2.3-2.4-.5-2.6-1.7l-1.6-7.1c-.3-1.2.5-2.4 1.7-2.6l2.1-.5-1-4.3-11.4 2.5c-1.6.3-3.1-.7-3.5-2.2l-1-4.3-2.1.5c-1.2.3-2.4-.5-2.6-1.7l-1.7-7.2zm-31.4 7c1.6-.4 3.7-1 4.7-2.3-.2-.5-.2-1.1.1-1.5.2-.3.5-.5.9-.6-.1-.4 0-.7.2-1.1.3-.4.8-.7 1.3-.7 0-.3.1-.5.2-.7.6-.9 1.5-.8 2.3-.3.8-.5 1.9-.5 2.8 0 .8.5 1.3 1.5 1.1 2.5.8.5 1.2 1.4.6 2.2-.1.2-.4.4-.6.5.2.5.2 1-.1 1.5-.2.3-.5.5-.9.6.1.4 0 .7-.2 1.1-.3.4-.8.7-1.3.7-.8 1.5-.6 3.7-.3 5.3.2 1.6-.1 3.1-1 4.4-2.4 3.6-7.3 3.6-10.6 1.4s-5.2-6.8-2.8-10.3c.9-1.4 2.1-2.3 3.6-2.7zm.3 11.3c2.4 1.6 6.1 1.8 7.8-.9.6-.8.8-1.9.7-3-.1-.5-.2-.9-.2-1.4-.2-1.7-.1-3.6.7-5.1l-3-2c-1.1 1.4-2.8 2.2-4.4 2.7-.5.1-.9.2-1.4.3-1 .3-1.9.9-2.5 1.8-1.7 2.7-.1 6 2.3 7.6zm.5-6.3c.2.1.3.5.1.7-.6.9.6 2.2 1.3 2.6.2.1.3.5.1.7s-.5.3-.7.1c-1.2-.8-2.5-2.6-1.6-4 .3-.2.6-.2.8-.1zm94.2-29.2l1.2-6.3 6.1-1.9.9.8-1.9.5-.2 5-4.9.7-.3 1.9-.9-.7zm.7 5.8l1-6.5 5-.7-1.2 6.4-4.8.8zm4.5 4.1l.3-4.8 6.2-1.8-.2 5-6.3 1.6zm1.5-11.3l.2-5 6.3-1.7-.3 4.8-6.2 1.9zm5.1 4.6l1.2-6.4 4.8-.8-1 6.5-5 .7zm-86.1-116.3c-4.7 1.4-9.7-1.3-11.1-6.1-1.4-4.7 1.3-9.7 6.1-11.1 4.7-1.4 9.7 1.3 11.1 6.1 1.4 4.7-1.3 9.7-6.1 11.1zm-4.3-14.7c-3.4 1-5.3 4.5-4.3 7.9 1 3.4 4.5 5.3 7.9 4.3 3.4-1 5.3-4.5 4.3-7.9-1-3.4-4.5-5.3-7.9-4.3zm3.6 6.7c.1.2-.1.4-.3.5l-3.6 1c-.2.1-.4-.1-.5-.3l-.2-.7c-.1-.2.1-.4.3-.5l2.5-.7-1.2-3.9c-.1-.2.1-.4.3-.5l.7-.2c.2-.1.4.1.5.3l1.5 5zm71.5-6l-7.8 26.5c-.3 1.2-1.6 1.8-2.7 1.5l-20.9-6.1c-1.2-.3-1.8-1.6-1.5-2.7l1.8-6.3-11.9-3.5c-1.2-.3-1.8-1.6-1.5-2.7l4.3-14.7c.3-1.2 1.5-2.6 2.5-3.1l11.5-6.3c1-.6 2.9-.8 4-.4l9.1 2.7c1.2.3 1.8 1.6 1.5 2.7l-2.1 7.2c1-.3 2.2-.3 3-.1l9.1 2.7c1.2.2 1.9 1.4 1.6 2.6zm-17.2-3.6l2.7-9.1-8.4-2.5-2.7 9.1c-.3 1.2-1.6 1.8-2.7 1.5l-9.1-2.7-4.1 14 11.2 3.3 1.6-5.6c.3-1.2 1.5-2.6 2.5-3.1l9-4.9zm-17.5-5.8l6.5 1.9 1.9-6.5-8.4 4.6zm31.7 9.2l-8.4-2.5-2.7 9.1c-.3 1.2-1.6 1.8-2.7 1.5l-9.1-2.7-4.1 14 19.5 5.7 7.5-25.1zm-20.2 3.2l6.5 1.9 1.9-6.5-8.4 4.6z" fill="none" stroke="#b2e5e5"/><path d="M121 1C60.2 1 11 50.2 11 111s49.2 110 110 110 110-49.2 110-110S181.8 1 121 1z" fill="none" stroke="#85d6d6" stroke-miterlimit="10"/><path d="m137.4 146.7c-4.8 3-10.4 4.7-16.5 4.7-6 0-11.5-1.6-16.3-4.6m36.2-23.9c-1.1 9.8-9.7 17.3-19.8 17.3-10.2 0-18.8-7.4-19.8-17.3m62.1-24.4c-3.6-18.2-13.9-34.3-34-34.7m22.3 59.4c-2.3 16.2-11.6 20.2-16.7 20 4.2 9.2 14 11.7 21.2 3.7 5.1-5.6 8.3-18.3 8.6-31.4m-87.4 0c.3 12.9 3.6 25.6 8.6 31.1 7.2 8 17 5.4 21.2-3.7-5 .2-14.4-3.9-16.7-20m22.1-59.4c-19.8.5-30.2 16.9-33.9 35" fill="none" stroke="#336" stroke-miterlimit="10"/><path d="m76 114.6v-14.8c0-.6.5-1.3 1.1-1.3h10.9v17h-10.9c-.6 0-1.1-.3-1.1-.9zm90 0v-14.8c0-.6-.3-1.3-.9-1.3h-11.1v17h11.1c.6 0 .9-.3.9-.9zm-37.6-52.1h-14.8c-.6 0-1.6.9-1.6 1.5v26.5h17v-26.5c0-.6 0-1.5-.6-1.5zm25.6 30.1c0-1.2-.9-2.1-2.1-2.1h-61.8c-1.2 0-2.1.9-2.1 2.1v27.8c0 1.2.9 2.1 2.1 2.1h61.8c1.2 0 2.1-.9 2.1-2.1v-27.8zm-62.4 27.5l9.7-15.7c.7-1.1.6-2.6-.3-3.6l-6.4-7.4m51.7.1l-6.4 7.4c-.9 1-1 2.5-.3 3.6l9.7 15.7m-28.3-18.8c-5.6 0-9.5 5.4-9.5 5.4s4.3 5.4 9.5 5.4c5.2 0 9.5-5.4 9.5-5.4s-4-5.4-9.5-5.4zm0 2.7c-1.5 0-2.7 1.2-2.7 2.7s1.2 2.7 2.7 2.7c1.5 0 2.7-1.2 2.7-2.7s-1.2-2.7-2.7-2.7z" fill="none" stroke="#ee524b" stroke-miterlimit="10"/></svg>