<svg version="1.1" xmlns="http://www.w3.org/2000/svg" width="210" height="120" viewBox="0 0 210 120"><path d="M60 60H0V0h60V60" fill="#336"/><path d="M210 120H60V60h150V120" fill="#fff"/><path d="m15 45.1c4 1.1 9.2 1.8 15 1.8 1.3 0 2.5 0 3.8-.1v5.6c-1.2.1-2.5.1-3.8.1-5.8 0-11-.7-15-1.8v-5.6z" fill="none" stroke="#f38681" stroke-width="1.29" stroke-miterlimit="10"/><path d="M26.3 7.6c1.2-.1 2.5-.1 3.8-.1 2.6 0 5.2.1 7.5.4v5.6c-2.3-.3-4.9-.4-7.5-.4-1.3 0-2.5 0-3.8.1V7.6z" fill="none" stroke="#f38681" stroke-width="1.29" stroke-miterlimit="10"/><path d="m22.5 7.9v15.6c-8.7 1-15 3.5-15 6.6v-15.7c0-3 6.3-5.6 15-6.5z" fill="none" stroke="#f1756f" stroke-width="1.29" stroke-miterlimit="10"/><path d="M7.5 14.4c0 3 6.3 5.6 15 6.5 2.3.3 4.9.4 7.5.4v15.6c-12.4 0-22.5-3.1-22.5-6.9V14.4z" fill="none" stroke="#ee524b" stroke-width="1.29" stroke-miterlimit="10"/><path d="M43.1 24.4c5.7 1.3 9.4 3.3 9.4 5.6v15.6c0-2.3-3.7-4.4-9.4-5.6V24.4z" fill="none" stroke="#94dbdb" stroke-width="1.29" stroke-miterlimit="10"/><path d="m43.1 35.6c5.7-1.3 9.4-3.3 9.4-5.6v15.6c0 3-6.3 5.6-15 6.5v-15.6c2-.2 3.9-.5 5.6-.9z" fill="none" stroke="#6cc" stroke-width="1.29" stroke-miterlimit="10"/><path d="m33.8 18.8c2.3.1 4.4.3 6.4.6v9.9c-2-.3-4.1-.5-6.4-.6v-9.9z" fill="none" stroke="#85d6d6" stroke-width="1.29" stroke-miterlimit="10"/><path d="m93.6 94.6c0 1.6-.6 3-1.8 4-1.2 1-2.8 1.5-4.6 1.5-1.2 0-2.5-.2-3.9-.7-1.3-.4-2.6-1.1-3.6-2l2.1-2.9c1.7 1.3 3.6 2 5.6 2 .6 0 1.1-.1 1.4-.4.4-.2.5-.6.5-.9 0-.4-.2-.8-.7-1.1-.5-.3-1.2-.6-2.1-.9-.9-.3-1.6-.5-2.1-.7-.5-.2-1-.5-1.7-.9-1.3-.8-1.9-2-1.9-3.5s.6-2.8 1.9-3.8c1.2-1 2.9-1.5 4.8-1.5 2 0 3.9.7 5.9 2l-1.7 3.1c-1.5-1-2.9-1.5-4.3-1.5-1.4 0-2.2.4-2.2 1.2 0 .4.2.8.7 1 .5.2 1.2.5 2.3.9 1.1.3 1.8.6 2.3.8s1 .5 1.6.8c.9.7 1.5 1.9 1.5 3.5m9.1-12.2c-.5.4-.7.9-.7 1.5 0 .6.3 1.1.9 1.5.6.4 1.9.8 3.9 1.3 2.1.5 3.7 1.3 4.8 2.3 1.1 1 1.7 2.5 1.7 4.4s-.7 3.5-2.2 4.7c-1.5 1.2-3.4 1.8-5.8 1.8-3.4 0-6.5-1.3-9.3-3.8l2.9-3.5c2.3 2.1 4.5 3.1 6.5 3.1.9 0 1.6-.2 2.1-.6.5-.4.8-.9.8-1.6 0-.7-.3-1.2-.8-1.6-.5-.4-1.6-.8-3.2-1.2-2.5-.6-4.4-1.4-5.6-2.3-1.2-1-1.8-2.5-1.8-4.5s.7-3.7 2.2-4.8c1.5-1.1 3.3-1.7 5.6-1.7 1.5 0 2.9.2 4.4.7 1.5.5 2.7 1.2 3.8 2.1l-2.5 3.5c-1.9-1.4-3.8-2.1-5.8-2.1-.8.3-1.5.5-1.9.8m24 .4c1.9 0 3.7.8 5.2 2.4 1.5 1.6 2.3 3.7 2.3 6.1 0 2.5-.8 4.5-2.3 6.2-1.5 1.7-3.3 2.5-5.3 2.5-2 0-3.7-.8-4.9-2.5v8.2h-4.7v-22.6h4.7v1.9c1.4-1.5 3-2.2 5-2.2m-5.1 8.7c0 1.4.4 2.5 1.1 3.3.8.9 1.7 1.3 2.8 1.3 1.1 0 2-.4 2.8-1.3.8-.9 1.2-2 1.2-3.3s-.4-2.5-1.2-3.4c-.8-.9-1.7-1.4-2.8-1.4-1.1 0-2 .5-2.8 1.4-.8.9-1.1 2-1.1 3.4m30.3 8.3h-4.4v-2c-1.2 1.5-2.7 2.3-4.5 2.3-1.8 0-3.3-.5-4.5-1.5-1.2-1-1.8-2.4-1.8-4.1 0-1.7.6-3 1.9-3.8 1.2-.9 2.9-1.3 5.1-1.3h3.5v-.1c0-1.8-.9-2.7-2.8-2.7-.8 0-1.7.2-2.6.5-.9.3-1.7.7-2.3 1.2l-2.1-3c2.2-1.6 4.7-2.4 7.5-2.4 2 0 3.7.5 5 1.5 1.3 1 1.9 2.6 1.9 4.8v10.6zm-4.7-6.3v-.8h-2.9c-1.9 0-2.8.6-2.8 1.7 0 .6.2 1.1.7 1.4.4.3 1.1.5 1.9.5.8 0 1.6-.3 2.2-.8.6-.5.9-1.2.9-2m17 2.5c1.6 0 3-.8 4.2-2.3l2.8 3.1c-2.2 2.2-4.5 3.4-7 3.4-2.5 0-4.6-.8-6.4-2.4-1.7-1.6-2.6-3.7-2.6-6.2 0-2.6.9-4.6 2.6-6.2 1.8-1.6 3.8-2.4 6.2-2.4 1.2 0 2.4.2 3.7.7 1.2.5 2.3 1.2 3.2 2.2l-2.4 3.2c-.5-.6-1.2-1.1-2-1.5-.8-.4-1.6-.5-2.3-.5-1.2 0-2.3.4-3.2 1.2-.9.8-1.3 1.9-1.3 3.3 0 1.4.4 2.5 1.3 3.3 1 .7 2 1.1 3.2 1.1m24.5 1.4c-1.9 1.8-4.1 2.7-6.6 2.7-2.5 0-4.6-.8-6.3-2.3-1.7-1.6-2.5-3.7-2.5-6.3 0-2.6.8-4.7 2.5-6.3 1.7-1.6 3.7-2.3 6-2.3 2.3 0 4.3.7 5.9 2.1 1.6 1.4 2.4 3.3 2.4 5.7v2.5h-12.2c.1.9.6 1.7 1.4 2.2.8.6 1.7.9 2.7.9 1.6 0 3-.5 4-1.6l2.7 2.7m-4.4-9.9c-.6-.5-1.4-.8-2.3-.8-.9 0-1.8.3-2.5.8-.8.6-1.2 1.3-1.3 2.3h7.3c-.2-1-.6-1.8-1.2-2.3" fill="#336"/></svg>